<svg width="24" height="24" viewBox="0 0 24 24" fill="none" xmlns="http://www.w3.org/2000/svg">
<path d="M6.21875 9.5625V15C6.21875 15.375 6.09375 15.6875 5.84375 15.9375C5.59375 16.1875 5.28125 16.3125 4.90625 16.3125C4.53125 16.3125 4.20312 16.1875 3.92188 15.9375C3.64062 15.6875 3.5 15.375 3.5 15V9.5625C3.5 9.21875 3.64062 8.92188 3.92188 8.67188C4.20312 8.42188 4.53125 8.29688 4.90625 8.29688C5.25 8.29688 5.54688 8.42188 5.79688 8.67188C6.07812 8.92188 6.21875 9.21875 6.21875 9.5625ZM6.6875 16.9688V8.53125H18.3125V16.9688C18.3125 17.3438 18.1719 17.6719 17.8906 17.9531C17.6094 18.2031 17.2812 18.3281 16.9062 18.3281H15.9688V21.1875C15.9688 21.75 15.75 22.1406 15.3125 22.3594C14.875 22.5781 14.4375 22.5781 14 22.3594C13.5938 22.1406 13.3906 21.75 13.3906 21.1875V18.3281H11.6094V21.1875C11.6094 21.7188 11.3906 22.0938 10.9531 22.3125C10.5469 22.5625 10.125 22.5781 9.6875 22.3594C9.25 22.1406 9.03125 21.75 9.03125 21.1875V18.3281H8.09375C7.71875 18.3281 7.39062 18.2031 7.10938 17.9531C6.82812 17.6719 6.6875 17.3438 6.6875 16.9688ZM18.3125 8.0625H6.64062C6.64062 7.6875 6.6875 7.3125 6.78125 6.9375C6.875 6.53125 7 6.17188 7.15625 5.85938C7.34375 5.51563 7.5625 5.1875 7.8125 4.875C8.0625 4.5625 8.34375 4.29688 8.65625 4.07812C8.96875 3.82813 9.29688 3.60938 9.64062 3.42188L8.75 1.78125C8.65625 1.65625 8.6875 1.5625 8.84375 1.5L9.03125 1.59375L9.96875 3.28125C11.6562 2.53125 13.3438 2.53125 15.0312 3.28125L15.9688 1.59375C16.0312 1.46875 16.1094 1.45312 16.2031 1.54688C16.2656 1.60937 16.2812 1.6875 16.25 1.78125L15.3594 3.42188C16.2656 3.89062 16.9844 4.54688 17.5156 5.39062C18.0469 6.20312 18.3125 7.09375 18.3125 8.0625ZM10.2031 5.8125C10.2969 5.71875 10.3438 5.60938 10.3438 5.48438C10.3438 5.35937 10.2969 5.25 10.2031 5.15625C10.1094 5.03125 9.98438 4.96875 9.82812 4.96875C9.70312 4.96875 9.59375 5.03125 9.5 5.15625C9.40625 5.25 9.35938 5.35937 9.35938 5.48438C9.35938 5.60938 9.40625 5.71875 9.5 5.8125C9.59375 5.90625 9.70312 5.95312 9.82812 5.95312C9.98438 5.95312 10.1094 5.90625 10.2031 5.8125ZM15.5 5.8125C15.5938 5.71875 15.6406 5.60938 15.6406 5.48438C15.6406 5.35937 15.5938 5.25 15.5 5.15625C15.4062 5.03125 15.2969 4.96875 15.1719 4.96875C15.0469 4.96875 14.9219 5.03125 14.7969 5.15625C14.7031 5.25 14.6562 5.35937 14.6562 5.48438C14.6562 5.57812 14.6719 5.67188 14.7031 5.76562C14.7656 5.82812 14.8281 5.875 14.8906 5.90625C14.9844 5.9375 15.0781 5.95312 15.1719 5.95312C15.2969 5.95312 15.4062 5.90625 15.5 5.8125ZM20.0938 8.29688C20.3438 8.29688 20.5625 8.35938 20.75 8.48438C20.9688 8.57812 21.1406 8.73438 21.2656 8.95312C21.4219 9.14062 21.5 9.34375 21.5 9.5625V15C21.5 15.375 21.3594 15.6875 21.0781 15.9375C20.7969 16.1875 20.4688 16.3125 20.0938 16.3125C19.75 16.3125 19.4375 16.1875 19.1562 15.9375C18.9062 15.6875 18.7812 15.375 18.7812 15V9.5625C18.7812 9.21875 18.9062 8.92188 19.1562 8.67188C19.4375 8.42188 19.75 8.29688 20.0938 8.29688Z" fill="#A4C639"/>
</svg>
