<svg width="24" height="24" viewBox="0 0 24 24" fill="none" xmlns="http://www.w3.org/2000/svg">
<path d="M17.9531 12.6094C17.9531 14.5781 18.9062 16.0156 20.8125 16.9219C20.4375 18.1094 19.7969 19.3281 18.8906 20.5781C17.9844 21.8281 17.0312 22.4688 16.0312 22.5C15.5938 22.5 15.0156 22.3594 14.2969 22.0781C13.5781 21.7969 12.9531 21.6562 12.4219 21.6562C11.8906 21.6562 11.25 21.7969 10.5 22.0781C9.78125 22.3594 9.25 22.5 8.90625 22.5C8.21875 22.5312 7.48438 22.1562 6.70312 21.375C5.95312 20.5938 5.34375 19.7812 4.875 18.9375C4.4375 18.0938 4.09375 17.3281 3.84375 16.6406C3.40625 15.3281 3.1875 14.0625 3.1875 12.8438C3.1875 10.875 3.71875 9.34375 4.78125 8.25C5.875 7.15625 7.14062 6.59375 8.57812 6.5625C9.04688 6.5625 9.71875 6.71875 10.5938 7.03125C11.4688 7.34375 12 7.5 12.1875 7.5C12.3125 7.5 12.5312 7.45312 12.8438 7.35938C13.1875 7.23437 13.5312 7.10938 13.875 6.98438C14.2188 6.82813 14.6094 6.70312 15.0469 6.60938C15.5156 6.51562 15.9375 6.48437 16.3125 6.51562C18.0938 6.67187 19.4219 7.375 20.2969 8.625C18.7031 9.5625 17.9219 10.8906 17.9531 12.6094ZM15.2812 4.875C14.2812 6.0625 13.2031 6.60938 12.0469 6.51562C11.9219 5.26562 12.3125 4.14062 13.2188 3.14062C13.5938 2.70313 14.0781 2.32813 14.6719 2.01562C15.2656 1.70312 15.8438 1.53125 16.4062 1.5C16.5 2.75 16.125 3.875 15.2812 4.875Z" fill="#2C323D"/>
</svg>
