<svg width="14" height="14" viewBox="0 0 14 14" fill="none" xmlns="http://www.w3.org/2000/svg">
<path d="M7.81665 3.20711C7.81104 3.27773 7.86104 3.34132 7.93332 3.35551C8.22711 3.42592 8.42829 3.68562 8.41399 3.97599V4.75999C8.41399 5.14473 8.73888 5.45663 9.13965 5.45663V5.45663C9.33221 5.45678 9.51694 5.38345 9.65315 5.25278C9.78937 5.12212 9.8659 4.94484 9.8659 4.75999V2.78599C9.8659 2.56351 9.77361 2.3502 9.60941 2.1932C9.44521 2.03621 9.22264 1.94845 8.9909 1.94935H7.98524C7.9464 1.94918 7.90914 1.96413 7.88199 1.99079C7.8546 2.01706 7.83927 2.05274 7.8394 2.08991C7.84057 2.35479 7.83999 2.92543 7.81665 3.20711Z" fill="#2C323D"/>
<path d="M5.22317 12.4667C5.22317 12.082 4.89828 11.7701 4.4975 11.7701H2.03233C1.68869 11.7482 1.42802 11.4639 1.449 11.1339V3.976C1.43301 3.68096 1.6402 3.41758 1.94017 3.3516C2.01096 3.33782 2.06058 3.27637 2.05683 3.20712C2.03408 2.77816 2.02708 2.31112 2.02475 2.08712C2.02379 2.01046 1.95878 1.94879 1.87892 1.9488H0.875C0.643157 1.9479 0.420499 2.03573 0.256286 2.19285C0.0920735 2.34997 -0.000156854 2.56343 2.00251e-07 2.786V12.3267C1.48416e-07 12.5486 0.0918372 12.7613 0.255292 12.9181C0.418747 13.0749 0.640418 13.1629 0.8715 13.1628H4.4975C4.89805 13.1628 5.22285 12.8512 5.22317 12.4667V12.4667Z" fill="#2C323D"/>
<path d="M6.96327 3.06432V1.95104C6.96327 1.7964 6.83269 1.67104 6.67161 1.67104H6.22944C6.15519 1.67095 6.09277 1.61752 6.08419 1.54672C6.01809 0.983368 5.52177 0.557556 4.93123 0.557556C4.3407 0.557556 3.84438 0.983368 3.77827 1.54672C3.7702 1.61777 3.70747 1.67146 3.63302 1.67104H3.19261C3.03152 1.67104 2.90094 1.7964 2.90094 1.95104V3.06432C2.90094 3.21896 3.03152 3.34432 3.19261 3.34432H6.67336C6.83376 3.34339 6.96328 3.2183 6.96327 3.06432Z" fill="#2C323D"/>
<path d="M11.095 10.2306H8.77393C8.5323 10.2306 8.33643 10.4187 8.33643 10.6506C8.33643 10.8826 8.5323 11.0706 8.77393 11.0706H11.095C11.3366 11.0706 11.5325 10.8826 11.5325 10.6506C11.5325 10.4187 11.3366 10.2306 11.095 10.2306Z" fill="#2C323D"/>
<path d="M8.33643 8.70239C8.33675 8.93413 8.53253 9.12183 8.77393 9.12183H10.2241C10.4657 9.12183 10.6616 8.93379 10.6616 8.70183C10.6616 8.46987 10.4657 8.28183 10.2241 8.28183H8.77393C8.65779 8.28183 8.54642 8.32616 8.46436 8.40504C8.3823 8.48393 8.33627 8.5909 8.33643 8.70239V8.70239Z" fill="#2C323D"/>
<path fill-rule="evenodd" clip-rule="evenodd" d="M13.3677 7.30857C13.5858 7.51774 13.7084 7.80161 13.7083 8.09761V12.88C13.7083 13.4986 13.186 14 12.5417 14H7.29167C6.64733 14 6.125 13.4986 6.125 12.88V7.31081C6.12661 6.69529 6.647 6.19721 7.28817 6.19753H11.725C12.0335 6.19752 12.3294 6.31516 12.5475 6.52457L13.3677 7.30857ZM7.875 7.3136C7.55284 7.3136 7.29167 7.56432 7.29167 7.8736L7.29458 12.32C7.29458 12.6293 7.55575 12.88 7.87792 12.88H11.9613C12.2834 12.88 12.5446 12.6293 12.5446 12.32V8.33056C12.5447 8.18186 12.4832 8.03922 12.3737 7.93408L11.8965 7.47712C11.787 7.3723 11.6387 7.31349 11.4841 7.3136H7.875Z" fill="#2C323D"/>
</svg>
