<svg width="14" height="14" viewBox="0 0 14 14" fill="none" xmlns="http://www.w3.org/2000/svg">
<path fill-rule="evenodd" clip-rule="evenodd" d="M13.0002 0H0.999833C0.447907 0.000642897 0.000642897 0.447907 0 0.999833V12.9996C0.000321393 13.5517 0.44768 13.9994 0.999833 14H13.0002C13.5523 13.9994 13.9997 13.5517 14 12.9996V0.999833C13.9994 0.447907 13.5521 0.000642897 13.0002 0ZM5.57142 5.14267H8.42975C8.58761 5.14267 8.71558 5.27064 8.71558 5.4285V7.854C8.71558 7.93454 8.78088 7.99984 8.86142 7.99984H9.85833C10.0884 7.95463 10.3185 8.07796 10.4081 8.29461C10.4978 8.51126 10.4223 8.7611 10.2276 8.89175L7.60725 11.5121C7.27204 11.8457 6.7303 11.8457 6.39509 11.5121L3.77359 8.89175C3.57938 8.76111 3.50401 8.5118 3.59329 8.29544C3.68258 8.07908 3.91185 7.95549 4.14167 7.99984H5.13975C5.22029 7.99984 5.28559 7.93454 5.28559 7.854V5.4285C5.28559 5.27064 5.41356 5.14267 5.57142 5.14267ZM5.28559 2.2855V3.71408C5.28559 3.87195 5.41356 3.99992 5.57142 3.99992H8.42976C8.58762 3.99992 8.71559 3.87195 8.71559 3.71408V2.2855C8.71559 2.12764 8.58762 1.99967 8.42976 1.99967H5.57142C5.41356 1.99967 5.28559 2.12764 5.28559 2.2855Z" fill="#7F8794"/>
</svg>
