<svg width="24" height="24" viewBox="0 0 24 24" fill="none" xmlns="http://www.w3.org/2000/svg">
<path d="M7.75074 24C9.82033 24 11.5 22.208 11.5 20V16H7.75074C5.68116 16 4.0015 17.792 4.0015 20C4.0015 22.208 5.68116 24 7.75074 24Z" fill="#5ECB89"/>
<path d="M4.0015 12C4.0015 9.792 5.68116 8 7.75074 8H11.5V16H7.75074C5.68116 16 4.0015 14.208 4.0015 12Z" fill="#9763F6"/>
<path d="M4.0015 4C4.0015 1.792 5.68116 0 7.75074 0H11.5V8H7.75074C5.68116 8 4.0015 6.208 4.0015 4Z" fill="#E05A32"/>
<path d="M11.5 0H15.2493C17.3188 0 18.9985 1.792 18.9985 4C18.9985 6.208 17.3188 8 15.2493 8H11.5V0Z" fill="#EE7A69"/>
<path d="M18.9985 12C18.9985 14.208 17.3188 16 15.2493 16C13.1797 16 11.5 14.208 11.5 12C11.5 9.792 13.1797 8 15.2493 8C17.3188 8 18.9985 9.792 18.9985 12Z" fill="#55BBF8"/>
</svg>
