<svg width="24" height="24" viewBox="0 0 24 24" fill="none" xmlns="http://www.w3.org/2000/svg">
<path d="M12.406 14.905C12.1606 15.0061 11.9654 15.2008 11.8635 15.4459C11.7617 15.6911 11.7615 15.9667 11.863 16.212C12.0178 16.5858 11.9322 17.016 11.646 17.302L8.81802 20.131C8.03702 20.9118 6.77102 20.9118 5.99002 20.131L3.86802 18.01C3.49277 17.6349 3.28194 17.1261 3.28194 16.5955C3.28194 16.0649 3.49277 15.5561 3.86802 15.181L6.70002 12.353C6.98789 12.0696 7.41661 11.9843 7.79102 12.136C8.3016 12.3467 8.88632 12.1036 9.09702 11.593C9.30771 11.0824 9.0646 10.4977 8.55402 10.287C7.43214 9.8331 6.14782 10.0893 5.28602 10.939L2.45402 13.767C0.895129 15.3305 0.895129 17.8605 2.45402 19.424L4.57602 21.545C6.13802 23.1065 8.67002 23.1065 10.232 21.545L13.061 18.717C13.9175 17.858 14.1742 16.5686 13.712 15.447C13.501 14.9368 12.9163 14.6941 12.406 14.905Z" fill="#7F8794"/>
<path d="M7.75702 16.241C8.14997 16.6254 8.77807 16.6254 9.17102 16.241L16.95 8.46299C17.329 8.07061 17.3236 7.44691 16.9378 7.06117C16.5521 6.67544 15.9284 6.67002 15.536 7.04899L7.75702 14.827C7.36664 15.2175 7.36664 15.8505 7.75702 16.241Z" fill="#7F8794"/>
<path d="M21.546 4.574L19.425 2.453C17.8616 0.894107 15.3315 0.894107 13.768 2.453L10.939 5.281C10.0825 6.13956 9.82572 7.42878 10.288 8.55C10.4245 8.88029 10.7268 9.11268 11.0811 9.15964C11.4354 9.20659 11.7878 9.06097 12.0056 8.77764C12.2234 8.4943 12.2735 8.11629 12.137 7.786C11.984 7.41333 12.0696 6.98524 12.354 6.7L15.182 3.872C15.5571 3.49675 16.066 3.28592 16.5965 3.28592C17.1271 3.28592 17.6359 3.49675 18.011 3.872L20.132 5.993C20.5073 6.36809 20.7181 6.87692 20.7181 7.4075C20.7181 7.93807 20.5073 8.4469 20.132 8.822L17.3 11.645C17.0119 11.9279 16.5835 12.0131 16.209 11.862C15.6985 11.6507 15.1133 11.8934 14.902 12.404C14.6908 12.9146 14.9335 13.4997 15.444 13.711C16.5661 14.1682 17.8527 13.9121 18.714 13.06L21.542 10.232C23.1022 8.66927 23.1039 6.13892 21.546 4.574Z" fill="#7F8794"/>
</svg>
