<svg width="120" height="28" viewBox="0 0 120 28" fill="none" xmlns="http://www.w3.org/2000/svg">
<path d="M15 0.715866L2.03165 19.2296C4.74976 21.653 8.93065 23.6725 13.2971 24L13.6464 19.8628C11.6924 19.6881 9.80394 19.1096 8.07919 18.2254L15 8.34625L21.9208 18.2254C20.1961 19.1096 18.3076 19.6881 16.3536 19.8628L16.7029 24C21.0694 23.6725 25.2503 21.653 27.9684 19.2296L15 0.715866Z" fill="#24B2B2"/>
<path d="M47.464 17.436C47.464 15.17 46.188 14.092 43.284 13.652C42.866 13.586 41.172 13.344 40.468 13.234C38.752 12.97 38.378 12.772 38.378 12.244C38.378 11.672 38.95 11.364 40.886 11.364C42.558 11.364 43.196 11.65 43.438 11.98C43.548 12.134 43.592 12.508 43.592 12.64H47.002C47.002 12.398 46.936 11.65 46.782 11.188C46.166 9.45 44.076 8.592 40.754 8.592C36.86 8.592 34.924 10 34.924 12.156C34.924 14.466 36.2 15.632 38.862 16.006C39.588 16.116 41.04 16.336 41.502 16.402C43.284 16.666 44.01 16.82 44.01 17.502C44.01 18.206 43.394 18.558 41.392 18.558C39.478 18.558 38.554 18.404 38.334 17.832C38.246 17.59 38.224 17.37 38.224 17.216H34.726C34.726 17.612 34.748 17.942 34.858 18.426C35.364 20.406 37.3 21.22 41.392 21.22C45.572 21.22 47.464 19.944 47.464 17.436ZM63.2502 14.73C63.2502 12.86 62.6782 11.562 61.8422 10.484C60.9622 9.34 59.2022 8.636 57.4202 8.636C55.0882 8.636 53.4382 9.604 52.9982 10.616L52.8882 8.9H49.4562V24.806H52.9982V19.504C53.8782 20.648 55.5722 21.088 57.3762 21.088C59.1582 21.088 60.9402 20.34 61.8422 19.284C62.7662 18.206 63.2502 16.732 63.2502 14.73ZM59.6642 14.95C59.6642 15.764 59.4882 16.424 59.1142 16.952C58.5642 17.722 57.5962 18.162 56.2102 18.162C55.0882 18.162 54.2522 17.832 53.7022 17.26C53.1522 16.71 52.8882 15.918 52.8882 14.95C52.8882 13.916 53.2402 13.036 53.9442 12.442C54.4942 11.98 55.2642 11.716 56.2102 11.716C57.3982 11.716 58.2342 12.024 58.7842 12.53C59.4002 13.124 59.6642 13.96 59.6642 14.95ZM74.8853 8.856C74.4013 8.724 73.7193 8.614 72.7073 8.614C70.9033 8.614 68.9453 9.604 68.6593 10.858V8.9H65.1613V21H68.7473V15.192C68.7473 13.08 70.1113 11.87 71.9813 11.87C73.2353 11.87 74.0493 11.98 74.8853 12.244V8.856ZM88.7192 21H85.3092L85.2212 19.306C84.4072 20.67 82.6032 21.198 80.8212 21.198C78.0712 21.198 76.2232 20.164 76.2232 17.216C76.2232 10.198 76.2012 8.988 76.1132 8.9C76.1132 8.9 79.7652 8.9 79.6992 8.9C79.7652 8.9 79.7872 14.092 79.7872 16.314C79.7872 17.92 80.8652 18.448 82.2512 18.448C84.0112 18.448 85.1112 17.568 85.1112 16.138V8.9H88.6532C88.6532 8.9 88.6532 16.996 88.6532 19.108C88.6532 20.208 88.6972 20.89 88.7192 21ZM104.158 13.74C104.158 13.102 104.048 12.376 103.74 11.672C103.036 10.066 101.276 8.614 97.4258 8.614C95.3798 8.614 93.4658 9.142 92.2118 10.374C91.1558 11.408 90.5618 12.926 90.5618 14.906C90.5618 17.062 91.1778 18.69 92.4318 19.746C93.6198 20.736 95.3358 21.198 97.5578 21.198C99.9998 21.198 101.65 20.582 102.662 19.658C103.74 18.712 104.136 17.436 104.136 16.314H100.748C100.748 16.666 100.638 17.128 100.264 17.502C99.8018 17.942 98.9658 18.272 97.6238 18.272C96.3258 18.272 95.4238 18.03 94.8738 17.48C94.2798 16.93 94.1038 16.05 94.1038 14.928C94.1038 13.894 94.3458 12.992 94.9178 12.42C95.4898 11.848 96.3698 11.606 97.5358 11.606C98.8778 11.606 99.7358 12.002 100.198 12.508C100.55 12.882 100.704 13.322 100.704 13.74H104.158ZM118.983 17.062H115.529C115.463 17.326 115.155 17.722 114.517 18.008C114.011 18.228 113.285 18.404 112.295 18.404C110.975 18.404 109.985 18.052 109.479 17.502C109.061 17.04 108.819 16.622 108.819 16.072H119.071C119.269 14.246 118.939 12.508 118.037 11.188C116.959 9.626 115.067 8.614 112.295 8.614C109.655 8.614 107.565 9.604 106.399 11.298C105.717 12.266 105.343 13.498 105.343 14.884C105.343 16.402 105.673 17.612 106.267 18.558C107.433 20.406 109.611 21.198 112.295 21.198C114.253 21.198 115.727 20.78 116.783 20.098C117.993 19.328 118.697 18.228 118.983 17.062ZM115.573 13.762H108.797C108.797 13.41 109.127 12.684 109.545 12.31C110.139 11.782 111.063 11.452 112.317 11.452C113.637 11.452 114.473 11.87 114.979 12.376C115.419 12.838 115.573 13.41 115.573 13.762Z" fill="white"/>
</svg>
