<svg width="166" height="28" viewBox="0 0 166 28" fill="none" xmlns="http://www.w3.org/2000/svg">
<path d="M47.464 17.436C47.464 15.17 46.188 14.092 43.284 13.652C42.866 13.586 41.172 13.344 40.468 13.234C38.752 12.97 38.378 12.772 38.378 12.244C38.378 11.672 38.95 11.364 40.886 11.364C42.558 11.364 43.196 11.65 43.438 11.98C43.548 12.134 43.592 12.508 43.592 12.64H47.002C47.002 12.398 46.936 11.65 46.782 11.188C46.166 9.45 44.076 8.592 40.754 8.592C36.86 8.592 34.924 10 34.924 12.156C34.924 14.466 36.2 15.632 38.862 16.006C39.588 16.116 41.04 16.336 41.502 16.402C43.284 16.666 44.01 16.82 44.01 17.502C44.01 18.206 43.394 18.558 41.392 18.558C39.478 18.558 38.554 18.404 38.334 17.832C38.246 17.59 38.224 17.37 38.224 17.216H34.726C34.726 17.612 34.748 17.942 34.858 18.426C35.364 20.406 37.3 21.22 41.392 21.22C45.572 21.22 47.464 19.944 47.464 17.436ZM63.2502 14.73C63.2502 12.86 62.6782 11.562 61.8422 10.484C60.9622 9.34 59.2022 8.636 57.4202 8.636C55.0882 8.636 53.4382 9.604 52.9982 10.616L52.8882 8.9H49.4562V24.806H52.9982V19.504C53.8782 20.648 55.5722 21.088 57.3762 21.088C59.1582 21.088 60.9402 20.34 61.8422 19.284C62.7662 18.206 63.2502 16.732 63.2502 14.73ZM59.6642 14.95C59.6642 15.764 59.4882 16.424 59.1142 16.952C58.5642 17.722 57.5962 18.162 56.2102 18.162C55.0882 18.162 54.2522 17.832 53.7022 17.26C53.1522 16.71 52.8882 15.918 52.8882 14.95C52.8882 13.916 53.2402 13.036 53.9442 12.442C54.4942 11.98 55.2642 11.716 56.2102 11.716C57.3982 11.716 58.2342 12.024 58.7842 12.53C59.4002 13.124 59.6642 13.96 59.6642 14.95ZM74.8853 8.856C74.4013 8.724 73.7193 8.614 72.7073 8.614C70.9033 8.614 68.9453 9.604 68.6593 10.858V8.9H65.1613V21H68.7473V15.192C68.7473 13.08 70.1113 11.87 71.9813 11.87C73.2353 11.87 74.0493 11.98 74.8853 12.244V8.856ZM88.7192 21H85.3092L85.2212 19.306C84.4072 20.67 82.6032 21.198 80.8212 21.198C78.0712 21.198 76.2232 20.164 76.2232 17.216C76.2232 10.198 76.2012 8.988 76.1132 8.9C76.1132 8.9 79.7652 8.9 79.6992 8.9C79.7652 8.9 79.7872 14.092 79.7872 16.314C79.7872 17.92 80.8652 18.448 82.2512 18.448C84.0112 18.448 85.1112 17.568 85.1112 16.138V8.9H88.6532C88.6532 8.9 88.6532 16.996 88.6532 19.108C88.6532 20.208 88.6972 20.89 88.7192 21ZM104.158 13.74C104.158 13.102 104.048 12.376 103.74 11.672C103.036 10.066 101.276 8.614 97.4258 8.614C95.3798 8.614 93.4658 9.142 92.2118 10.374C91.1558 11.408 90.5618 12.926 90.5618 14.906C90.5618 17.062 91.1778 18.69 92.4318 19.746C93.6198 20.736 95.3358 21.198 97.5578 21.198C99.9998 21.198 101.65 20.582 102.662 19.658C103.74 18.712 104.136 17.436 104.136 16.314H100.748C100.748 16.666 100.638 17.128 100.264 17.502C99.8018 17.942 98.9658 18.272 97.6238 18.272C96.3258 18.272 95.4238 18.03 94.8738 17.48C94.2798 16.93 94.1038 16.05 94.1038 14.928C94.1038 13.894 94.3458 12.992 94.9178 12.42C95.4898 11.848 96.3698 11.606 97.5358 11.606C98.8778 11.606 99.7358 12.002 100.198 12.508C100.55 12.882 100.704 13.322 100.704 13.74H104.158ZM118.983 17.062H115.529C115.463 17.326 115.155 17.722 114.517 18.008C114.011 18.228 113.285 18.404 112.295 18.404C110.975 18.404 109.985 18.052 109.479 17.502C109.061 17.04 108.819 16.622 108.819 16.072H119.071C119.269 14.246 118.939 12.508 118.037 11.188C116.959 9.626 115.067 8.614 112.295 8.614C109.655 8.614 107.565 9.604 106.399 11.298C105.717 12.266 105.343 13.498 105.343 14.884C105.343 16.402 105.673 17.612 106.267 18.558C107.433 20.406 109.611 21.198 112.295 21.198C114.253 21.198 115.727 20.78 116.783 20.098C117.993 19.328 118.697 18.228 118.983 17.062ZM115.573 13.762H108.797C108.797 13.41 109.127 12.684 109.545 12.31C110.139 11.782 111.063 11.452 112.317 11.452C113.637 11.452 114.473 11.87 114.979 12.376C115.419 12.838 115.573 13.41 115.573 13.762Z" fill="white"/>
<path d="M122.83 21C122.764 20.912 122.764 20.494 122.764 19.856C122.764 17.502 122.764 6.018 122.764 4.456C122.764 3.95 122.742 3.576 122.698 3.444H121.07C121.092 3.62 121.114 4.17 121.114 4.654C121.114 6.502 121.114 18.8 121.114 20.318C121.114 20.78 121.136 20.956 121.202 21H122.83ZM136.464 21C136.354 20.692 136.244 19.438 136.244 18.558C136.244 17.788 136.244 15.984 136.266 15.17C136.266 14.29 136.244 12.354 136.2 11.804C136.024 9.736 134.55 8.658 131.118 8.658C129.094 8.658 127.73 9.12 126.784 10.198C126.212 10.836 125.992 11.672 125.926 12.684H127.488C127.488 11.936 127.686 11.408 128.214 10.902C128.808 10.308 129.754 10.11 131.14 10.11C133.538 10.11 134.55 10.748 134.638 12.2C134.682 12.662 134.682 13.586 134.682 13.916C133.384 13.784 132.24 13.74 131.162 13.762C126.872 13.85 125.376 15.5 125.332 17.414C125.332 17.59 125.332 17.854 125.332 17.964C125.376 19.922 126.938 21.132 129.886 21.132C132.746 21.132 134.066 20.296 134.704 19.262C134.66 19.922 134.836 21 134.902 21H136.464ZM134.704 15.148C134.704 15.39 134.704 16.336 134.66 16.578C134.594 17.678 134.198 18.36 133.516 18.932C132.834 19.504 131.69 19.768 130.348 19.768C128.984 19.768 128.038 19.46 127.51 18.932C127.114 18.536 126.982 18.118 126.982 17.524C126.982 16.864 127.224 16.292 127.73 15.918C128.544 15.324 129.842 15.038 131.734 14.994C132.658 14.972 133.648 15.038 134.704 15.148ZM145.382 8.658C143.05 8.658 141.356 9.736 140.982 10.88V3.466H139.354V21H140.872L140.982 19.13C141.818 20.582 143.578 21.11 145.404 21.11C147.23 21.11 148.66 20.604 149.54 19.658C150.53 18.602 151.168 17.15 151.168 14.774C151.168 12.618 150.596 11.166 149.672 10.176C148.704 9.142 147.362 8.658 145.382 8.658ZM145.184 10.154C146.812 10.154 147.89 10.572 148.638 11.518C149.276 12.332 149.518 13.41 149.518 14.884C149.518 16.6 149.188 17.722 148.506 18.47C147.802 19.262 146.658 19.68 145.074 19.68C142.83 19.68 141.664 18.558 141.202 17.37C141.048 16.886 140.938 16.49 140.938 15.192C140.938 14.004 141.004 13.498 141.136 12.838C141.51 11.342 142.764 10.154 145.184 10.154ZM164.134 17.678C164.134 12.552 155.026 15.214 155.026 11.87C155.026 10.814 155.84 10.088 158.414 10.088C161.846 10.088 162.066 11.188 162.066 12.42H163.694C163.694 9.78 161.956 8.636 158.37 8.636C154.982 8.636 153.398 9.934 153.398 11.782C153.398 17.018 162.506 14.158 162.506 17.744C162.506 19.064 161.582 19.79 158.788 19.79C155.62 19.79 154.806 19.196 154.806 17.48H153.178C153.178 20.208 154.41 21.198 158.744 21.198C162.572 21.198 164.134 20.01 164.134 17.678Z" fill="#B0B5C1"/>
<path d="M15 0.715866L2.03165 19.2296C4.74976 21.653 8.93065 23.6725 13.2971 24L13.6464 19.8628C11.6924 19.6881 9.80394 19.1096 8.07919 18.2254L15 8.34625L21.9208 18.2254C20.1961 19.1096 18.3076 19.6881 16.3536 19.8628L16.7029 24C21.0694 23.6725 25.2503 21.653 27.9684 19.2296L15 0.715866Z" fill="#24B2B2"/>
</svg>
