<svg width="86" height="28" viewBox="0 0 86 28" fill="none" xmlns="http://www.w3.org/2000/svg">
<path d="M13.464 17.436C13.464 15.17 12.188 14.092 9.284 13.652C8.866 13.586 7.172 13.344 6.468 13.234C4.752 12.97 4.378 12.772 4.378 12.244C4.378 11.672 4.95 11.364 6.886 11.364C8.558 11.364 9.196 11.65 9.438 11.98C9.548 12.134 9.592 12.508 9.592 12.64H13.002C13.002 12.398 12.936 11.65 12.782 11.188C12.166 9.45 10.076 8.592 6.754 8.592C2.86 8.592 0.924 10 0.924 12.156C0.924 14.466 2.2 15.632 4.862 16.006C5.588 16.116 7.04 16.336 7.502 16.402C9.284 16.666 10.01 16.82 10.01 17.502C10.01 18.206 9.394 18.558 7.392 18.558C5.478 18.558 4.554 18.404 4.334 17.832C4.246 17.59 4.224 17.37 4.224 17.216H0.726C0.726 17.612 0.748 17.942 0.858 18.426C1.364 20.406 3.3 21.22 7.392 21.22C11.572 21.22 13.464 19.944 13.464 17.436ZM29.2502 14.73C29.2502 12.86 28.6782 11.562 27.8422 10.484C26.9622 9.34 25.2022 8.636 23.4202 8.636C21.0882 8.636 19.4382 9.604 18.9982 10.616L18.8882 8.9H15.4562V24.806H18.9982V19.504C19.8782 20.648 21.5722 21.088 23.3762 21.088C25.1582 21.088 26.9402 20.34 27.8422 19.284C28.7662 18.206 29.2502 16.732 29.2502 14.73ZM25.6642 14.95C25.6642 15.764 25.4882 16.424 25.1142 16.952C24.5642 17.722 23.5962 18.162 22.2102 18.162C21.0882 18.162 20.2522 17.832 19.7022 17.26C19.1522 16.71 18.8882 15.918 18.8882 14.95C18.8882 13.916 19.2402 13.036 19.9442 12.442C20.4942 11.98 21.2642 11.716 22.2102 11.716C23.3982 11.716 24.2342 12.024 24.7842 12.53C25.4002 13.124 25.6642 13.96 25.6642 14.95ZM40.8853 8.856C40.4013 8.724 39.7193 8.614 38.7073 8.614C36.9033 8.614 34.9453 9.604 34.6593 10.858V8.9H31.1613V21H34.7473V15.192C34.7473 13.08 36.1113 11.87 37.9813 11.87C39.2353 11.87 40.0493 11.98 40.8853 12.244V8.856ZM54.7192 21H51.3092L51.2212 19.306C50.4072 20.67 48.6032 21.198 46.8212 21.198C44.0712 21.198 42.2232 20.164 42.2232 17.216C42.2232 10.198 42.2012 8.988 42.1132 8.9C42.1132 8.9 45.7652 8.9 45.6992 8.9C45.7652 8.9 45.7872 14.092 45.7872 16.314C45.7872 17.92 46.8652 18.448 48.2512 18.448C50.0112 18.448 51.1112 17.568 51.1112 16.138V8.9H54.6532C54.6532 8.9 54.6532 16.996 54.6532 19.108C54.6532 20.208 54.6972 20.89 54.7192 21ZM70.1578 13.74C70.1578 13.102 70.0478 12.376 69.7398 11.672C69.0358 10.066 67.2758 8.614 63.4258 8.614C61.3798 8.614 59.4658 9.142 58.2118 10.374C57.1558 11.408 56.5618 12.926 56.5618 14.906C56.5618 17.062 57.1778 18.69 58.4318 19.746C59.6198 20.736 61.3358 21.198 63.5578 21.198C65.9998 21.198 67.6498 20.582 68.6618 19.658C69.7398 18.712 70.1358 17.436 70.1358 16.314H66.7478C66.7478 16.666 66.6378 17.128 66.2638 17.502C65.8018 17.942 64.9658 18.272 63.6238 18.272C62.3258 18.272 61.4238 18.03 60.8738 17.48C60.2798 16.93 60.1038 16.05 60.1038 14.928C60.1038 13.894 60.3458 12.992 60.9178 12.42C61.4898 11.848 62.3698 11.606 63.5358 11.606C64.8778 11.606 65.7358 12.002 66.1978 12.508C66.5498 12.882 66.7038 13.322 66.7038 13.74H70.1578ZM84.9831 17.062H81.5291C81.4631 17.326 81.1551 17.722 80.5171 18.008C80.0111 18.228 79.2851 18.404 78.2951 18.404C76.9751 18.404 75.9851 18.052 75.4791 17.502C75.0611 17.04 74.8191 16.622 74.8191 16.072H85.0711C85.2691 14.246 84.9391 12.508 84.0371 11.188C82.9591 9.626 81.0671 8.614 78.2951 8.614C75.6551 8.614 73.5651 9.604 72.3991 11.298C71.7171 12.266 71.3431 13.498 71.3431 14.884C71.3431 16.402 71.6731 17.612 72.2671 18.558C73.4331 20.406 75.6111 21.198 78.2951 21.198C80.2531 21.198 81.7271 20.78 82.7831 20.098C83.9931 19.328 84.6971 18.228 84.9831 17.062ZM81.5731 13.762H74.7971C74.7971 13.41 75.1271 12.684 75.5451 12.31C76.1391 11.782 77.0631 11.452 78.3171 11.452C79.6371 11.452 80.4731 11.87 80.9791 12.376C81.4191 12.838 81.5731 13.41 81.5731 13.762Z" fill="white"/>
</svg>
