<svg width="579" height="426" viewBox="0 0 579 426" fill="none" xmlns="http://www.w3.org/2000/svg">
<path d="M289.77 0.247726C374.578 101.827 424.348 230.533 424.348 230.533C376.189 223.016 327.604 216.396 304.179 213.279L299.267 173.876C311.81 175.553 334.801 178.659 356.052 181.71C356.052 181.71 334.016 122.429 289.77 65.4439C245.523 122.429 223.488 181.71 223.488 181.71C244.739 178.659 267.73 175.553 280.273 173.876L275.361 213.279C251.936 216.396 203.351 223.016 155.192 230.533C155.192 230.533 204.961 101.827 289.77 0.247726Z" fill="#22CC96"/>
<path d="M488.415 341.162C488.415 367.98 507.909 390.544 539.286 390.544C562.865 390.544 577.346 377.043 577.346 377.043L568.249 360.212C568.249 360.212 556.181 370.569 540.957 370.569C526.847 370.569 514.036 362.062 512.551 345.601H577.903C577.903 345.601 578.46 339.313 578.46 336.539C578.46 311.571 563.793 291.781 536.501 291.781C508.281 291.781 488.415 312.125 488.415 341.162ZM513.293 329.511C515.521 317.304 523.876 309.906 535.944 309.906C546.341 309.906 554.324 316.749 554.696 329.511H513.293Z" fill="white"/>
<path d="M387.368 341.162C387.368 368.535 407.419 390.544 438.796 390.544C464.232 390.544 477.785 375.193 477.785 375.193L468.687 358.548C468.687 358.548 456.805 370.569 440.838 370.569C422.829 370.569 411.318 356.883 411.318 340.977C411.318 324.887 422.643 311.756 440.096 311.756C454.948 311.756 464.789 321.928 464.789 321.928L475.186 305.837C475.186 305.837 463.489 291.781 438.796 291.781C407.419 291.781 387.368 314.345 387.368 341.162Z" fill="white"/>
<path d="M280.485 354.479C280.485 380.187 293.11 390.359 313.347 390.359C329.499 390.359 341.567 380.557 346.209 370.755H346.58C346.58 370.755 346.209 380.602 346.209 384.301L368.859 390.452V291.595H345.28V337.094C345.28 353.925 335.812 368.905 318.731 368.905C307.034 368.905 304.064 361.138 304.064 349.671V291.595H280.485V354.479Z" fill="white"/>
<path d="M204.978 390.636H228.557V351.055C228.557 345.507 229.114 340.328 230.599 335.705C235.055 321.649 246.38 315.915 256.406 315.915C259.562 315.915 261.976 316.285 261.976 316.285V293.166C261.976 293.166 259.934 292.797 257.706 292.797C243.224 292.797 231.899 303.524 227.629 317.025H227.257C227.257 317.025 227.629 301.131 227.629 297.617L204.978 291.5V390.636Z" fill="white"/>
<path d="M92.5249 425.5L116.104 419.209V385.921C116.104 381.112 115.733 377.783 115.733 377.783H116.104C116.104 377.783 124.459 390.73 143.21 390.73C168.089 390.73 186.469 371.31 186.469 341.348C186.469 312.126 170.131 291.967 144.51 291.967C122.231 291.967 114.062 307.503 114.062 307.503H113.69C113.69 307.503 114.062 300.898 114.062 297.384L92.5249 291.595V425.5ZM115.361 341.903C115.361 321.004 126.872 312.126 139.126 312.126C153.05 312.126 162.705 323.778 162.705 341.718C162.705 360.398 151.936 370.94 138.94 370.94C123.345 370.94 115.361 356.514 115.361 341.903Z" fill="white"/>
<path d="M0.914673 376.673C0.914673 376.673 14.0966 390.544 37.6756 390.544C60.1406 390.544 73.8795 377.967 73.8795 362.247C73.8795 331.915 27.8355 333.58 27.8355 320.263C27.8355 314.345 33.7767 311.756 39.9035 311.756C54.3851 311.756 63.1111 319.893 63.1111 319.893L74.0163 302.39C74.0163 302.39 61.4402 291.781 40.0892 291.781C19.6664 291.781 3.88525 301.953 3.88525 319.523C3.88525 349.855 49.9292 348.006 49.9292 362.062C49.9292 367.61 44.1737 370.569 37.4899 370.569C22.08 370.569 11.334 360.042 11.334 360.042L0.914673 376.673Z" fill="white"/>
</svg>
