<svg width="1058" height="605" viewBox="0 0 1058 605" fill="none" xmlns="http://www.w3.org/2000/svg">
<path d="M528.718 24.6429C648.707 168.438 719.121 350.632 719.121 350.632C650.986 339.991 582.246 330.619 549.104 326.207L542.155 270.429C559.901 272.802 592.428 277.199 622.496 281.518C622.496 281.518 591.319 197.601 528.718 116.934C466.118 197.601 434.941 281.518 434.941 281.518C465.008 277.199 497.535 272.802 515.281 270.429L508.332 326.207C475.19 330.619 406.451 339.991 338.315 350.632C338.315 350.632 408.73 168.438 528.718 24.6429Z" fill="white"/>
<path d="M691.953 536.429C691.953 560.135 707.971 562.937 717.063 562.937C719.877 562.937 722.474 562.506 722.474 562.506V549.36C722.474 549.36 720.743 549.575 718.794 549.575C713.166 549.575 706.673 547.42 706.673 533.196V410.571H691.953V536.429Z" fill="white"/>
<path d="M737.642 532.55C737.642 554.101 756.474 564.661 774.657 564.661C801.931 564.661 811.022 541.17 811.022 541.17H811.455C811.455 541.17 811.022 544.834 811.022 550.222V562.075H825.092V492.681C825.092 465.526 810.589 451.087 784.397 451.087C759.937 451.087 745.651 463.371 745.651 463.371L752.578 474.578C752.578 474.578 765.349 464.233 783.315 464.233C798.9 464.233 810.373 471.345 810.373 492.25V495.051H804.312C785.48 495.051 737.642 495.913 737.642 532.55ZM752.794 531.688C752.794 507.766 786.995 507.12 804.095 507.12H810.373V511.861C810.373 530.61 797.818 552.161 777.038 552.161C760.803 552.161 752.794 541.817 752.794 531.688Z" fill="white"/>
<path d="M858.975 562.075H873.262V552.377C873.262 547.205 872.829 543.541 872.829 543.541H873.262C873.262 543.541 883.002 564.661 908.978 564.661C937.551 564.661 958.115 542.248 958.115 507.982C958.115 474.362 939.932 451.087 910.709 451.087C882.786 451.087 873.695 471.992 873.695 471.992H873.262C873.262 471.992 873.695 468.112 873.695 463.156V410.571H858.975V562.075ZM873.262 508.197C873.262 477.379 890.362 464.449 908.545 464.449C928.892 464.449 942.962 481.474 942.962 507.982C942.962 535.567 927.161 551.73 907.895 551.73C884.518 551.73 873.262 529.964 873.262 508.197Z" fill="white"/>
<path d="M977.567 548.929C977.567 548.929 991.421 564.661 1017.83 564.661C1039.69 564.661 1055.06 551.946 1055.06 534.274C1055.06 498.499 996.4 504.965 996.4 481.043C996.4 468.974 1007.01 464.233 1018.05 464.233C1036.01 464.233 1045.32 474.147 1045.32 474.147L1052.03 462.94C1052.03 462.94 1041.42 451.087 1018.48 451.087C998.781 451.087 981.247 461.647 981.247 481.043C981.247 516.387 1039.91 510.568 1039.91 534.274C1039.91 545.696 1029.73 551.515 1018.05 551.515C997.698 551.515 985.576 538.369 985.576 538.369L977.567 548.929Z" fill="white"/>
<path d="M560.765 508.222C560.765 538.859 583.045 564.637 618.904 564.637C645.852 564.637 662.403 549.212 662.403 549.212L652.006 529.985C652.006 529.985 638.213 541.817 620.814 541.817C604.688 541.817 590.047 532.098 588.349 513.293H663.039C663.039 513.293 663.676 506.109 663.676 502.94C663.676 474.416 646.913 451.808 615.722 451.808C583.469 451.808 560.765 475.05 560.765 508.222ZM589.198 494.911C591.744 480.966 601.293 472.514 615.085 472.514C626.967 472.514 636.091 480.332 636.516 494.911H589.198Z" fill="white"/>
<path d="M445.281 508.222C445.281 539.493 468.197 564.637 504.057 564.637C533.127 564.637 548.616 547.099 548.616 547.099L538.219 528.083C538.219 528.083 524.639 541.817 506.391 541.817C485.809 541.817 472.653 526.182 472.653 508.011C472.653 489.629 485.597 474.627 505.542 474.627C522.517 474.627 533.763 486.248 533.763 486.248L545.646 467.866C545.646 467.866 532.278 451.808 504.057 451.808C468.197 451.808 445.281 477.585 445.281 508.222Z" fill="white"/>
<path d="M323.127 523.436C323.127 552.805 337.556 564.426 360.684 564.426C379.144 564.426 392.937 553.228 398.241 542.029H398.666C398.666 542.029 398.241 553.279 398.241 557.504L424.128 564.532V451.595H397.18V503.574C397.18 522.802 386.359 539.916 366.838 539.916C353.47 539.916 350.075 531.042 350.075 517.942V451.595H323.127V523.436Z" fill="white"/>
<path d="M236.833 564.742H263.78V519.524C263.78 513.185 264.417 507.269 266.114 501.987C271.207 485.929 284.15 479.379 295.608 479.379C299.216 479.379 301.974 479.802 301.974 479.802V453.39C301.974 453.39 299.64 452.968 297.094 452.968C280.543 452.968 267.6 465.223 262.719 480.647H262.295C262.295 480.647 262.719 462.49 262.719 458.475L236.833 451.487V564.742Z" fill="white"/>
<path d="M108.313 604.571L135.261 597.384V559.355C135.261 553.862 134.836 550.058 134.836 550.058H135.261C135.261 550.058 144.809 564.849 166.24 564.849C194.673 564.849 215.68 542.663 215.68 508.434C215.68 475.051 197.007 452.02 167.725 452.02C142.263 452.02 132.926 469.768 132.926 469.768H132.502C132.502 469.768 132.926 462.223 132.926 458.208L108.313 451.595V604.571ZM134.412 509.068C134.412 485.192 147.567 475.051 161.572 475.051C177.486 475.051 188.52 488.362 188.52 508.857C188.52 530.197 176.213 542.241 161.36 542.241C143.536 542.241 134.412 525.76 134.412 509.068Z" fill="white"/>
<path d="M3.61377 548.79C3.61377 548.79 18.6791 564.637 45.6268 564.637C71.3015 564.637 87.0034 550.269 87.0034 532.309C87.0034 497.658 34.3809 499.559 34.3809 484.346C34.3809 477.585 41.1709 474.627 48.1731 474.627C64.7237 474.627 74.6965 483.924 74.6965 483.924L87.1597 463.928C87.1597 463.928 72.7868 451.808 48.3853 451.808C25.0447 451.808 7.00877 463.429 7.00877 483.501C7.00877 518.153 59.6312 516.04 59.6312 532.098C59.6312 538.437 53.0534 541.817 45.4147 541.817C27.8031 541.817 15.5217 529.791 15.5217 529.791L3.61377 548.79Z" fill="white"/>
</svg>
