<svg width="578" height="134" viewBox="0 0 578 134" fill="none" xmlns="http://www.w3.org/2000/svg">
<path d="M487.727 49.6624C487.727 76.48 507.222 99.0438 538.598 99.0438C562.177 99.0438 576.659 85.5425 576.659 85.5425L567.561 68.7122C567.561 68.7122 555.493 79.0693 540.269 79.0693C526.159 79.0693 513.348 70.5617 511.863 54.1012H577.216C577.216 54.1012 577.773 47.8129 577.773 45.0387C577.773 20.0706 563.106 0.281062 535.813 0.281062C507.593 0.281062 487.727 20.6254 487.727 49.6624ZM512.606 38.0106C514.834 25.804 523.188 18.4061 535.256 18.4061C545.653 18.4061 553.637 25.2492 554.008 38.0106H512.606Z" fill="white"/>
<path d="M386.68 49.6624C386.68 77.0349 406.732 99.0438 438.108 99.0438C463.544 99.0438 477.097 83.693 477.097 83.693L468 67.0476C468 67.0476 456.118 79.0693 440.151 79.0693C422.142 79.0693 410.631 65.3831 410.631 49.4775C410.631 33.3869 421.956 20.2555 439.408 20.2555C454.261 20.2555 464.101 30.4277 464.101 30.4277L474.498 14.3372C474.498 14.3372 462.801 0.281062 438.108 0.281062C406.732 0.281062 386.68 22.8448 386.68 49.6624Z" fill="white"/>
<path d="M279.797 62.9793C279.797 88.6872 292.422 98.8594 312.659 98.8594C328.811 98.8594 340.879 89.0571 345.521 79.2549H345.892C345.892 79.2549 345.521 89.1018 345.521 92.8008L368.172 98.9519V0.0950732H344.593V45.5941C344.593 62.4245 335.124 77.4054 318.043 77.4054C306.347 77.4054 303.376 69.6375 303.376 58.1707V0.0950732H279.797V62.9793Z" fill="white"/>
<path d="M204.29 99.1362H227.869V59.5555C227.869 54.007 228.426 48.8284 229.912 44.2047C234.368 30.1486 245.693 24.4152 255.719 24.4152C258.875 24.4152 261.288 24.7851 261.288 24.7851V1.66645C261.288 1.66645 259.246 1.29656 257.018 1.29656C242.537 1.29656 231.211 12.0236 226.941 25.5249H226.57C226.57 25.5249 226.941 9.6313 226.941 6.11727L204.29 0V99.1362Z" fill="white"/>
<path d="M91.8373 134L115.416 127.709V94.4209C115.416 89.6123 115.045 86.2832 115.045 86.2832H115.416C115.416 86.2832 123.771 99.2296 142.523 99.2296C167.401 99.2296 185.782 79.81 185.782 49.8482C185.782 20.6263 169.444 0.466885 143.822 0.466885C121.543 0.466885 113.374 16.0026 113.374 16.0026H113.003C113.003 16.0026 113.374 9.39759 113.374 5.88356L91.8373 0.0950732V134ZM114.674 50.4031C114.674 29.5039 126.185 20.6263 138.438 20.6263C152.363 20.6263 162.017 32.2781 162.017 50.2181C162.017 68.898 151.249 79.4401 138.253 79.4401C122.657 79.4401 114.674 65.0141 114.674 50.4031Z" fill="white"/>
<path d="M0.227051 85.1726C0.227051 85.1726 13.409 99.0438 36.9879 99.0438C59.4529 99.0438 73.1919 86.4673 73.1919 70.7466C73.1919 40.415 27.1479 42.0795 27.1479 28.7632C27.1479 22.8448 33.0891 20.2555 39.2159 20.2555C53.6974 20.2555 62.4235 28.3933 62.4235 28.3933L73.3287 10.8902C73.3287 10.8902 60.7526 0.281062 39.4015 0.281062C18.9788 0.281062 3.19763 10.4533 3.19763 28.0234C3.19763 58.355 49.2416 56.5055 49.2416 70.5617C49.2416 76.1101 43.4861 79.0693 36.8023 79.0693C21.3924 79.0693 10.6464 68.5423 10.6464 68.5423L0.227051 85.1726Z" fill="white"/>
</svg>
