<svg width="802" height="180" viewBox="0 0 802 180" fill="none" xmlns="http://www.w3.org/2000/svg">
<path d="M84.3841 9.85156C133.699 69.656 162.639 145.431 162.639 145.431C134.635 141.005 106.384 137.108 92.7625 135.273L89.9065 112.074C97.2001 113.061 110.569 114.89 122.926 116.686C122.926 116.686 110.113 81.7851 84.3841 48.2354C58.6556 81.7851 45.8421 116.686 45.8421 116.686C58.1996 114.89 71.5681 113.061 78.8617 112.074L76.0057 135.273C62.3844 137.108 34.1329 141.005 6.12939 145.431C6.12939 145.431 35.0695 69.656 84.3841 9.85156Z" fill="white"/>
<path d="M674.429 95.6624C674.429 122.48 693.923 145.044 725.3 145.044C748.879 145.044 763.361 131.543 763.361 131.543L754.263 114.712C754.263 114.712 742.195 125.069 726.971 125.069C712.861 125.069 700.05 116.562 698.565 100.101H763.918C763.918 100.101 764.475 93.8129 764.475 91.0387C764.475 66.0706 749.808 46.2811 722.515 46.2811C694.295 46.2811 674.429 66.6254 674.429 95.6624ZM699.308 84.0106C701.536 71.804 709.89 64.4061 721.958 64.4061C732.355 64.4061 740.339 71.2492 740.71 84.0106H699.308Z" fill="white"/>
<path d="M573.382 95.6624C573.382 123.035 593.434 145.044 624.81 145.044C650.246 145.044 663.799 129.693 663.799 129.693L654.702 113.048C654.702 113.048 642.819 125.069 626.853 125.069C608.843 125.069 597.332 111.383 597.332 95.4775C597.332 79.3869 608.658 66.2555 626.11 66.2555C640.963 66.2555 650.803 76.4277 650.803 76.4277L661.2 60.3372C661.2 60.3372 649.503 46.2811 624.81 46.2811C593.434 46.2811 573.382 68.8448 573.382 95.6624Z" fill="white"/>
<path d="M466.499 108.979C466.499 134.687 479.124 144.859 499.361 144.859C515.513 144.859 527.581 135.057 532.223 125.255H532.594C532.594 125.255 532.223 135.102 532.223 138.801L554.874 144.952V46.0951H531.295V91.5941C531.295 108.425 521.826 123.405 504.745 123.405C493.048 123.405 490.078 115.638 490.078 104.171V46.0951H466.499V108.979Z" fill="white"/>
<path d="M390.992 145.136H414.571V105.555C414.571 100.007 415.128 94.8284 416.614 90.2047C421.069 76.1486 432.395 70.4152 442.42 70.4152C445.577 70.4152 447.99 70.7851 447.99 70.7851V47.6664C447.99 47.6664 445.948 47.2966 443.72 47.2966C429.239 47.2966 417.913 58.0236 413.643 71.5249H413.272C413.272 71.5249 413.643 55.6313 413.643 52.1173L390.992 46V145.136Z" fill="white"/>
<path d="M278.539 180L302.118 173.709V140.421C302.118 135.612 301.747 132.283 301.747 132.283H302.118C302.118 132.283 310.473 145.23 329.225 145.23C354.103 145.23 372.484 125.81 372.484 95.8482C372.484 66.6263 356.146 46.4669 330.524 46.4669C308.245 46.4669 300.076 62.0026 300.076 62.0026H299.705C299.705 62.0026 300.076 55.3976 300.076 51.8836L278.539 46.0951V180ZM301.376 96.4031C301.376 75.5039 312.887 66.6263 325.14 66.6263C339.065 66.6263 348.719 78.2781 348.719 96.2181C348.719 114.898 337.951 125.44 324.954 125.44C309.359 125.44 301.376 111.014 301.376 96.4031Z" fill="white"/>
<path d="M186.929 131.173C186.929 131.173 200.111 145.044 223.69 145.044C246.155 145.044 259.894 132.467 259.894 116.747C259.894 86.415 213.85 88.0795 213.85 74.7632C213.85 68.8448 219.791 66.2555 225.918 66.2555C240.399 66.2555 249.125 74.3933 249.125 74.3933L260.031 56.8902C260.031 56.8902 247.454 46.2811 226.103 46.2811C205.681 46.2811 189.9 56.4533 189.9 74.0234C189.9 104.355 235.943 102.506 235.943 116.562C235.943 122.11 230.188 125.069 223.504 125.069C208.094 125.069 197.348 114.542 197.348 114.542L186.929 131.173Z" fill="white"/>
</svg>
