<svg width="926" height="171" viewBox="0 0 926 171" fill="none" xmlns="http://www.w3.org/2000/svg">
<path d="M605.582 111.353C605.582 132.104 619.597 134.556 627.552 134.556C630.015 134.556 632.287 134.179 632.287 134.179V122.672C632.287 122.672 630.772 122.86 629.068 122.86C624.143 122.86 618.461 120.974 618.461 108.523V1.18555H605.582V111.353Z" fill="white"/>
<path d="M645.559 107.957C645.559 126.822 662.037 136.065 677.946 136.065C701.811 136.065 709.766 115.503 709.766 115.503H710.145C710.145 115.503 709.766 118.71 709.766 123.426V133.801H722.077V73.0585C722.077 49.2895 709.387 36.6504 686.469 36.6504C665.067 36.6504 652.567 47.403 652.567 47.403L658.627 57.2125C658.627 57.2125 669.802 48.1576 685.522 48.1576C699.159 48.1576 709.198 54.3828 709.198 72.6812V75.1336H703.894C687.416 75.1336 645.559 75.8881 645.559 107.957ZM658.817 107.203C658.817 86.2635 688.742 85.6975 703.705 85.6975H709.198V89.8477C709.198 106.26 698.212 125.124 680.03 125.124C665.825 125.124 658.817 116.069 658.817 107.203Z" fill="white"/>
<path d="M751.724 133.801H764.224V125.313C764.224 120.785 763.846 117.578 763.846 117.578H764.224C764.224 117.578 772.747 136.065 795.476 136.065C820.477 136.065 838.47 116.446 838.47 86.4521C838.47 57.0238 822.56 36.6504 796.991 36.6504C772.558 36.6504 764.603 54.9488 764.603 54.9488H764.224C764.224 54.9488 764.603 51.5532 764.603 47.2144V1.18555H751.724V133.801ZM764.224 86.6408C764.224 59.6648 779.187 48.3463 795.097 48.3463C812.901 48.3463 825.212 63.249 825.212 86.4521C825.212 110.598 811.385 124.747 794.529 124.747C774.073 124.747 764.224 105.694 764.224 86.6408Z" fill="white"/>
<path d="M855.491 122.294C855.491 122.294 867.612 136.065 890.719 136.065C909.849 136.065 923.296 124.935 923.296 109.467C923.296 78.1518 871.969 83.8111 871.969 62.8718C871.969 52.3078 881.249 48.1576 890.909 48.1576C906.629 48.1576 914.773 56.8352 914.773 56.8352L920.645 47.0258C920.645 47.0258 911.364 36.6504 891.287 36.6504C874.052 36.6504 858.71 45.8939 858.71 62.8718C858.71 93.8092 910.038 88.7158 910.038 109.467C910.038 119.465 901.136 124.558 890.909 124.558C873.105 124.558 862.498 113.051 862.498 113.051L855.491 122.294Z" fill="white"/>
<path d="M490.794 86.6624C490.794 113.48 510.288 136.044 541.665 136.044C565.244 136.044 579.726 122.543 579.726 122.543L570.628 105.712C570.628 105.712 558.56 116.069 543.336 116.069C529.226 116.069 516.415 107.562 514.93 91.1012H580.282C580.282 91.1012 580.839 84.8129 580.839 82.0387C580.839 57.0706 566.172 37.2811 538.88 37.2811C510.66 37.2811 490.794 57.6254 490.794 86.6624ZM515.672 75.0106C517.9 62.804 526.255 55.4061 538.323 55.4061C548.72 55.4061 556.703 62.2492 557.075 75.0106H515.672Z" fill="white"/>
<path d="M389.747 86.6624C389.747 114.035 409.798 136.044 441.175 136.044C466.611 136.044 480.164 120.693 480.164 120.693L471.066 104.048C471.066 104.048 459.184 116.069 443.217 116.069C425.208 116.069 413.697 102.383 413.697 86.4775C413.697 70.3869 425.022 57.2555 442.475 57.2555C457.327 57.2555 467.168 67.4277 467.168 67.4277L477.565 51.3372C477.565 51.3372 465.868 37.2811 441.175 37.2811C409.798 37.2811 389.747 59.8448 389.747 86.6624Z" fill="white"/>
<path d="M282.864 99.9793C282.864 125.687 295.489 135.859 315.726 135.859C331.878 135.859 343.946 126.057 348.588 116.255H348.959C348.959 116.255 348.588 126.102 348.588 129.801L371.238 135.952V37.0951H347.659V82.5941C347.659 99.4245 338.191 114.405 321.11 114.405C309.413 114.405 306.443 106.638 306.443 95.1707V37.0951H282.864V99.9793Z" fill="white"/>
<path d="M207.357 136.136H230.936V96.5555C230.936 91.007 231.493 85.8284 232.978 81.2047C237.434 67.1486 248.76 61.4152 258.785 61.4152C261.941 61.4152 264.355 61.7851 264.355 61.7851V38.6664C264.355 38.6664 262.313 38.2966 260.085 38.2966C245.603 38.2966 234.278 49.0236 230.008 62.5249H229.636C229.636 62.5249 230.008 46.6313 230.008 43.1173L207.357 37V136.136Z" fill="white"/>
<path d="M94.9039 171L118.483 164.709V131.421C118.483 126.612 118.112 123.283 118.112 123.283H118.483C118.483 123.283 126.838 136.23 145.589 136.23C170.468 136.23 188.848 116.81 188.848 86.8482C188.848 57.6263 172.51 37.4669 146.889 37.4669C124.61 37.4669 116.441 53.0026 116.441 53.0026H116.069C116.069 53.0026 116.441 46.3976 116.441 42.8836L94.9039 37.0951V171ZM117.74 87.4031C117.74 66.5039 129.251 57.6263 141.505 57.6263C155.429 57.6263 165.084 69.2781 165.084 87.2181C165.084 105.898 154.316 116.44 141.319 116.44C125.724 116.44 117.74 102.014 117.74 87.4031Z" fill="white"/>
<path d="M3.2937 122.173C3.2937 122.173 16.4756 136.044 40.0546 136.044C62.5196 136.044 76.2585 123.467 76.2585 107.747C76.2585 77.415 30.2146 79.0795 30.2146 65.7632C30.2146 59.8448 36.1557 57.2555 42.2825 57.2555C56.7641 57.2555 65.4902 65.3933 65.4902 65.3933L76.3953 47.8902C76.3953 47.8902 63.8192 37.2811 42.4682 37.2811C22.0455 37.2811 6.26428 47.4533 6.26428 65.0234C6.26428 95.355 52.3082 93.5055 52.3082 107.562C52.3082 113.11 46.5527 116.069 39.8689 116.069C24.4591 116.069 13.713 105.542 13.713 105.542L3.2937 122.173Z" fill="white"/>
</svg>
