<svg width="1172" height="182" viewBox="0 0 1172 182" fill="none" xmlns="http://www.w3.org/2000/svg">
<path d="M88.7137 10.8516C138.028 70.656 166.968 146.431 166.968 146.431C138.965 142.005 110.713 138.108 97.0921 136.273L94.2361 113.074C101.53 114.061 114.898 115.89 127.256 117.686C127.256 117.686 114.442 82.7851 88.7137 49.2354C62.9852 82.7851 50.1717 117.686 50.1717 117.686C62.5292 115.89 75.8977 114.061 83.1913 113.074L80.3353 136.273C66.714 138.108 38.4625 142.005 10.459 146.431C10.459 146.431 39.3991 70.656 88.7137 10.8516Z" fill="#22CC96"/>
<path d="M793.45 121.853C793.45 142.604 807.465 145.056 815.42 145.056C817.882 145.056 820.155 144.679 820.155 144.679V133.172C820.155 133.172 818.64 133.36 816.935 133.36C812.011 133.36 806.329 131.474 806.329 119.023V11.6855H793.45V121.853Z" fill="white"/>
<path d="M833.427 118.457C833.427 137.322 849.905 146.565 865.814 146.565C889.679 146.565 897.634 126.003 897.634 126.003H898.012C898.012 126.003 897.634 129.21 897.634 133.926V144.301H909.945V83.5585C909.945 59.7895 897.255 47.1504 874.337 47.1504C852.935 47.1504 840.434 57.903 840.434 57.903L846.495 67.7125C846.495 67.7125 857.67 58.6576 873.39 58.6576C887.027 58.6576 897.065 64.8828 897.065 83.1812V85.6336H891.762C875.284 85.6336 833.427 86.3881 833.427 118.457ZM846.685 117.703C846.685 96.7635 876.61 96.1975 891.573 96.1975H897.065V100.348C897.065 116.76 886.08 135.624 867.898 135.624C853.693 135.624 846.685 126.569 846.685 117.703Z" fill="white"/>
<path d="M939.592 144.301H952.092V135.813C952.092 131.285 951.714 128.078 951.714 128.078H952.092C952.092 128.078 960.615 146.565 983.344 146.565C1008.34 146.565 1026.34 126.946 1026.34 96.9521C1026.34 67.5238 1010.43 47.1504 984.859 47.1504C960.426 47.1504 952.471 65.4488 952.471 65.4488H952.092C952.092 65.4488 952.471 62.0532 952.471 57.7144V11.6855H939.592V144.301ZM952.092 97.1408C952.092 70.1648 967.055 58.8463 982.965 58.8463C1000.77 58.8463 1013.08 73.749 1013.08 96.9521C1013.08 121.098 999.253 135.247 982.397 135.247C961.941 135.247 952.092 116.194 952.092 97.1408Z" fill="white"/>
<path d="M1043.36 132.794C1043.36 132.794 1055.48 146.565 1078.59 146.565C1097.72 146.565 1111.16 135.435 1111.16 119.967C1111.16 88.6518 1059.84 94.3111 1059.84 73.3718C1059.84 62.8078 1069.12 58.6576 1078.78 58.6576C1094.5 58.6576 1102.64 67.3352 1102.64 67.3352L1108.51 57.5258C1108.51 57.5258 1099.23 47.1504 1079.16 47.1504C1061.92 47.1504 1046.58 56.3939 1046.58 73.3718C1046.58 104.309 1097.91 99.2158 1097.91 119.967C1097.91 129.965 1089 135.058 1078.78 135.058C1060.97 135.058 1050.37 123.551 1050.37 123.551L1043.36 132.794Z" fill="white"/>
<path d="M678.662 97.1624C678.662 123.98 698.156 146.544 729.533 146.544C753.112 146.544 767.593 133.043 767.593 133.043L758.496 116.212C758.496 116.212 746.428 126.569 731.204 126.569C717.094 126.569 704.283 118.062 702.798 101.601H768.15C768.15 101.601 768.707 95.3129 768.707 92.5387C768.707 67.5706 754.04 47.7811 726.748 47.7811C698.528 47.7811 678.662 68.1254 678.662 97.1624ZM703.54 85.5106C705.768 73.304 714.123 65.9061 726.191 65.9061C736.588 65.9061 744.571 72.7492 744.943 85.5106H703.54Z" fill="white"/>
<path d="M577.615 97.1624C577.615 124.535 597.666 146.544 629.043 146.544C654.479 146.544 668.032 131.193 668.032 131.193L658.934 114.548C658.934 114.548 647.052 126.569 631.085 126.569C613.076 126.569 601.565 112.883 601.565 96.9775C601.565 80.8869 612.89 67.7555 630.343 67.7555C645.195 67.7555 655.035 77.9277 655.035 77.9277L665.432 61.8372C665.432 61.8372 653.736 47.7811 629.043 47.7811C597.666 47.7811 577.615 70.3448 577.615 97.1624Z" fill="white"/>
<path d="M470.732 110.479C470.732 136.187 483.356 146.359 503.594 146.359C519.746 146.359 531.814 136.557 536.456 126.755H536.827C536.827 126.755 536.456 136.602 536.456 140.301L559.106 146.452V47.5951H535.527V93.0941C535.527 109.925 526.059 124.905 508.978 124.905C497.281 124.905 494.311 117.138 494.311 105.671V47.5951H470.732V110.479Z" fill="white"/>
<path d="M395.225 146.636H418.804V107.055C418.804 101.507 419.361 96.3284 420.846 91.7047C425.302 77.6486 436.627 71.9152 446.653 71.9152C449.809 71.9152 452.223 72.2851 452.223 72.2851V49.1664C452.223 49.1664 450.181 48.7966 447.953 48.7966C433.471 48.7966 422.146 59.5236 417.876 73.0249H417.504C417.504 73.0249 417.876 57.1313 417.876 53.6173L395.225 47.5V146.636Z" fill="white"/>
<path d="M282.772 181.5L306.351 175.209V141.921C306.351 137.112 305.98 133.783 305.98 133.783H306.351C306.351 133.783 314.706 146.73 333.457 146.73C358.336 146.73 376.716 127.31 376.716 97.3482C376.716 68.1263 360.378 47.9669 334.757 47.9669C312.478 47.9669 304.309 63.5026 304.309 63.5026H303.937C303.937 63.5026 304.309 56.8976 304.309 53.3836L282.772 47.5951V181.5ZM305.608 97.9031C305.608 77.0039 317.119 68.1263 329.373 68.1263C343.297 68.1263 352.952 79.7781 352.952 97.7181C352.952 116.398 342.183 126.94 329.187 126.94C313.592 126.94 305.608 112.514 305.608 97.9031Z" fill="white"/>
<path d="M191.162 132.673C191.162 132.673 204.344 146.544 227.923 146.544C250.388 146.544 264.126 133.967 264.126 118.247C264.126 87.915 218.082 89.5795 218.082 76.2632C218.082 70.3448 224.024 67.7555 230.15 67.7555C244.632 67.7555 253.358 75.8933 253.358 75.8933L264.263 58.3902C264.263 58.3902 251.687 47.7811 230.336 47.7811C209.913 47.7811 194.132 57.9533 194.132 75.5234C194.132 105.855 240.176 104.006 240.176 118.062C240.176 123.61 234.421 126.569 227.737 126.569C212.327 126.569 201.581 116.042 201.581 116.042L191.162 132.673Z" fill="white"/>
</svg>
