<svg width="578" height="426" viewBox="0 0 578 426" fill="none" xmlns="http://www.w3.org/2000/svg">
<path d="M289.082 0.247726C373.891 101.827 423.661 230.533 423.661 230.533C375.502 223.016 326.916 216.396 303.491 213.279L298.58 173.876C311.123 175.553 334.113 178.659 355.365 181.71C355.365 181.71 333.329 122.429 289.082 65.4439C244.836 122.429 222.8 181.71 222.8 181.71C244.052 178.659 267.042 175.553 279.585 173.876L274.674 213.279C251.249 216.396 202.663 223.016 154.504 230.533C154.504 230.533 204.274 101.827 289.082 0.247726Z" fill="white"/>
<path d="M487.727 341.162C487.727 367.98 507.222 390.544 538.598 390.544C562.177 390.544 576.659 377.043 576.659 377.043L567.561 360.212C567.561 360.212 555.494 370.569 540.269 370.569C526.159 370.569 513.348 362.062 511.863 345.601H577.216C577.216 345.601 577.773 339.313 577.773 336.539C577.773 311.571 563.106 291.781 535.814 291.781C507.593 291.781 487.727 312.125 487.727 341.162ZM512.606 329.511C514.834 317.304 523.189 309.906 535.257 309.906C545.654 309.906 553.637 316.749 554.008 329.511H512.606Z" fill="white"/>
<path d="M386.68 341.162C386.68 368.535 406.732 390.544 438.108 390.544C463.544 390.544 477.097 375.193 477.097 375.193L468 358.548C468 358.548 456.118 370.569 440.151 370.569C422.142 370.569 410.631 356.883 410.631 340.977C410.631 324.887 421.956 311.756 439.408 311.756C454.261 311.756 464.101 321.928 464.101 321.928L474.498 305.837C474.498 305.837 462.801 291.781 438.108 291.781C406.732 291.781 386.68 314.345 386.68 341.162Z" fill="white"/>
<path d="M279.797 354.479C279.797 380.187 292.422 390.359 312.659 390.359C328.812 390.359 340.88 380.557 345.521 370.755H345.892C345.892 370.755 345.521 380.602 345.521 384.301L368.172 390.452V291.595H344.593V337.094C344.593 353.925 335.124 368.905 318.043 368.905C306.347 368.905 303.376 361.138 303.376 349.671V291.595H279.797V354.479Z" fill="white"/>
<path d="M204.291 390.636H227.869V351.055C227.869 345.507 228.426 340.328 229.912 335.705C234.368 321.649 245.693 315.915 255.719 315.915C258.875 315.915 261.288 316.285 261.288 316.285V293.166C261.288 293.166 259.246 292.797 257.018 292.797C242.537 292.797 231.211 303.524 226.941 317.025H226.57C226.57 317.025 226.941 301.131 226.941 297.617L204.291 291.5V390.636Z" fill="white"/>
<path d="M91.8374 425.5L115.416 419.209V385.921C115.416 381.112 115.045 377.783 115.045 377.783H115.416C115.416 377.783 123.771 390.73 142.523 390.73C167.401 390.73 185.782 371.31 185.782 341.348C185.782 312.126 169.444 291.967 143.822 291.967C121.543 291.967 113.374 307.503 113.374 307.503H113.003C113.003 307.503 113.374 300.898 113.374 297.384L91.8374 291.595V425.5ZM114.674 341.903C114.674 321.004 126.185 312.126 138.438 312.126C152.363 312.126 162.017 323.778 162.017 341.718C162.017 360.398 151.249 370.94 138.253 370.94C122.657 370.94 114.674 356.514 114.674 341.903Z" fill="white"/>
<path d="M0.227142 376.673C0.227142 376.673 13.4091 390.544 36.988 390.544C59.453 390.544 73.1919 377.967 73.1919 362.247C73.1919 331.915 27.148 333.58 27.148 320.263C27.148 314.345 33.0892 311.756 39.216 311.756C53.6975 311.756 62.4236 319.893 62.4236 319.893L73.3288 302.39C73.3288 302.39 60.7527 291.781 39.4016 291.781C18.9789 291.781 3.19772 301.953 3.19772 319.523C3.19772 349.855 49.2417 348.006 49.2417 362.062C49.2417 367.61 43.4862 370.569 36.8024 370.569C21.3925 370.569 10.6465 360.042 10.6465 360.042L0.227142 376.673Z" fill="white"/>
</svg>
