<svg width="1058" height="605" viewBox="0 0 1058 605" fill="none" xmlns="http://www.w3.org/2000/svg">
<path d="M528.718 24.6429C648.706 168.438 719.121 350.632 719.121 350.632C650.985 339.991 582.246 330.619 549.103 326.207L542.154 270.429C559.901 272.802 592.428 277.199 622.495 281.518C622.495 281.518 591.318 197.601 528.718 116.934C466.117 197.601 434.94 281.518 434.94 281.518C465.008 277.199 497.535 272.802 515.281 270.429L508.332 326.207C475.19 330.619 406.45 339.991 338.314 350.632C338.314 350.632 408.729 168.438 528.718 24.6429Z" fill="#22CC96"/>
<path d="M691.953 536.429C691.953 560.135 707.971 562.937 717.063 562.937C719.877 562.937 722.474 562.506 722.474 562.506V549.36C722.474 549.36 720.743 549.575 718.794 549.575C713.166 549.575 706.673 547.42 706.673 533.196V410.571H691.953V536.429Z" fill="white"/>
<path d="M737.642 532.55C737.642 554.101 756.474 564.661 774.657 564.661C801.931 564.661 811.022 541.17 811.022 541.17H811.455C811.455 541.17 811.022 544.834 811.022 550.222V562.075H825.092V492.681C825.092 465.526 810.589 451.087 784.397 451.087C759.937 451.087 745.651 463.371 745.651 463.371L752.578 474.578C752.578 474.578 765.349 464.233 783.315 464.233C798.9 464.233 810.373 471.345 810.373 492.25V495.051H804.312C785.48 495.051 737.642 495.913 737.642 532.55ZM752.794 531.688C752.794 507.766 786.995 507.12 804.095 507.12H810.373V511.861C810.373 530.61 797.818 552.161 777.038 552.161C760.803 552.161 752.794 541.817 752.794 531.688Z" fill="white"/>
<path d="M858.975 562.075H873.262V552.377C873.262 547.205 872.829 543.541 872.829 543.541H873.262C873.262 543.541 883.002 564.661 908.978 564.661C937.551 564.661 958.115 542.248 958.115 507.982C958.115 474.362 939.932 451.087 910.709 451.087C882.786 451.087 873.695 471.992 873.695 471.992H873.262C873.262 471.992 873.695 468.112 873.695 463.156V410.571H858.975V562.075ZM873.262 508.197C873.262 477.379 890.362 464.449 908.545 464.449C928.892 464.449 942.962 481.474 942.962 507.982C942.962 535.567 927.161 551.73 907.895 551.73C884.518 551.73 873.262 529.964 873.262 508.197Z" fill="white"/>
<path d="M977.567 548.929C977.567 548.929 991.421 564.661 1017.83 564.661C1039.69 564.661 1055.06 551.946 1055.06 534.274C1055.06 498.499 996.4 504.965 996.4 481.043C996.4 468.974 1007.01 464.233 1018.05 464.233C1036.01 464.233 1045.32 474.147 1045.32 474.147L1052.03 462.94C1052.03 462.94 1041.42 451.087 1018.48 451.087C998.781 451.087 981.247 461.647 981.247 481.043C981.247 516.387 1039.91 510.568 1039.91 534.274C1039.91 545.696 1029.73 551.515 1018.05 551.515C997.698 551.515 985.576 538.369 985.576 538.369L977.567 548.929Z" fill="white"/>
<path d="M560.765 508.222C560.765 538.859 583.045 564.637 618.905 564.637C645.853 564.637 662.403 549.212 662.403 549.212L652.006 529.985C652.006 529.985 638.214 541.817 620.814 541.817C604.688 541.817 590.047 532.098 588.35 513.293H663.04C663.04 513.293 663.676 506.109 663.676 502.94C663.676 474.416 646.914 451.808 615.722 451.808C583.47 451.808 560.765 475.05 560.765 508.222ZM589.199 494.911C591.745 480.966 601.293 472.514 615.085 472.514C626.968 472.514 636.092 480.332 636.516 494.911H589.199Z" fill="white"/>
<path d="M445.282 508.222C445.282 539.493 468.198 564.637 504.058 564.637C533.127 564.637 548.617 547.099 548.617 547.099L538.22 528.083C538.22 528.083 524.64 541.817 506.392 541.817C485.809 541.817 472.654 526.182 472.654 508.011C472.654 489.629 485.597 474.627 505.543 474.627C522.518 474.627 533.764 486.248 533.764 486.248L545.646 467.866C545.646 467.866 532.278 451.808 504.058 451.808C468.198 451.808 445.282 477.585 445.282 508.222Z" fill="white"/>
<path d="M323.128 523.436C323.128 552.805 337.556 564.426 360.685 564.426C379.145 564.426 392.937 553.228 398.242 542.029H398.666C398.666 542.029 398.242 553.279 398.242 557.504L424.129 564.532V451.595H397.181V503.574C397.181 522.802 386.359 539.916 366.838 539.916C353.47 539.916 350.075 531.042 350.075 517.942V451.595H323.128V523.436Z" fill="white"/>
<path d="M236.833 564.742H263.781V519.524C263.781 513.185 264.417 507.269 266.115 501.987C271.207 485.929 284.151 479.379 295.609 479.379C299.216 479.379 301.975 479.802 301.975 479.802V453.39C301.975 453.39 299.64 452.968 297.094 452.968C280.544 452.968 267.6 465.223 262.72 480.647H262.295C262.295 480.647 262.72 462.49 262.72 458.475L236.833 451.487V564.742Z" fill="white"/>
<path d="M108.313 604.571L135.261 597.384V559.355C135.261 553.862 134.837 550.058 134.837 550.058H135.261C135.261 550.058 144.809 564.849 166.24 564.849C194.673 564.849 215.68 542.663 215.68 508.434C215.68 475.051 197.008 452.02 167.726 452.02C142.263 452.02 132.927 469.768 132.927 469.768H132.503C132.503 469.768 132.927 462.223 132.927 458.208L108.313 451.595V604.571ZM134.412 509.068C134.412 485.192 147.568 475.051 161.572 475.051C177.486 475.051 188.52 488.362 188.52 508.857C188.52 530.197 176.213 542.241 161.36 542.241C143.536 542.241 134.412 525.76 134.412 509.068Z" fill="white"/>
<path d="M3.61426 548.79C3.61426 548.79 18.6796 564.637 45.6273 564.637C71.302 564.637 87.0038 550.269 87.0038 532.309C87.0038 497.658 34.3814 499.559 34.3814 484.346C34.3814 477.585 41.1714 474.627 48.1736 474.627C64.7242 474.627 74.697 483.924 74.697 483.924L87.1602 463.928C87.1602 463.928 72.7873 451.808 48.3858 451.808C25.0452 451.808 7.00926 463.429 7.00926 483.501C7.00926 518.153 59.6317 516.04 59.6317 532.098C59.6317 538.437 53.0539 541.817 45.4151 541.817C27.8036 541.817 15.5222 529.791 15.5222 529.791L3.61426 548.79Z" fill="white"/>
</svg>
