<svg width="802" height="180" viewBox="0 0 802 180" fill="none" xmlns="http://www.w3.org/2000/svg">
<path d="M84.3846 9.85156C133.699 69.656 162.639 145.431 162.639 145.431C134.636 141.005 106.384 137.108 92.763 135.273L89.907 112.074C97.2006 113.061 110.569 114.89 122.927 116.686C122.927 116.686 110.113 81.7851 84.3846 48.2354C58.6561 81.7851 45.8426 116.686 45.8426 116.686C58.2001 114.89 71.5686 113.061 78.8622 112.074L76.0062 135.273C62.3849 137.108 34.1333 141.005 6.12988 145.431C6.12988 145.431 35.07 69.656 84.3846 9.85156Z" fill="#22CC96"/>
<path d="M674.43 95.6624C674.43 122.48 693.924 145.044 725.301 145.044C748.88 145.044 763.361 131.543 763.361 131.543L754.264 114.712C754.264 114.712 742.196 125.069 726.972 125.069C712.862 125.069 700.051 116.562 698.566 100.101H763.918C763.918 100.101 764.475 93.8129 764.475 91.0387C764.475 66.0706 749.808 46.2811 722.516 46.2811C694.295 46.2811 674.43 66.6254 674.43 95.6624ZM699.308 84.0106C701.536 71.804 709.891 64.4061 721.959 64.4061C732.356 64.4061 740.339 71.2492 740.711 84.0106H699.308Z" fill="white"/>
<path d="M573.383 95.6624C573.383 123.035 593.434 145.044 624.811 145.044C650.246 145.044 663.8 129.693 663.8 129.693L654.702 113.048C654.702 113.048 642.82 125.069 626.853 125.069C608.844 125.069 597.333 111.383 597.333 95.4775C597.333 79.3869 608.658 66.2555 626.11 66.2555C640.963 66.2555 650.803 76.4277 650.803 76.4277L661.2 60.3372C661.2 60.3372 649.504 46.2811 624.811 46.2811C593.434 46.2811 573.383 68.8448 573.383 95.6624Z" fill="white"/>
<path d="M466.5 108.979C466.5 134.687 479.124 144.859 499.361 144.859C515.514 144.859 527.582 135.057 532.224 125.255H532.595C532.595 125.255 532.224 135.102 532.224 138.801L554.874 144.952V46.0951H531.295V91.5941C531.295 108.425 521.826 123.405 504.746 123.405C493.049 123.405 490.078 115.638 490.078 104.171V46.0951H466.5V108.979Z" fill="white"/>
<path d="M390.993 145.136H414.572V105.555C414.572 100.007 415.129 94.8284 416.614 90.2047C421.07 76.1486 432.395 70.4152 442.421 70.4152C445.577 70.4152 447.991 70.7851 447.991 70.7851V47.6664C447.991 47.6664 445.949 47.2966 443.721 47.2966C429.239 47.2966 417.914 58.0236 413.644 71.5249H413.272C413.272 71.5249 413.644 55.6313 413.644 52.1173L390.993 46V145.136Z" fill="white"/>
<path d="M278.54 180L302.119 173.709V140.421C302.119 135.612 301.747 132.283 301.747 132.283H302.119C302.119 132.283 310.474 145.23 329.225 145.23C354.104 145.23 372.484 125.81 372.484 95.8482C372.484 66.6263 356.146 46.4669 330.525 46.4669C308.246 46.4669 300.077 62.0026 300.077 62.0026H299.705C299.705 62.0026 300.077 55.3976 300.077 51.8836L278.54 46.0951V180ZM301.376 96.4031C301.376 75.5039 312.887 66.6263 325.141 66.6263C339.065 66.6263 348.72 78.2781 348.72 96.2181C348.72 114.898 337.951 125.44 324.955 125.44C309.36 125.44 301.376 111.014 301.376 96.4031Z" fill="white"/>
<path d="M186.93 131.173C186.93 131.173 200.112 145.044 223.69 145.044C246.155 145.044 259.894 132.467 259.894 116.747C259.894 86.415 213.85 88.0795 213.85 74.7632C213.85 68.8448 219.792 66.2555 225.918 66.2555C240.4 66.2555 249.126 74.3933 249.126 74.3933L260.031 56.8902C260.031 56.8902 247.455 46.2811 226.104 46.2811C205.681 46.2811 189.9 56.4533 189.9 74.0234C189.9 104.355 235.944 102.506 235.944 116.562C235.944 122.11 230.189 125.069 223.505 125.069C208.095 125.069 197.349 114.542 197.349 114.542L186.93 131.173Z" fill="white"/>
</svg>
