<svg width="373" height="58" viewBox="0 0 373 58" fill="none" xmlns="http://www.w3.org/2000/svg">
<path d="M28.0405 3.31703C43.7335 22.4809 52.9429 46.7624 52.9429 46.7624C44.0316 45.3442 35.0413 44.0952 30.7067 43.5072L29.7979 36.0735C32.1188 36.3898 36.373 36.9758 40.3054 37.5514C40.3054 37.5514 36.2279 26.3676 28.0405 15.6168C19.8532 26.3676 15.7756 37.5514 15.7756 37.5514C19.7081 36.9758 23.9622 36.3898 26.2832 36.0735L25.3743 43.5072C21.0398 44.0952 12.0495 45.3442 3.13818 46.7624C3.13818 46.7624 12.3476 22.4809 28.0405 3.31703Z" fill="#20BC93"/>
<path d="M252.303 38.8866C252.303 45.536 256.763 46.3218 259.295 46.3218C260.078 46.3218 260.802 46.2009 260.802 46.2009V42.5135C260.802 42.5135 260.319 42.5739 259.777 42.5739C258.21 42.5739 256.402 41.9695 256.402 37.9798V3.58429H252.303V38.8866Z" fill="#111926"/>
<path d="M265.025 37.7985C265.025 43.8434 270.268 46.8054 275.331 46.8054C282.925 46.8054 285.457 40.2164 285.457 40.2164H285.577C285.577 40.2164 285.457 41.2441 285.457 42.7553V46.08H289.374V26.6154C289.374 18.9988 285.336 14.9487 278.043 14.9487C271.233 14.9487 267.255 18.3943 267.255 18.3943L269.183 21.5377C269.183 21.5377 272.74 18.6361 277.742 18.6361C282.082 18.6361 285.276 20.6309 285.276 26.4945V27.2803H283.588C278.345 27.2803 265.025 27.5221 265.025 37.7985ZM269.244 37.5567C269.244 30.8468 278.767 30.6655 283.528 30.6655H285.276V31.9954C285.276 37.2544 281.78 43.2993 275.994 43.2993C271.474 43.2993 269.244 40.3978 269.244 37.5567Z" fill="#111926"/>
<path d="M298.809 46.08H302.787V43.3598C302.787 41.909 302.666 40.8814 302.666 40.8814H302.787C302.787 40.8814 305.499 46.8054 312.732 46.8054C320.687 46.8054 326.413 40.5187 326.413 30.9073C326.413 21.4772 321.35 14.9487 313.214 14.9487C305.439 14.9487 302.907 20.8123 302.907 20.8123H302.787C302.787 20.8123 302.907 19.7242 302.907 18.3339V3.58429H298.809V46.08ZM302.787 30.9677C302.787 22.3235 307.548 18.6966 312.611 18.6966C318.277 18.6966 322.194 23.472 322.194 30.9073C322.194 38.6448 317.794 43.1784 312.43 43.1784C305.921 43.1784 302.787 37.0731 302.787 30.9677Z" fill="#111926"/>
<path d="M331.83 42.3926C331.83 42.3926 335.687 46.8054 343.04 46.8054C349.128 46.8054 353.407 43.2389 353.407 38.2821C353.407 28.2475 337.073 30.061 337.073 23.3511C337.073 19.966 340.027 18.6361 343.1 18.6361C348.103 18.6361 350.695 21.4168 350.695 21.4168L352.563 18.2734C352.563 18.2734 349.61 14.9487 343.221 14.9487C337.736 14.9487 332.854 17.9107 332.854 23.3511C332.854 33.2648 349.188 31.6327 349.188 38.2821C349.188 41.4859 346.355 43.118 343.1 43.118C337.435 43.118 334.06 39.4306 334.06 39.4306L331.83 42.3926Z" fill="#111926"/>
<path d="M215.775 30.9747C215.775 39.5681 221.979 46.7985 231.963 46.7985C239.467 46.7985 244.075 42.4721 244.075 42.4721L241.18 37.079C241.18 37.079 237.34 40.3979 232.495 40.3979C228.005 40.3979 223.928 37.6716 223.456 32.397H244.252C244.252 32.397 244.43 30.382 244.43 29.493C244.43 21.4922 239.762 15.1508 231.077 15.1508C222.097 15.1508 215.775 21.67 215.775 30.9747ZM223.692 27.2409C224.401 23.3294 227.06 20.9588 230.9 20.9588C234.209 20.9588 236.749 23.1516 236.867 27.2409H223.692Z" fill="#111926"/>
<path d="M183.62 30.9747C183.62 39.7459 190.001 46.7985 199.985 46.7985C208.08 46.7985 212.392 41.8795 212.392 41.8795L209.498 36.5456C209.498 36.5456 205.716 40.3979 200.635 40.3979C194.904 40.3979 191.241 36.0122 191.241 30.9154C191.241 25.7593 194.845 21.5515 200.399 21.5515C205.125 21.5515 208.257 24.8111 208.257 24.8111L211.565 19.655C211.565 19.655 207.843 15.1508 199.985 15.1508C190.001 15.1508 183.62 22.3812 183.62 30.9747Z" fill="#111926"/>
<path d="M149.607 35.242C149.607 43.4798 153.625 46.7394 160.065 46.7394C165.205 46.7394 169.045 43.5984 170.522 40.4573H170.64C170.64 40.4573 170.522 43.6127 170.522 44.798L177.73 46.7691V15.0912H170.227V29.671C170.227 35.0642 167.214 39.8647 161.778 39.8647C158.056 39.8647 157.111 37.3755 157.111 33.7011V15.0912H149.607V35.242Z" fill="#111926"/>
<path d="M125.579 46.8281H133.083V34.1448C133.083 32.3668 133.26 30.7074 133.733 29.2258C135.151 24.7216 138.755 22.8844 141.945 22.8844C142.949 22.8844 143.717 23.0029 143.717 23.0029V15.5947C143.717 15.5947 143.068 15.4762 142.359 15.4762C137.75 15.4762 134.146 18.9136 132.787 23.24H132.669C132.669 23.24 132.787 18.147 132.787 17.021L125.579 15.0607V46.8281Z" fill="#111926"/>
<path d="M89.7945 58L97.2978 55.9841V45.3172C97.2978 43.7763 97.1796 42.7095 97.1796 42.7095H97.2978C97.2978 42.7095 99.9565 46.8581 105.924 46.8581C113.841 46.8581 119.69 40.6352 119.69 31.0342C119.69 21.6703 114.49 15.2103 106.337 15.2103C99.2475 15.2103 96.6479 20.1886 96.6479 20.1886H96.5297C96.5297 20.1886 96.6479 18.0721 96.6479 16.9461L89.7945 15.0912V58ZM97.0615 31.212C97.0615 24.515 100.725 21.6703 104.624 21.6703C109.055 21.6703 112.127 25.404 112.127 31.1527C112.127 37.1385 108.7 40.5167 104.565 40.5167C99.602 40.5167 97.0615 35.894 97.0615 31.212Z" fill="#111926"/>
<path d="M60.6421 42.3536C60.6421 42.3536 64.8369 46.7985 72.3402 46.7985C79.489 46.7985 83.8611 42.7685 83.8611 37.7309C83.8611 28.0114 69.2089 28.5448 69.2089 24.2777C69.2089 22.3812 71.0995 21.5515 73.0492 21.5515C77.6575 21.5515 80.4344 24.1591 80.4344 24.1591L83.9046 18.5504C83.9046 18.5504 79.9026 15.1508 73.1083 15.1508C66.6093 15.1508 61.5874 18.4104 61.5874 24.0406C61.5874 33.7601 76.2396 33.1675 76.2396 37.6716C76.2396 39.4496 74.4081 40.3979 72.2811 40.3979C67.3774 40.3979 63.9577 37.0245 63.9577 37.0245L60.6421 42.3536Z" fill="#111926"/>
</svg>
