<svg width="301" height="59" viewBox="0 0 301 59" fill="none" xmlns="http://www.w3.org/2000/svg">
<path d="M195.906 38.3699C195.906 45.2129 200.463 46.0217 203.049 46.0217C203.85 46.0217 204.589 45.8972 204.589 45.8972V42.1025C204.589 42.1025 204.096 42.1647 203.542 42.1647C201.941 42.1647 200.093 41.5426 200.093 37.4368V2.03986H195.906V38.3699Z" fill="#111926"/>
<path d="M208.904 37.2502C208.904 43.4711 214.262 46.5193 219.435 46.5193C227.194 46.5193 229.781 39.7386 229.781 39.7386H229.904C229.904 39.7386 229.781 40.7961 229.781 42.3513V45.7728H233.784V25.7415C233.784 17.9032 229.658 13.7352 222.206 13.7352C215.247 13.7352 211.183 17.2811 211.183 17.2811L213.153 20.5159C213.153 20.5159 216.787 17.5299 221.898 17.5299C226.332 17.5299 229.596 19.5828 229.596 25.6171V26.4258H227.872C222.514 26.4258 208.904 26.6746 208.904 37.2502ZM213.215 37.0014C213.215 30.0961 222.945 29.9095 227.81 29.9095H229.596V31.2781C229.596 36.6903 226.024 42.9112 220.112 42.9112C215.494 42.9112 213.215 39.9252 213.215 37.0014Z" fill="#111926"/>
<path d="M243.423 45.7728H247.488V42.9734C247.488 41.4804 247.365 40.4229 247.365 40.4229H247.488C247.488 40.4229 250.259 46.5193 257.649 46.5193C265.778 46.5193 271.628 40.0496 271.628 30.1584C271.628 20.4537 266.455 13.7352 258.142 13.7352C250.198 13.7352 247.611 19.7694 247.611 19.7694H247.488C247.488 19.7694 247.611 18.6497 247.611 17.2189V2.03986H243.423V45.7728ZM247.488 30.2206C247.488 21.3247 252.353 17.5921 257.526 17.5921C263.315 17.5921 267.318 22.5066 267.318 30.1584C267.318 38.1211 262.822 42.7868 257.341 42.7868C250.69 42.7868 247.488 36.5037 247.488 30.2206Z" fill="#111926"/>
<path d="M277.163 41.9781C277.163 41.9781 281.104 46.5193 288.617 46.5193C294.837 46.5193 299.21 42.849 299.21 37.7479C299.21 27.4212 282.52 29.2874 282.52 22.3822C282.52 18.8985 285.538 17.5299 288.679 17.5299C293.79 17.5299 296.438 20.3915 296.438 20.3915L298.347 17.1567C298.347 17.1567 295.33 13.7352 288.802 13.7352C283.198 13.7352 278.21 16.7834 278.21 22.3822C278.21 32.5845 294.899 30.9049 294.899 37.7479C294.899 41.0449 292.004 42.7246 288.679 42.7246C282.89 42.7246 279.441 38.9298 279.441 38.9298L277.163 41.9781Z" fill="#111926"/>
<path d="M158.583 30.2277C158.583 39.0714 164.922 46.5123 175.124 46.5123C182.79 46.5123 187.499 42.06 187.499 42.06L184.541 36.5098C184.541 36.5098 180.617 39.9253 175.667 39.9253C171.079 39.9253 166.914 37.1197 166.431 31.6915H187.68C187.68 31.6915 187.861 29.6178 187.861 28.703C187.861 20.4692 183.092 13.9432 174.218 13.9432C165.042 13.9432 158.583 20.6522 158.583 30.2277ZM166.672 26.3853C167.397 22.3599 170.113 19.9203 174.037 19.9203C177.418 19.9203 180.013 22.1769 180.134 26.3853H166.672Z" fill="#111926"/>
<path d="M125.728 30.2277C125.728 39.2544 132.248 46.5123 142.45 46.5123C150.72 46.5123 155.127 41.4501 155.127 41.4501L152.169 35.9609C152.169 35.9609 148.305 39.9253 143.114 39.9253C137.258 39.9253 133.515 35.412 133.515 30.1667C133.515 24.8605 137.198 20.5302 142.872 20.5302C147.702 20.5302 150.901 23.8847 150.901 23.8847L154.282 18.5785C154.282 18.5785 150.479 13.9432 142.45 13.9432C132.248 13.9432 125.728 21.384 125.728 30.2277Z" fill="#111926"/>
<path d="M90.9754 34.6193C90.9754 43.097 95.0804 46.4515 101.66 46.4515C106.912 46.4515 110.836 43.219 112.345 39.9865H112.466C112.466 39.9865 112.345 43.2337 112.345 44.4535L119.71 46.482V13.8818H112.044V28.8861C112.044 34.4363 108.965 39.3766 103.411 39.3766C99.6079 39.3766 98.642 36.8149 98.642 33.0335V13.8818H90.9754V34.6193Z" fill="#111926"/>
<path d="M66.4247 46.5428H74.0913V33.4902C74.0913 31.6604 74.2724 29.9527 74.7554 28.4279C76.2042 23.7926 79.8866 21.9019 83.1464 21.9019C84.1726 21.9019 84.9574 22.0239 84.9574 22.0239V14.4C84.9574 14.4 84.2934 14.278 83.569 14.278C78.8603 14.278 75.1779 17.8155 73.7895 22.2678H73.6688C73.6688 22.2678 73.7895 17.0266 73.7895 15.8678L66.4247 13.8505V46.5428Z" fill="#111926"/>
<path d="M29.861 58.0399L37.5276 55.9653V44.9878C37.5276 43.4021 37.4069 42.3042 37.4069 42.3042H37.5276C37.5276 42.3042 40.2441 46.5736 46.3412 46.5736C54.4304 46.5736 60.4067 40.1695 60.4067 30.289C60.4067 20.6524 55.0944 14.0044 46.7637 14.0044C39.5197 14.0044 36.8636 19.1277 36.8636 19.1277H36.7428C36.7428 19.1277 36.8636 16.9495 36.8636 15.7907L29.861 13.8818V58.0399ZM37.2861 30.472C37.2861 23.58 41.0289 20.6524 45.0131 20.6524C49.5406 20.6524 52.6797 24.4949 52.6797 30.411C52.6797 36.5711 49.1784 40.0476 44.9527 40.0476C39.8819 40.0476 37.2861 35.2903 37.2861 30.472Z" fill="#111926"/>
<path d="M0.0742188 41.938C0.0742188 41.938 4.36028 46.5123 12.0269 46.5123C19.3313 46.5123 23.7985 42.3649 23.7985 37.1807C23.7985 27.1782 8.82744 27.7271 8.82744 23.3358C8.82744 21.384 10.7592 20.5302 12.7513 20.5302C17.4599 20.5302 20.2972 23.2138 20.2972 23.2138L23.843 17.4418C23.843 17.4418 19.7539 13.9432 12.8117 13.9432C6.17129 13.9432 1.04009 17.2977 1.04009 23.0918C1.04009 33.0943 16.0111 32.4844 16.0111 37.1197C16.0111 38.9494 14.1397 39.9253 11.9665 39.9253C6.95606 39.9253 3.46203 36.4538 3.46203 36.4538L0.0742188 41.938Z" fill="#111926"/>
</svg>
