<svg width="344" height="197" viewBox="0 0 344 197" fill="none" xmlns="http://www.w3.org/2000/svg">
<path d="M171.909 8.03644C210.922 54.6983 233.817 113.821 233.817 113.821C211.663 110.368 189.313 107.327 178.537 105.895L176.277 87.7948C182.047 88.5648 192.623 89.9916 202.399 91.3931C202.399 91.3931 192.263 64.1619 171.909 37.9851C151.554 64.1619 141.418 91.3931 141.418 91.3931C151.194 89.9916 161.77 88.5648 167.54 87.7948L165.28 105.895C154.504 107.327 132.154 110.368 110 113.821C110 113.821 132.895 54.6983 171.909 8.03644Z" fill="#20BC93"/>
<path d="M224.983 174.113C224.983 181.806 230.191 182.715 233.147 182.715C234.062 182.715 234.907 182.575 234.907 182.575V178.309C234.907 178.309 234.344 178.379 233.71 178.379C231.88 178.379 229.769 177.68 229.769 173.064V133.272H224.983V174.113Z" fill="#111926"/>
<path d="M239.838 172.854C239.838 179.847 245.961 183.274 251.873 183.274C260.741 183.274 263.697 175.651 263.697 175.651H263.838C263.838 175.651 263.697 176.84 263.697 178.589V182.435H268.272V159.916C268.272 151.105 263.556 146.419 255.04 146.419C247.087 146.419 242.442 150.405 242.442 150.405L244.694 154.042C244.694 154.042 248.847 150.685 254.689 150.685C259.756 150.685 263.486 152.993 263.486 159.776V160.686H261.515C255.392 160.686 239.838 160.965 239.838 172.854ZM244.765 172.574C244.765 164.812 255.885 164.602 261.445 164.602H263.486V166.14C263.486 172.225 259.404 179.218 252.647 179.218C247.369 179.218 244.765 175.861 244.765 172.574Z" fill="#111926"/>
<path d="M279.289 182.435H283.934V179.288C283.934 177.61 283.793 176.421 283.793 176.421H283.934C283.934 176.421 287.101 183.274 295.547 183.274C304.837 183.274 311.523 176.001 311.523 164.882C311.523 153.972 305.611 146.419 296.11 146.419C287.031 146.419 284.075 153.203 284.075 153.203H283.934C283.934 153.203 284.075 151.944 284.075 150.335V133.272H279.289V182.435ZM283.934 164.952C283.934 154.951 289.494 150.755 295.406 150.755C302.022 150.755 306.596 156.28 306.596 164.882C306.596 173.833 301.459 179.078 295.195 179.078C287.594 179.078 283.934 172.015 283.934 164.952Z" fill="#111926"/>
<path d="M317.848 178.169C317.848 178.169 322.352 183.274 330.939 183.274C338.047 183.274 343.044 179.148 343.044 173.414C343.044 161.805 323.971 163.903 323.971 156.14C323.971 152.224 327.42 150.685 331.009 150.685C336.851 150.685 339.877 153.902 339.877 153.902L342.059 150.266C342.059 150.266 338.61 146.419 331.15 146.419C324.745 146.419 319.045 149.846 319.045 156.14C319.045 167.609 338.118 165.721 338.118 173.414C338.118 177.12 334.81 179.008 331.009 179.008C324.393 179.008 320.452 174.742 320.452 174.742L317.848 178.169Z" fill="#111926"/>
<path d="M182.328 164.96C182.328 174.901 189.572 183.266 201.232 183.266C209.994 183.266 215.375 178.261 215.375 178.261L211.995 172.022C211.995 172.022 207.51 175.861 201.853 175.861C196.61 175.861 191.849 172.707 191.297 166.605H215.582C215.582 166.605 215.789 164.274 215.789 163.245C215.789 153.989 210.339 146.653 200.197 146.653C189.71 146.653 182.328 154.195 182.328 164.96ZM191.573 160.64C192.401 156.115 195.506 153.372 199.99 153.372C203.854 153.372 206.82 155.909 206.958 160.64H191.573Z" fill="#111926"/>
<path d="M144.78 164.96C144.78 175.107 152.231 183.266 163.89 183.266C173.342 183.266 178.378 177.575 178.378 177.575L174.998 171.405C174.998 171.405 170.582 175.861 164.649 175.861C157.957 175.861 153.68 170.788 153.68 164.891C153.68 158.926 157.888 154.058 164.373 154.058C169.892 154.058 173.549 157.829 173.549 157.829L177.412 151.864C177.412 151.864 173.066 146.653 163.89 146.653C152.231 146.653 144.78 155.018 144.78 164.96Z" fill="#111926"/>
<path d="M105.062 169.896C105.062 179.427 109.754 183.198 117.274 183.198C123.276 183.198 127.76 179.564 129.485 175.93H129.623C129.623 175.93 129.485 179.581 129.485 180.952L137.902 183.232V146.584H129.14V163.451C129.14 169.691 125.622 175.244 119.275 175.244C114.928 175.244 113.824 172.365 113.824 168.114V146.584H105.062V169.896Z" fill="#111926"/>
<path d="M77.0044 183.3H85.7663V168.627C85.7663 166.57 85.9733 164.65 86.5252 162.936C88.181 157.725 92.3894 155.6 96.1149 155.6C97.2878 155.6 98.1847 155.737 98.1847 155.737V147.166C98.1847 147.166 97.4258 147.029 96.5979 147.029C91.2166 147.029 87.0081 151.006 85.4213 156.011H85.2834C85.2834 156.011 85.4213 150.119 85.4213 148.817L77.0044 146.549V183.3Z" fill="#111926"/>
<path d="M35.2173 196.225L43.9792 193.893V181.552C43.9792 179.77 43.8412 178.536 43.8412 178.536H43.9792C43.9792 178.536 47.0837 183.335 54.0518 183.335C63.2966 183.335 70.1267 176.136 70.1267 165.028C70.1267 154.195 64.0555 146.722 54.5348 146.722C46.2558 146.722 43.2203 152.481 43.2203 152.481H43.0823C43.0823 152.481 43.2203 150.033 43.2203 148.73L35.2173 146.584V196.225ZM43.7032 165.234C43.7032 157.486 47.9806 154.195 52.534 154.195C57.7083 154.195 61.2959 158.515 61.2959 165.166C61.2959 172.091 57.2944 175.999 52.465 175.999C46.6698 175.999 43.7032 170.651 43.7032 165.234Z" fill="#111926"/>
<path d="M1.17529 178.124C1.17529 178.124 6.07365 183.266 14.8355 183.266C23.1834 183.266 28.2887 178.604 28.2887 172.776C28.2887 161.531 11.179 162.148 11.179 157.212C11.179 155.018 13.3867 154.058 15.6634 154.058C21.0447 154.058 24.2873 157.075 24.2873 157.075L28.3396 150.586C28.3396 150.586 23.6663 146.653 15.7324 146.653C8.14338 146.653 2.27915 150.424 2.27915 156.938C2.27915 168.182 19.3889 167.496 19.3889 172.707C19.3889 174.764 17.2502 175.861 14.7665 175.861C9.04026 175.861 5.04707 171.959 5.04707 171.959L1.17529 178.124Z" fill="#111926"/>
</svg>
