<svg width="374" height="58" viewBox="0 0 374 58" fill="none" xmlns="http://www.w3.org/2000/svg">
<path d="M28.115 3.31703C43.8494 22.4809 53.0831 46.7624 53.0831 46.7624C44.1483 45.3442 35.1343 44.0952 30.7882 43.5072L29.877 36.0735C32.2041 36.3898 36.4695 36.9758 40.4123 37.5514C40.4123 37.5514 36.324 26.3676 28.115 15.6168C19.9061 26.3676 15.8178 37.5514 15.8178 37.5514C19.7606 36.9758 24.0259 36.3898 26.353 36.0735L25.4418 43.5072C21.0958 44.0952 12.0818 45.3442 3.14697 46.7624C3.14697 46.7624 12.3807 22.4809 28.115 3.31703Z" fill="#111926"/>
<path d="M252.969 38.8866C252.969 45.536 257.441 46.3218 259.979 46.3218C260.765 46.3218 261.49 46.2009 261.49 46.2009V42.5135C261.49 42.5135 261.006 42.5739 260.463 42.5739C258.891 42.5739 257.079 41.9695 257.079 37.9798V3.58429H252.969V38.8866Z" fill="#111926"/>
<path d="M265.724 37.7985C265.724 43.8434 270.982 46.8054 276.058 46.8054C283.672 46.8054 286.21 40.2164 286.21 40.2164H286.331C286.331 40.2164 286.21 41.2441 286.21 42.7553V46.08H290.138V26.6154C290.138 18.9988 286.089 14.9487 278.777 14.9487C271.949 14.9487 267.96 18.3943 267.96 18.3943L269.894 21.5377C269.894 21.5377 273.459 18.6361 278.475 18.6361C282.826 18.6361 286.029 20.6309 286.029 26.4945V27.2803H284.337C279.079 27.2803 265.724 27.5221 265.724 37.7985ZM269.954 37.5567C269.954 30.8468 279.502 30.6655 284.277 30.6655H286.029V31.9954C286.029 37.2544 282.524 43.2993 276.723 43.2993C272.19 43.2993 269.954 40.3978 269.954 37.5567Z" fill="#111926"/>
<path d="M299.598 46.08H303.586V43.3598C303.586 41.909 303.465 40.8814 303.465 40.8814H303.586C303.586 40.8814 306.305 46.8054 313.557 46.8054C321.534 46.8054 327.275 40.5187 327.275 30.9073C327.275 21.4772 322.199 14.9487 314.04 14.9487C306.245 14.9487 303.707 20.8123 303.707 20.8123H303.586C303.586 20.8123 303.707 19.7242 303.707 18.3339V3.58429H299.598V46.08ZM303.586 30.9677C303.586 22.3235 308.36 18.6966 313.436 18.6966C319.117 18.6966 323.045 23.472 323.045 30.9073C323.045 38.6448 318.633 43.1784 313.255 43.1784C306.728 43.1784 303.586 37.0731 303.586 30.9677Z" fill="#111926"/>
<path d="M332.705 42.3926C332.705 42.3926 336.573 46.8054 343.946 46.8054C350.049 46.8054 354.34 43.2389 354.34 38.2821C354.34 28.2475 337.963 30.061 337.963 23.3511C337.963 19.966 340.924 18.6361 344.006 18.6361C349.022 18.6361 351.62 21.4168 351.62 21.4168L353.494 18.2734C353.494 18.2734 350.532 14.9487 344.127 14.9487C338.628 14.9487 333.733 17.9107 333.733 23.3511C333.733 33.2648 350.109 31.6327 350.109 38.2821C350.109 41.4859 347.269 43.118 344.006 43.118C338.325 43.118 334.941 39.4306 334.941 39.4306L332.705 42.3926Z" fill="#111926"/>
<path d="M216.345 30.9747C216.345 39.5681 222.565 46.7985 232.576 46.7985C240.099 46.7985 244.719 42.4721 244.719 42.4721L241.817 37.079C241.817 37.079 237.966 40.3979 233.109 40.3979C228.607 40.3979 224.519 37.6716 224.045 32.397H244.897C244.897 32.397 245.075 30.382 245.075 29.493C245.075 21.4922 240.395 15.1508 231.687 15.1508C222.683 15.1508 216.345 21.67 216.345 30.9747ZM224.282 27.2409C224.993 23.3294 227.659 20.9588 231.509 20.9588C234.827 20.9588 237.374 23.1516 237.492 27.2409H224.282Z" fill="#111926"/>
<path d="M184.104 30.9747C184.104 39.7459 190.502 46.7985 200.513 46.7985C208.629 46.7985 212.953 41.8795 212.953 41.8795L210.05 36.5456C210.05 36.5456 206.259 40.3979 201.165 40.3979C195.419 40.3979 191.746 36.0122 191.746 30.9154C191.746 25.7593 195.36 21.5515 200.928 21.5515C205.667 21.5515 208.806 24.8111 208.806 24.8111L212.124 19.655C212.124 19.655 208.392 15.1508 200.513 15.1508C190.502 15.1508 184.104 22.3812 184.104 30.9747Z" fill="#111926"/>
<path d="M150.002 35.242C150.002 43.4798 154.03 46.7394 160.487 46.7394C165.641 46.7394 169.491 43.5984 170.972 40.4573H171.091C171.091 40.4573 170.972 43.6127 170.972 44.798L178.199 46.7691V15.0912H170.676V29.671C170.676 35.0642 167.655 39.8647 162.205 39.8647C158.473 39.8647 157.525 37.3755 157.525 33.7011V15.0912H150.002V35.242Z" fill="#111926"/>
<path d="M125.911 46.8281H133.434V34.1448C133.434 32.3668 133.612 30.7074 134.086 29.2258C135.507 24.7216 139.121 22.8844 142.32 22.8844C143.327 22.8844 144.097 23.0029 144.097 23.0029V15.5947C144.097 15.5947 143.445 15.4762 142.734 15.4762C138.114 15.4762 134.5 18.9136 133.138 23.24H133.019C133.019 23.24 133.138 18.147 133.138 17.021L125.911 15.0607V46.8281Z" fill="#111926"/>
<path d="M90.0315 58L97.5547 55.9841V45.3172C97.5547 43.7763 97.4362 42.7095 97.4362 42.7095H97.5547C97.5547 42.7095 100.22 46.8581 106.203 46.8581C114.141 46.8581 120.006 40.6352 120.006 31.0342C120.006 21.6703 114.793 15.2103 106.618 15.2103C99.5095 15.2103 96.903 20.1886 96.903 20.1886H96.7846C96.7846 20.1886 96.903 18.0721 96.903 16.9461L90.0315 15.0912V58ZM97.3177 31.212C97.3177 24.515 100.99 21.6703 104.9 21.6703C109.343 21.6703 112.423 25.404 112.423 31.1527C112.423 37.1385 108.987 40.5167 104.841 40.5167C99.8649 40.5167 97.3177 35.894 97.3177 31.212Z" fill="#111926"/>
<path d="M60.8022 42.3536C60.8022 42.3536 65.0081 46.7985 72.5312 46.7985C79.6989 46.7985 84.0825 42.7685 84.0825 37.7309C84.0825 28.0114 69.3916 28.5448 69.3916 24.2777C69.3916 22.3812 71.2872 21.5515 73.2421 21.5515C77.8626 21.5515 80.6467 24.1591 80.6467 24.1591L84.1261 18.5504C84.1261 18.5504 80.1136 15.1508 73.3013 15.1508C66.7852 15.1508 61.75 18.4104 61.75 24.0406C61.75 33.7601 76.4409 33.1675 76.4409 37.6716C76.4409 39.4496 74.6045 40.3979 72.472 40.3979C67.5553 40.3979 64.1266 37.0245 64.1266 37.0245L60.8022 42.3536Z" fill="#111926"/>
</svg>
