<svg width="260" height="58" viewBox="0 0 260 58" fill="none" xmlns="http://www.w3.org/2000/svg">
<path d="M27.18 3.17436C43.1948 22.4447 52.593 46.8611 52.593 46.8611C43.4989 45.435 34.3243 44.1791 29.9009 43.5878L28.9734 36.1129C31.342 36.4308 35.6833 37.0201 39.6964 37.5989C39.6964 37.5989 35.5352 26.353 27.18 15.5425C18.8248 26.353 14.6636 37.5989 14.6636 37.5989C18.6767 37.0201 23.0181 36.4308 25.3866 36.1129L24.4592 43.5878C20.0357 44.1791 10.8611 45.435 1.76709 46.8611C1.76709 46.8611 11.1653 22.4447 27.18 3.17436Z" fill="#111926"/>
<path d="M218.796 30.8246C218.796 39.4658 225.127 46.7363 235.316 46.7363C242.973 46.7363 247.676 42.3859 247.676 42.3859L244.722 36.9628C244.722 36.9628 240.803 40.3001 235.859 40.3001C231.276 40.3001 227.116 37.5588 226.634 32.2548H247.857C247.857 32.2548 248.038 30.2286 248.038 29.3347C248.038 21.2894 243.275 14.9128 234.412 14.9128C225.247 14.9128 218.796 21.4682 218.796 30.8246ZM226.875 27.0701C227.599 23.1368 230.312 20.7531 234.231 20.7531C237.607 20.7531 240.2 22.9581 240.32 27.0701H226.875Z" fill="#111926"/>
<path d="M185.981 30.8246C185.981 39.6446 192.493 46.7363 202.682 46.7363C210.942 46.7363 215.344 41.79 215.344 41.79L212.389 36.4265C212.389 36.4265 208.531 40.3001 203.346 40.3001C197.497 40.3001 193.759 35.8901 193.759 30.765C193.759 25.5802 197.437 21.349 203.104 21.349C207.928 21.349 211.123 24.6267 211.123 24.6267L214.5 19.442C214.5 19.442 210.701 14.9128 202.682 14.9128C192.493 14.9128 185.981 22.1833 185.981 30.8246Z" fill="#111926"/>
<path d="M151.271 35.1156C151.271 43.3992 155.371 46.6769 161.943 46.6769C167.189 46.6769 171.108 43.5184 172.615 40.3599H172.735C172.735 40.3599 172.615 43.5328 172.615 44.7247L179.971 46.7067V14.8529H172.313V29.5137C172.313 34.9368 169.238 39.7639 163.692 39.7639C159.893 39.7639 158.928 37.261 158.928 33.5661V14.8529H151.271V35.1156Z" fill="#111926"/>
<path d="M126.751 46.7661H134.408V34.0123C134.408 32.2245 134.589 30.5558 135.071 29.066C136.518 24.5368 140.196 22.6893 143.452 22.6893C144.477 22.6893 145.261 22.8085 145.261 22.8085V15.3592C145.261 15.3592 144.597 15.24 143.874 15.24C139.171 15.24 135.493 18.6965 134.106 23.0469H133.986C133.986 23.0469 134.106 17.9256 134.106 16.7933L126.751 14.8222V46.7661Z" fill="#111926"/>
<path d="M90.232 58L97.8892 55.9729V45.2467C97.8892 43.6973 97.7686 42.6246 97.7686 42.6246H97.8892C97.8892 42.6246 100.602 46.7962 106.692 46.7962C114.771 46.7962 120.74 40.5388 120.74 30.8844C120.74 21.4685 115.434 14.9727 107.114 14.9727C99.8789 14.9727 97.226 19.9786 97.226 19.9786H97.1054C97.1054 19.9786 97.226 17.8503 97.226 16.718L90.232 14.8529V58ZM97.648 31.0632C97.648 24.329 101.386 21.4685 105.366 21.4685C109.887 21.4685 113.023 25.2229 113.023 31.0036C113.023 37.0227 109.526 40.4196 105.305 40.4196C100.241 40.4196 97.648 35.7712 97.648 31.0632Z" fill="#111926"/>
<path d="M60.4819 42.2667C60.4819 42.2667 64.7627 46.7363 72.4199 46.7363C79.7153 46.7363 84.177 42.6839 84.177 37.6183C84.177 27.8448 69.2244 28.3812 69.2244 24.0904C69.2244 22.1833 71.1538 21.349 73.1434 21.349C77.8462 21.349 80.68 23.9712 80.68 23.9712L84.2214 18.3313C84.2214 18.3313 80.1374 14.9128 73.2037 14.9128C66.5715 14.9128 61.4466 18.1905 61.4466 23.852C61.4466 33.6255 76.3992 33.0296 76.3992 37.5588C76.3992 39.3466 74.5301 40.3001 72.3596 40.3001C67.3553 40.3001 63.8656 36.9081 63.8656 36.9081L60.4819 42.2667Z" fill="#111926"/>
</svg>
