<svg width="187" height="139" viewBox="0 0 187 139" fill="none" xmlns="http://www.w3.org/2000/svg">
<path d="M93.5263 0.918074C120.964 33.9016 137.066 75.6932 137.066 75.6932C121.486 73.2523 105.767 71.1027 98.188 70.0906L96.5989 57.2963C100.657 57.8406 108.095 58.8492 114.971 59.8398C114.971 59.8398 107.841 40.5911 93.5263 22.0877C79.2113 40.5911 72.082 59.8398 72.082 59.8398C78.9576 58.8492 86.3957 57.8406 90.4537 57.2963L88.8647 70.0906C81.286 71.1027 65.5671 73.2523 49.9863 75.6932C49.9863 75.6932 66.0883 33.9016 93.5263 0.918074Z" fill="#20BC93"/>
<path d="M157.794 111.615C157.794 120.323 164.101 127.65 174.253 127.65C181.881 127.65 186.566 123.266 186.566 123.266L183.623 117.801C183.623 117.801 179.719 121.164 174.793 121.164C170.228 121.164 166.084 118.401 165.603 113.056H186.747C186.747 113.056 186.927 111.015 186.927 110.114C186.927 102.006 182.181 95.5807 173.352 95.5807C164.221 95.5807 157.794 102.187 157.794 111.615ZM165.843 107.832C166.564 103.868 169.267 101.466 173.171 101.466C176.535 101.466 179.118 103.688 179.238 107.832H165.843Z" fill="#111926"/>
<path d="M125.103 111.615C125.103 120.503 131.59 127.65 141.741 127.65C149.97 127.65 154.355 122.665 154.355 122.665L151.412 117.26C151.412 117.26 147.568 121.164 142.402 121.164C136.575 121.164 132.851 116.72 132.851 111.555C132.851 106.33 136.515 102.067 142.162 102.067C146.967 102.067 150.151 105.369 150.151 105.369L153.514 100.145C153.514 100.145 149.73 95.5807 141.741 95.5807C131.59 95.5807 125.103 102.907 125.103 111.615Z" fill="#111926"/>
<path d="M90.5228 115.939C90.5228 124.287 94.6073 127.59 101.155 127.59C106.38 127.59 110.285 124.407 111.786 121.224H111.907C111.907 121.224 111.786 124.421 111.786 125.622L119.115 127.62V95.5203H111.486V110.294C111.486 115.759 108.423 120.623 102.897 120.623C99.1124 120.623 98.1513 118.101 98.1513 114.378V95.5203H90.5228V115.939Z" fill="#111926"/>
<path d="M66.0942 127.68H73.7227V114.827C73.7227 113.026 73.9029 111.344 74.3834 109.843C75.825 105.279 79.4891 103.417 82.7327 103.417C83.7539 103.417 84.5347 103.537 84.5347 103.537V96.0305C84.5347 96.0305 83.874 95.9104 83.1532 95.9104C78.468 95.9104 74.8039 99.3935 73.4224 103.777H73.3022C73.3022 103.777 73.4224 98.6167 73.4224 97.4757L66.0942 95.4894V127.68Z" fill="#111926"/>
<path d="M29.7123 139L37.3408 136.957V126.148C37.3408 124.587 37.2207 123.506 37.2207 123.506H37.3408C37.3408 123.506 40.0438 127.71 46.1106 127.71C54.1595 127.71 60.1061 121.404 60.1061 111.675C60.1061 102.187 54.8203 95.641 46.531 95.641C39.323 95.641 36.6801 100.686 36.6801 100.686H36.56C36.56 100.686 36.6801 98.5409 36.6801 97.3998L29.7123 95.5203V139ZM37.1006 111.856C37.1006 105.069 40.8247 102.187 44.7891 102.187C49.2941 102.187 52.4176 105.97 52.4176 111.796C52.4176 117.861 48.9337 121.284 44.729 121.284C39.6834 121.284 37.1006 116.6 37.1006 111.856Z" fill="#111926"/>
<path d="M0.0737305 123.145C0.0737305 123.145 4.33847 127.65 11.967 127.65C19.235 127.65 23.68 123.566 23.68 118.461C23.68 108.612 8.78342 109.153 8.78342 104.829C8.78342 102.907 10.7056 102.067 12.6878 102.067C17.373 102.067 20.1961 104.709 20.1961 104.709L23.7243 99.0255C23.7243 99.0255 19.6555 95.5807 12.7478 95.5807C6.14048 95.5807 1.0348 98.8836 1.0348 104.589C1.0348 114.438 15.9314 113.837 15.9314 118.401C15.9314 120.203 14.0693 121.164 11.9069 121.164C6.92135 121.164 3.44469 117.745 3.44469 117.745L0.0737305 123.145Z" fill="#111926"/>
</svg>
