<svg width="259" height="58" viewBox="0 0 259 58" fill="none" xmlns="http://www.w3.org/2000/svg">
<path d="M27.0759 3.17436C43.0291 22.4447 52.3911 46.8611 52.3911 46.8611C43.3321 45.435 34.1928 44.1791 29.7863 43.5878L28.8624 36.1128C31.2219 36.4308 35.5465 37.0201 39.5442 37.5989C39.5442 37.5989 35.399 26.353 27.0759 15.5425C18.7528 26.353 14.6077 37.5989 14.6077 37.5989C18.6053 37.0201 22.93 36.4308 25.2894 36.1128L24.3655 43.5878C19.9591 44.1791 10.8198 45.435 1.76074 46.8611C1.76074 46.8611 11.1228 22.4447 27.0759 3.17436Z" fill="#20BC93"/>
<path d="M217.953 30.8246C217.953 39.4658 224.26 46.7363 234.41 46.7363C242.038 46.7363 246.723 42.3859 246.723 42.3859L243.78 36.9628C243.78 36.9628 239.876 40.3001 234.951 40.3001C230.386 40.3001 226.242 37.5588 225.761 32.2548H246.903C246.903 32.2548 247.083 30.2286 247.083 29.3347C247.083 21.2894 242.338 14.9128 233.509 14.9128C224.38 14.9128 217.953 21.4682 217.953 30.8246ZM226.002 27.0701C226.722 23.1368 229.425 20.7531 233.329 20.7531C236.692 20.7531 239.275 22.9581 239.395 27.0701H226.002Z" fill="#111926"/>
<path d="M185.265 30.8246C185.265 39.6446 191.752 46.7363 201.902 46.7363C210.13 46.7363 214.515 41.79 214.515 41.79L211.572 36.4265C211.572 36.4265 207.728 40.3001 202.563 40.3001C196.737 40.3001 193.013 35.8901 193.013 30.765C193.013 25.5802 196.677 21.349 202.322 21.349C207.127 21.349 210.31 24.6267 210.31 24.6267L213.674 19.442C213.674 19.442 209.89 14.9128 201.902 14.9128C191.752 14.9128 185.265 22.1833 185.265 30.8246Z" fill="#111926"/>
<path d="M150.689 35.1156C150.689 43.3992 154.773 46.6769 161.319 46.6769C166.545 46.6769 170.449 43.5184 171.95 40.3599H172.07C172.07 40.3599 171.95 43.5328 171.95 44.7247L179.278 46.7067V14.8529H171.65V29.5137C171.65 34.9368 168.587 39.7639 163.061 39.7639C159.277 39.7639 158.316 37.261 158.316 33.5661V14.8529H150.689V35.1156Z" fill="#111926"/>
<path d="M126.262 46.7661H133.89V34.0123C133.89 32.2245 134.07 30.5558 134.551 29.066C135.992 24.5368 139.656 22.6893 142.899 22.6893C143.92 22.6893 144.701 22.8085 144.701 22.8085V15.3592C144.701 15.3592 144.04 15.24 143.32 15.24C138.635 15.24 134.971 18.6965 133.59 23.0469H133.47C133.47 23.0469 133.59 17.9256 133.59 16.7933L126.262 14.8222V46.7661Z" fill="#111926"/>
<path d="M89.8842 58L97.5119 55.9729V45.2467C97.5119 43.6973 97.3918 42.6246 97.3918 42.6246H97.5119C97.5119 42.6246 100.215 46.7962 106.281 46.7962C114.329 46.7962 120.275 40.5388 120.275 30.8844C120.275 21.4685 114.99 14.9727 106.701 14.9727C99.4939 14.9727 96.8513 19.9786 96.8513 19.9786H96.7311C96.7311 19.9786 96.8513 17.8503 96.8513 16.718L89.8842 14.8529V58ZM97.2717 31.0632C97.2717 24.329 100.995 21.4685 104.959 21.4685C109.464 21.4685 112.587 25.2229 112.587 31.0036C112.587 37.0227 109.104 40.4196 104.899 40.4196C99.8543 40.4196 97.2717 35.7712 97.2717 31.0632Z" fill="#111926"/>
<path d="M60.2485 42.2667C60.2485 42.2667 64.5129 46.7363 72.1406 46.7363C79.4079 46.7363 83.8524 42.6839 83.8524 37.6184C83.8524 27.8448 68.9574 28.3812 68.9574 24.0904C68.9574 22.1833 70.8793 21.349 72.8613 21.349C77.5461 21.349 80.3689 23.9712 80.3689 23.9712L83.8967 18.3313C83.8967 18.3313 79.8284 14.9128 72.9214 14.9128C66.3147 14.9128 61.2095 18.1905 61.2095 23.852C61.2095 33.6255 76.1046 33.0296 76.1046 37.5588C76.1046 39.3466 74.2427 40.3001 72.0805 40.3001C67.0955 40.3001 63.6192 36.9081 63.6192 36.9081L60.2485 42.2667Z" fill="#111926"/>
</svg>
