<svg width="188" height="139" viewBox="0 0 188 139" fill="none" xmlns="http://www.w3.org/2000/svg">
<path d="M94.0267 0.918073C121.612 33.9016 137.8 75.6932 137.8 75.6932C122.135 73.2523 106.333 71.1027 98.7133 70.0906L97.1158 57.2963C101.196 57.8406 108.673 58.8492 115.586 59.8398C115.586 59.8398 108.418 40.5911 94.0267 22.0877C79.6352 40.5911 72.4677 59.8398 72.4677 59.8398C79.3801 58.8492 86.8579 57.8406 90.9377 57.2963L89.3402 70.0906C81.7209 71.1027 65.918 73.2523 50.2539 75.6932C50.2539 75.6932 66.442 33.9016 94.0267 0.918073Z" fill="#111926"/>
<path d="M158.639 111.615C158.639 120.323 164.979 127.65 175.185 127.65C182.854 127.65 187.565 123.266 187.565 123.266L184.606 117.801C184.606 117.801 180.68 121.164 175.729 121.164C171.139 121.164 166.972 118.401 166.489 113.056H187.746C187.746 113.056 187.927 111.015 187.927 110.114C187.927 102.006 183.156 95.5807 174.279 95.5807C165.1 95.5807 158.639 102.187 158.639 111.615ZM166.731 107.832C167.455 103.868 170.173 101.466 174.098 101.466C177.48 101.466 180.076 103.688 180.197 107.832H166.731Z" fill="#111926"/>
<path d="M125.772 111.615C125.772 120.503 132.294 127.65 142.5 127.65C150.773 127.65 155.181 122.665 155.181 122.665L152.222 117.26C152.222 117.26 148.357 121.164 143.164 121.164C137.306 121.164 133.562 116.72 133.562 111.555C133.562 106.33 137.246 102.067 142.922 102.067C147.754 102.067 150.954 105.369 150.954 105.369L154.336 100.145C154.336 100.145 150.531 95.5807 142.5 95.5807C132.294 95.5807 125.772 102.907 125.772 111.615Z" fill="#111926"/>
<path d="M91.0075 115.939C91.0075 124.287 95.1139 127.59 101.696 127.59C106.95 127.59 110.875 124.407 112.385 121.224H112.506C112.506 121.224 112.385 124.421 112.385 125.622L119.752 127.62V95.5203H112.083V110.294C112.083 115.759 109.003 120.623 103.447 120.623C99.643 120.623 98.6768 118.101 98.6768 114.378V95.5203H91.0075V115.939Z" fill="#111926"/>
<path d="M66.4483 127.68H74.1175V114.827C74.1175 113.026 74.2987 111.344 74.7818 109.843C76.2311 105.279 79.9148 103.417 83.1757 103.417C84.2023 103.417 84.9874 103.537 84.9874 103.537V96.0305C84.9874 96.0305 84.3231 95.9104 83.5985 95.9104C78.8882 95.9104 75.2045 99.3935 73.8156 103.777H73.6948C73.6948 103.777 73.8156 98.6167 73.8156 97.4757L66.4483 95.4894V127.68Z" fill="#111926"/>
<path d="M29.8718 139L37.5411 136.957V126.148C37.5411 124.587 37.4203 123.506 37.4203 123.506H37.5411C37.5411 123.506 40.2586 127.71 46.3577 127.71C54.4497 127.71 60.4282 121.404 60.4282 111.675C60.4282 102.187 55.114 95.641 46.7805 95.641C39.5339 95.641 36.8768 100.686 36.8768 100.686H36.756C36.756 100.686 36.8768 98.5409 36.8768 97.3998L29.8718 95.5203V139ZM37.2995 111.856C37.2995 105.069 41.0436 102.187 45.0292 102.187C49.5583 102.187 52.6985 105.97 52.6985 111.796C52.6985 117.861 49.196 121.284 44.9688 121.284C39.8962 121.284 37.2995 116.6 37.2995 111.856Z" fill="#111926"/>
<path d="M0.074707 123.145C0.074707 123.145 4.36226 127.65 12.0315 127.65C19.3385 127.65 23.8072 123.566 23.8072 118.461C23.8072 108.612 8.83097 109.153 8.83097 104.829C8.83097 102.907 10.7634 102.067 12.7562 102.067C17.4665 102.067 20.3047 104.709 20.3047 104.709L23.8517 99.0255C23.8517 99.0255 19.7612 95.5807 12.8166 95.5807C6.1739 95.5807 1.04092 98.8836 1.04092 104.589C1.04092 114.438 16.0171 113.837 16.0171 118.401C16.0171 120.203 14.1451 121.164 11.9711 121.164C6.95894 121.164 3.46369 117.745 3.46369 117.745L0.074707 123.145Z" fill="#111926"/>
</svg>
