<svg width="188" height="58" viewBox="0 0 188 58" fill="none" xmlns="http://www.w3.org/2000/svg">
<path d="M158.639 30.9365C158.639 39.5421 164.979 46.7827 175.185 46.7827C182.854 46.7827 187.565 42.4502 187.565 42.4502L184.606 37.0494C184.606 37.0494 180.68 40.373 175.729 40.373C171.139 40.373 166.972 37.6429 166.489 32.3608H187.746C187.746 32.3608 187.927 30.343 187.927 29.4527C187.927 21.4406 183.156 15.0902 174.279 15.0902C165.1 15.0902 158.639 21.6186 158.639 30.9365ZM166.731 27.1974C167.455 23.2804 170.173 20.9064 174.098 20.9064C177.48 20.9064 180.076 23.1023 180.197 27.1974H166.731Z" fill="#111926"/>
<path d="M125.772 30.9365C125.772 39.7201 132.294 46.7827 142.5 46.7827C150.773 46.7827 155.181 41.8567 155.181 41.8567L152.222 36.5153C152.222 36.5153 148.357 40.373 143.164 40.373C137.306 40.373 133.562 35.9811 133.562 30.8771C133.562 25.7137 137.246 21.4999 142.922 21.4999C147.754 21.4999 150.954 24.7641 150.954 24.7641L154.336 19.6007C154.336 19.6007 150.531 15.0902 142.5 15.0902C132.294 15.0902 125.772 22.3308 125.772 30.9365Z" fill="#111926"/>
<path d="M91.0075 35.2098C91.0075 43.4593 95.1139 46.7236 101.696 46.7236C106.95 46.7236 110.875 43.578 112.385 40.4325H112.506C112.506 40.4325 112.385 43.5924 112.385 44.7793L119.752 46.7532V15.0305H112.083V29.631C112.083 35.0317 109.003 39.839 103.447 39.839C99.643 39.839 98.6768 37.3464 98.6768 33.6667V15.0305H91.0075V35.2098Z" fill="#111926"/>
<path d="M66.4483 46.8124H74.1175V34.1111C74.1175 32.3306 74.2987 30.6688 74.7818 29.1851C76.2311 24.6745 79.9148 22.8347 83.1757 22.8347C84.2023 22.8347 84.9874 22.9534 84.9874 22.9534V15.5348C84.9874 15.5348 84.3231 15.4161 83.5985 15.4161C78.8882 15.4161 75.2045 18.8583 73.8156 23.1908H73.6948C73.6948 23.1908 73.8156 18.0906 73.8156 16.963L66.4483 15V46.8124Z" fill="#111926"/>
<path d="M29.8718 58L37.5411 55.9813V45.2993C37.5411 43.7562 37.4203 42.6879 37.4203 42.6879H37.5411C37.5411 42.6879 40.2586 46.8423 46.3577 46.8423C54.4497 46.8423 60.4282 40.6107 60.4282 30.9961C60.4282 21.6189 55.114 15.1498 46.7805 15.1498C39.5339 15.1498 36.8768 20.1352 36.8768 20.1352H36.756C36.756 20.1352 36.8768 18.0156 36.8768 16.888L29.8718 15.0305V58ZM37.2995 31.1741C37.2995 24.4677 41.0436 21.6189 45.0292 21.6189C49.5583 21.6189 52.6985 25.3579 52.6985 31.1148C52.6985 37.1091 49.196 40.492 44.9688 40.492C39.8962 40.492 37.2995 35.8627 37.2995 31.1741Z" fill="#111926"/>
<path d="M0.074707 42.3315C0.074707 42.3315 4.36226 46.7827 12.0315 46.7827C19.3385 46.7827 23.8072 42.747 23.8072 37.7023C23.8072 27.969 8.83097 28.5031 8.83097 24.23C8.83097 22.3308 10.7634 21.4999 12.7562 21.4999C17.4665 21.4999 20.3047 24.1113 20.3047 24.1113L23.8517 18.4946C23.8517 18.4946 19.7612 15.0902 12.8166 15.0902C6.1739 15.0902 1.04092 18.3544 1.04092 23.9926C1.04092 33.7259 16.0171 33.1324 16.0171 37.6429C16.0171 39.4234 14.1451 40.373 11.9711 40.373C6.95894 40.373 3.46369 36.9949 3.46369 36.9949L0.074707 42.3315Z" fill="#111926"/>
</svg>
