<svg width="24" height="24" viewBox="0 0 24 24" fill="none" xmlns="http://www.w3.org/2000/svg">
<path fill-rule="evenodd" clip-rule="evenodd" d="M3.75 11.25C3.75 10.4216 4.42157 9.75 5.25 9.75H18.75C19.5784 9.75 20.25 10.4216 20.25 11.25V21.75C20.25 22.5784 19.5784 23.25 18.75 23.25H5.25C4.42157 23.25 3.75 22.5784 3.75 21.75V11.25Z" stroke="#7F8794" stroke-width="1.5" stroke-linecap="round" stroke-linejoin="round"/>
<path d="M6.75 9.75V6C6.75 3.10051 9.10051 0.75 12 0.75C14.8995 0.75 17.25 3.10051 17.25 6V9.75" stroke="#7F8794" stroke-width="1.5" stroke-linecap="round" stroke-linejoin="round"/>
<path fill-rule="evenodd" clip-rule="evenodd" d="M12 18.75C13.2426 18.75 14.25 17.7426 14.25 16.5C14.25 15.2574 13.2426 14.25 12 14.25C10.7574 14.25 9.75 15.2574 9.75 16.5C9.75 17.7426 10.7574 18.75 12 18.75Z" stroke="#7F8794" stroke-width="1.5" stroke-linecap="round" stroke-linejoin="round"/>
</svg>
