<svg width="24" height="24" viewBox="0 0 24 24" fill="none" xmlns="http://www.w3.org/2000/svg">
<path d="M0.75 9.75V6C0.75 3.10051 3.10051 0.75 6 0.75C8.89949 0.75 11.25 3.10051 11.25 6V9.75" stroke="#7F8794" stroke-width="1.5" stroke-linecap="round" stroke-linejoin="round"/>
<path fill-rule="evenodd" clip-rule="evenodd" d="M6.75 11.25C6.75 10.4216 7.42157 9.75 8.25 9.75H21.75C22.5784 9.75 23.25 10.4216 23.25 11.25V21.75C23.25 22.5784 22.5784 23.25 21.75 23.25H8.25C7.42157 23.25 6.75 22.5784 6.75 21.75V11.25Z" stroke="#7F8794" stroke-width="1.5" stroke-linecap="round" stroke-linejoin="round"/>
<path fill-rule="evenodd" clip-rule="evenodd" d="M15 18.75C16.2426 18.75 17.25 17.7426 17.25 16.5C17.25 15.2574 16.2426 14.25 15 14.25C13.7574 14.25 12.75 15.2574 12.75 16.5C12.75 17.7426 13.7574 18.75 15 18.75Z" stroke="#7F8794" stroke-width="1.5" stroke-linecap="round" stroke-linejoin="round"/>
</svg>
