<svg width="24" height="24" viewBox="0 0 24 24" fill="none" xmlns="http://www.w3.org/2000/svg">
<path fill-rule="evenodd" clip-rule="evenodd" d="M5.28802 6.75C6.11645 6.75 6.78802 6.07843 6.78802 5.25C6.78802 4.42157 6.11645 3.75 5.28802 3.75C4.4596 3.75 3.78802 4.42157 3.78802 5.25C3.78802 6.07843 4.4596 6.75 5.28802 6.75Z" stroke="#7F8794" stroke-width="1.5" stroke-linecap="round" stroke-linejoin="round"/>
<path fill-rule="evenodd" clip-rule="evenodd" d="M5.28802 12.75C6.11645 12.75 6.78802 12.0784 6.78802 11.25C6.78802 10.4216 6.11645 9.75 5.28802 9.75C4.4596 9.75 3.78802 10.4216 3.78802 11.25C3.78802 12.0784 4.4596 12.75 5.28802 12.75Z" stroke="#7F8794" stroke-width="1.5" stroke-linecap="round" stroke-linejoin="round"/>
<path fill-rule="evenodd" clip-rule="evenodd" d="M5.28802 18.75C6.11645 18.75 6.78802 18.0784 6.78802 17.25C6.78802 16.4216 6.11645 15.75 5.28802 15.75C4.4596 15.75 3.78802 16.4216 3.78802 17.25C3.78802 18.0784 4.4596 18.75 5.28802 18.75Z" stroke="#7F8794" stroke-width="1.5" stroke-linecap="round" stroke-linejoin="round"/>
<path fill-rule="evenodd" clip-rule="evenodd" d="M9.20002 19.337C9.20002 21.4981 7.44811 23.25 5.28702 23.25C3.12593 23.25 1.37402 21.4981 1.37402 19.337V2.707C1.37402 1.62618 2.2502 0.75 3.33102 0.75H7.24402C8.32445 0.750552 9.20002 1.62657 9.20002 2.707V19.337Z" stroke="#7F8794" stroke-width="1.5" stroke-linecap="round" stroke-linejoin="round"/>
<path d="M8.64301 21.352L16.992 6.89098C17.5323 5.95511 17.2117 4.75849 16.276 4.21798L12.887 2.26198C12.5783 2.08333 12.2266 1.99271 11.87 1.99998" stroke="#7F8794" stroke-width="1.5" stroke-linecap="round" stroke-linejoin="round"/>
<path d="M7.29303 22.7L21.647 14.41C22.5821 13.8695 22.9026 12.6736 22.363 11.738L20.406 8.34899C20.2784 8.12803 20.1085 7.93435 19.906 7.77899" stroke="#7F8794" stroke-width="1.5" stroke-linecap="round" stroke-linejoin="round"/>
</svg>
