<svg width="25" height="24" viewBox="0 0 25 24" fill="none" xmlns="http://www.w3.org/2000/svg">
<path d="M13.5 12.37V19.13H6C5.17157 19.13 4.5 18.4584 4.5 17.63V4.88" stroke="#7F8794" stroke-width="1.5" stroke-linecap="round" stroke-linejoin="round"/>
<path d="M21.75 10.13V17.63C21.75 18.4584 21.0784 19.13 20.25 19.13H13.5" stroke="#7F8794" stroke-width="1.5" stroke-linecap="round" stroke-linejoin="round"/>
<path d="M3.74999 4.88L0.82899 9.32001C0.726894 9.48448 0.724199 9.69194 0.82199 9.85901C0.922506 10.0282 1.10522 10.1313 1.30199 10.13H4.49999" stroke="#7F8794" stroke-width="1.5" stroke-linecap="round" stroke-linejoin="round"/>
<path d="M13.681 4.88005L15.6 9.66805C15.7166 9.94777 15.9899 10.13 16.293 10.13H22.7C22.8832 10.1302 23.0546 10.0394 23.1574 9.88772C23.2602 9.73602 23.281 9.54319 23.213 9.37305L21.345 4.87305" stroke="#7F8794" stroke-width="1.5" stroke-linecap="round" stroke-linejoin="round"/>
<path d="M3.75 4.88L21.343 4.87" stroke="#7F8794" stroke-width="1.5" stroke-linecap="round" stroke-linejoin="round"/>
</svg>
