<svg width="24" height="24" viewBox="0 0 24 24" fill="none" xmlns="http://www.w3.org/2000/svg">
<path d="M19.805 10.1201C19.6287 9.57508 19.1587 9.1771 18.592 9.09314L14.967 8.57014L13.341 5.30014C13.0872 4.79102 12.5673 4.46924 11.9985 4.46924C11.4296 4.46924 10.9097 4.79102 10.656 5.30014L9.03499 8.56914L5.41099 9.09314C4.84714 9.17728 4.37875 9.5718 4.19999 10.1131C4.02035 10.6578 4.16886 11.2573 4.58199 11.6551L7.19999 14.1911L6.58099 17.7761C6.4848 18.3383 6.71575 18.9064 7.17692 19.242C7.63808 19.5776 8.24966 19.6226 8.75499 19.3581L12 17.6621L15.248 19.3621C15.7537 19.6269 16.3658 19.5818 16.8272 19.2456C17.2885 18.9095 17.5191 18.3406 17.422 17.7781L16.8 14.1921L19.418 11.6551C19.8285 11.2587 19.9785 10.6638 19.805 10.1201Z" fill="#7F8794"/>
</svg>
