<svg width="24" height="24" viewBox="0 0 24 24" fill="none" xmlns="http://www.w3.org/2000/svg">
<path d="M8.03226 19.3025C8.03226 19.4349 7.93548 19.5176 7.74194 19.5507C7.58065 19.5507 7.5 19.4845 7.5 19.3522C7.5 19.2198 7.58065 19.1537 7.74194 19.1537C7.83871 19.1537 7.90323 19.1702 7.93548 19.2033C8 19.2364 8.03226 19.2695 8.03226 19.3025ZM6.53226 19.1041C6.5 19.1371 6.5 19.1868 6.53226 19.2529C6.59677 19.286 6.66129 19.3191 6.72581 19.3522C6.79032 19.3853 6.85484 19.3853 6.91935 19.3522C6.98387 19.3191 7.01613 19.2695 7.01613 19.2033C7.04839 19.1041 6.98387 19.0379 6.82258 19.0048C6.66129 18.9387 6.56452 18.9717 6.53226 19.1041ZM8.66129 19.0048C8.5 19.0379 8.41935 19.1041 8.41935 19.2033C8.45161 19.3025 8.48387 19.3687 8.51613 19.4018C8.58064 19.4018 8.64516 19.4018 8.70968 19.4018C8.87097 19.3356 8.93548 19.2529 8.90323 19.1537C8.90323 19.0544 8.82258 19.0048 8.66129 19.0048ZM11.8548 0C9.62903 0 7.6129 0.52929 5.80645 1.58787C4 2.64645 2.58065 4.102 1.54839 5.95451C0.516129 7.80703 0 9.85803 0 12.1075C0 14.8532 0.758065 17.3177 2.27419 19.501C3.79032 21.6513 5.77419 23.1399 8.22581 23.9669C8.48387 24.0331 8.67742 24 8.80645 23.8677C8.96774 23.7354 9.04839 23.57 9.04839 23.3715L9 20.3446L8.46774 20.3942C8.04839 20.4604 7.64516 20.4769 7.25806 20.4438C6.70968 20.3777 6.24194 20.2288 5.85484 19.9972C5.40323 19.7326 5.09677 19.3522 4.93548 18.856L4.74194 18.459C4.6129 18.1613 4.45161 17.8966 4.25806 17.6651C4.03226 17.3673 3.80645 17.1523 3.58065 17.02L3.33871 16.8215C3.17742 16.6892 3.09677 16.5734 3.09677 16.4742C3.12903 16.3418 3.32258 16.2757 3.67742 16.2757L4.01613 16.3253C4.27419 16.4245 4.51613 16.5403 4.74194 16.6726C5.06452 16.9042 5.32258 17.2019 5.51613 17.5658C5.96774 18.3928 6.6129 18.8394 7.45161 18.9056C7.96774 18.9717 8.5 18.8725 9.04839 18.6079C9.14516 17.8801 9.40323 17.3177 9.82258 16.9207C8.66129 16.7884 7.79032 16.623 7.20968 16.4245C6.30645 16.0937 5.62903 15.581 5.17742 14.8863C4.66129 14.0593 4.40323 12.9014 4.40323 11.4128C4.40323 10.7843 4.48387 10.2715 4.64516 9.87457C4.83871 9.44452 5.12903 8.98139 5.51613 8.48518C5.3871 8.18746 5.32258 7.80703 5.32258 7.3439C5.25806 6.61613 5.37097 5.88835 5.66129 5.16058C5.95161 5.06134 6.3871 5.1275 6.96774 5.35906C7.3871 5.52447 7.85484 5.75603 8.37097 6.05376L9 6.50034C9.96774 6.20262 10.9677 6.05376 12 6.05376C13.0645 6.05376 14.0968 6.20262 15.0968 6.50034L15.7258 6.05376C16.2419 5.75603 16.6935 5.52447 17.0806 5.35906C17.6613 5.1275 18.1129 5.06134 18.4355 5.16058C18.6935 5.88835 18.8065 6.61613 18.7742 7.3439C18.7419 7.80703 18.6613 8.204 18.5323 8.5348C18.9839 9.03101 19.2903 9.44452 19.4516 9.77533C19.6774 10.2385 19.7903 10.7843 19.7903 11.4128C19.7903 12.9014 19.5161 14.0758 18.9677 14.9359C18.4839 15.5975 17.7903 16.0937 16.8871 16.4245C16.3065 16.623 15.4194 16.7884 14.2258 16.9207C14.7742 17.3839 15.0484 18.1447 15.0484 19.2033V23.3715C15.0484 23.57 15.1129 23.7354 15.2419 23.8677C15.4032 24 15.6129 24.0331 15.871 23.9669C18.2903 23.1399 20.2419 21.6513 21.7258 19.501C23.2419 17.3177 24 14.8532 24 12.1075C24 9.85803 23.4516 7.79049 22.3548 5.90489C21.2903 4.08546 19.8226 2.64645 17.9516 1.58787C16.0806 0.52929 14.0484 0 11.8548 0ZM4.69355 17.1192C4.62903 17.1854 4.64516 17.2681 4.74194 17.3673C4.83871 17.4666 4.91935 17.4831 4.98387 17.417C5.04839 17.3508 5.03226 17.2681 4.93548 17.1688C4.83871 17.0696 4.75806 17.0531 4.69355 17.1192ZM4.16129 16.7223C4.12903 16.7884 4.16129 16.8546 4.25806 16.9207C4.3871 16.9869 4.46774 16.9869 4.5 16.9207C4.53226 16.8215 4.5 16.7553 4.40323 16.7223C4.30645 16.6561 4.22581 16.6561 4.16129 16.7223ZM5.75806 18.459C5.72581 18.4921 5.70968 18.5417 5.70968 18.6079C5.70968 18.674 5.74194 18.7402 5.80645 18.8063C5.93548 18.9387 6.04839 18.9552 6.14516 18.856C6.17742 18.8229 6.17742 18.7733 6.14516 18.7071C6.14516 18.6409 6.1129 18.5913 6.04839 18.5582C6.01613 18.4921 5.96774 18.459 5.90323 18.459C5.83871 18.4259 5.79032 18.4259 5.75806 18.459ZM5.17742 17.7643C5.1129 17.7974 5.1129 17.8966 5.17742 18.062C5.24194 18.0951 5.29032 18.1282 5.32258 18.1613C5.3871 18.1943 5.43548 18.1943 5.46774 18.1613C5.56452 18.0951 5.56452 17.9959 5.46774 17.8635C5.43548 17.7974 5.3871 17.7643 5.32258 17.7643C5.29032 17.7312 5.24194 17.7312 5.17742 17.7643Z" fill="#7F8794"/>
</svg>
