<svg width="24" height="24" viewBox="0 0 24 24" fill="none" xmlns="http://www.w3.org/2000/svg">
<path d="M6.1875 22.5H1.82812V8.48438H6.1875V22.5ZM4.03125 6.5625C3.34375 6.5625 2.75 6.3125 2.25 5.8125C1.75 5.3125 1.5 4.71875 1.5 4.03125C1.5 3.34375 1.75 2.75 2.25 2.25C2.75 1.75 3.34375 1.5 4.03125 1.5C4.71875 1.5 5.3125 1.75 5.8125 2.25C6.3125 2.75 6.5625 3.34375 6.5625 4.03125C6.5625 4.71875 6.3125 5.3125 5.8125 5.8125C5.3125 6.3125 4.71875 6.5625 4.03125 6.5625ZM22.5 22.5H18.1406V15.6562C18.1406 14.5312 18.0469 13.7188 17.8594 13.2188C17.5156 12.375 16.8438 11.9531 15.8438 11.9531C14.8438 11.9531 14.1406 12.3281 13.7344 13.0781C13.4219 13.6406 13.2656 14.4688 13.2656 15.5625V22.5H8.95312V8.48438H13.125V10.4062H13.1719C13.4844 9.78125 13.9844 9.26562 14.6719 8.85938C15.4219 8.35938 16.2969 8.10938 17.2969 8.10938C19.3281 8.10938 20.75 8.75 21.5625 10.0312C22.1875 11.0625 22.5 12.6562 22.5 14.8125V22.5Z" fill="#7F8794"/>
</svg>
