<svg width="24" height="24" viewBox="0 0 24 24" fill="none" xmlns="http://www.w3.org/2000/svg">
<path d="M20 2C20 0.89543 19.1046 0 18 0H2C0.89543 0 0 0.89543 0 2V3C0 3.13807 0.111929 3.25 0.25 3.25H19.75C19.8881 3.25 20 3.13807 20 3V2Z" fill="#7F8794"/>
<path fill-rule="evenodd" clip-rule="evenodd" d="M17.5 9.5C18.238 9.50056 18.9723 9.60355 19.682 9.806C19.7573 9.82728 19.8382 9.81209 19.9006 9.76497C19.963 9.71785 19.9998 9.64422 20 9.566V5C20 4.86193 19.8881 4.75 19.75 4.75H0.25C0.111929 4.75 0 4.86193 0 5V13C0 14.1046 0.89543 15 2 15H9.725C9.83114 15.0001 9.92576 14.9331 9.961 14.833C11.0908 11.638 14.1111 9.50142 17.5 9.5ZM3 7.25H9.5C9.91421 7.25 10.25 7.58579 10.25 8C10.25 8.41421 9.91421 8.75 9.5 8.75H3C2.58579 8.75 2.25 8.41421 2.25 8C2.25 7.58579 2.58579 7.25 3 7.25ZM3 12.25H6C6.41421 12.25 6.75 11.9142 6.75 11.5C6.75 11.0858 6.41421 10.75 6 10.75H3C2.58579 10.75 2.25 11.0858 2.25 11.5C2.25 11.9142 2.58579 12.25 3 12.25Z" fill="#7F8794"/>
<path fill-rule="evenodd" clip-rule="evenodd" d="M11 17.5C11 13.9101 13.9101 11 17.5 11C19.2239 11 20.8772 11.6848 22.0962 12.9038C23.3152 14.1228 24 15.7761 24 17.5C24 21.0899 21.0899 24 17.5 24C13.9101 24 11 21.0899 11 17.5ZM19.126 17.309L16.416 16.294C16.2944 16.1453 16.235 15.9555 16.25 15.764C16.25 15.485 16.594 15.25 17 15.25H19.5C19.9142 15.25 20.25 14.9142 20.25 14.5C20.25 14.0858 19.9142 13.75 19.5 13.75H18.5C18.3619 13.75 18.25 13.6381 18.25 13.5V13C18.25 12.5858 17.9142 12.25 17.5 12.25C17.0858 12.25 16.75 12.5858 16.75 13V13.544C16.75 13.6651 16.6632 13.7687 16.544 13.79C15.5426 13.9186 14.7825 14.7549 14.75 15.764C14.6956 16.5757 15.1407 17.3388 15.874 17.691L18.584 18.706C18.7056 18.8547 18.765 19.0445 18.75 19.236C18.75 19.577 18.5 19.75 18 19.75H15.5C15.0858 19.75 14.75 20.0858 14.75 20.5C14.75 20.9142 15.0858 21.25 15.5 21.25H16.5C16.6381 21.25 16.75 21.3619 16.75 21.5V22C16.75 22.4142 17.0858 22.75 17.5 22.75C17.9142 22.75 18.25 22.4142 18.25 22V21.462C18.2495 21.3388 18.3392 21.2338 18.461 21.215C19.3575 21.0891 20.0696 20.3976 20.2215 19.5051C20.3734 18.6126 19.9304 17.7244 19.126 17.309Z" fill="#7F8794"/>
</svg>
