<svg width="24" height="24" viewBox="0 0 24 24" fill="none" xmlns="http://www.w3.org/2000/svg">
<path fill-rule="evenodd" clip-rule="evenodd" d="M18.646 1.67704L22.283 5.31404C22.6046 5.63585 22.7627 6.08623 22.713 6.53845C22.6632 6.99068 22.4109 7.39588 22.027 7.64004L16.555 10.739C17.0966 12.4998 16.8988 14.4051 16.007 16.017C15.7726 16.4169 15.3666 16.686 14.907 16.746C14.4472 16.7942 13.9895 16.6381 13.655 16.319L7.64697 10.31C7.31816 9.98181 7.15999 9.51975 7.2187 9.05887C7.27741 8.598 7.54637 8.19034 7.94697 7.95504C9.02026 7.36878 10.2406 7.10651 11.46 7.20004C12.0544 7.19769 12.6471 7.26482 13.226 7.40004L16.32 1.93304C16.5641 1.54915 16.9693 1.29682 17.4216 1.24705C17.8738 1.19728 18.3242 1.35544 18.646 1.67704ZM16.461 6.42404L17.875 4.30004V4.30304C18.0282 4.07329 17.9662 3.7628 17.7365 3.60954C17.5067 3.45628 17.1962 3.51829 17.043 3.74804L15.629 5.86904C15.5552 5.97934 15.5282 6.11447 15.5541 6.24465C15.58 6.37483 15.6566 6.48937 15.767 6.56304C15.8492 6.61736 15.9454 6.64655 16.044 6.64704C16.2116 6.64729 16.3681 6.56356 16.461 6.42404Z" fill="#7F8794"/>
<path d="M8.07098 14.559L1.57098 21.059C1.1806 21.4495 1.1806 22.0825 1.57098 22.473C1.96479 22.8553 2.59118 22.8553 2.98498 22.473L9.48498 15.973C9.86396 15.5807 9.85854 14.9569 9.4728 14.5712C9.08707 14.1855 8.46336 14.1801 8.07098 14.559Z" fill="#7F8794"/>
</svg>
