<svg width="24" height="24" viewBox="0 0 24 24" fill="none" xmlns="http://www.w3.org/2000/svg">
<path fill-rule="evenodd" clip-rule="evenodd" d="M0 12C0 5.37258 5.37258 0 12 0C18.6244 0.00716485 23.9928 5.37555 24 12C24 18.6274 18.6274 24 12 24C5.37258 24 0 18.6274 0 12ZM12.0005 21.7492C14.8944 21.7492 17.6385 20.4631 19.49 18.239C19.538 18.1812 19.5575 18.1048 19.543 18.031C19.5279 17.9579 19.482 17.8948 19.417 17.858C18.1092 17.2138 16.7602 16.6566 15.379 16.19L14.704 15.941C14.4398 15.7888 14.263 15.5208 14.227 15.218C14.0604 14.6249 14.1507 13.9891 14.476 13.466C15.315 12.542 16.135 11.402 16.135 8.551C16.2373 7.40215 15.844 6.26431 15.0541 5.42382C14.2642 4.58333 13.153 4.12021 12 4.151C10.8472 4.1205 9.73622 4.58375 8.94657 5.42421C8.15693 6.26466 7.76377 7.40233 7.866 8.551C7.866 11.402 8.686 12.542 9.525 13.466C9.85028 13.9891 9.94064 14.6249 9.774 15.218C9.73801 15.5208 9.56119 15.7888 9.297 15.941L8.623 16.19C7.24096 16.6565 5.89134 17.2141 4.583 17.859C4.51784 17.8956 4.47185 17.9588 4.457 18.032C4.44308 18.1056 4.4629 18.1816 4.511 18.239C6.36247 20.4631 9.10664 21.7492 12.0005 21.7492Z" fill="#7F8794"/>
</svg>
