<svg width="24" height="24" viewBox="0 0 24 24" fill="none" xmlns="http://www.w3.org/2000/svg">
<path fill-rule="evenodd" clip-rule="evenodd" d="M21 10.063C21 16.29 13.878 22.122 12.305 23.333C12.1252 23.4714 11.8748 23.4714 11.695 23.333C10.121 22.121 3 16.29 3 10.063C3 4.81699 6.753 0.562988 12 0.562988C17.247 0.562988 21 4.81699 21 10.063Z" stroke="#7F8794" stroke-linecap="round" stroke-linejoin="round"/>
<path fill-rule="evenodd" clip-rule="evenodd" d="M12.589 4.79403L13.871 7.56303H16.366C16.6249 7.55132 16.8632 7.70402 16.9607 7.94419C17.0582 8.18437 16.9938 8.45992 16.8 8.63203L14.634 10.768L15.834 13.529C15.9421 13.788 15.8729 14.087 15.6621 14.2722C15.4513 14.4574 15.1459 14.4875 14.903 14.347L12 12.713L9.1 14.347C8.85711 14.4875 8.55167 14.4574 8.34088 14.2722C8.13009 14.087 8.06093 13.788 8.169 13.529L9.369 10.768L7.2 8.63203C7.00703 8.4605 6.94246 8.18631 7.03862 7.94669C7.13478 7.70707 7.37098 7.55358 7.629 7.56303H10.129L11.414 4.79403C11.5279 4.57475 11.7544 4.43713 12.0015 4.43713C12.2486 4.43713 12.4751 4.57475 12.589 4.79403Z" stroke="#7F8794" stroke-linecap="round" stroke-linejoin="round"/>
</svg>
