<svg width="24" height="24" viewBox="0 0 24 24" fill="none" xmlns="http://www.w3.org/2000/svg">
<path fill-rule="evenodd" clip-rule="evenodd" d="M4 8C4.00496 3.58378 7.58378 0.00495988 12 0C16.4162 0.00495988 19.995 3.58378 20 8C20 11.514 15 20.026 12.852 23.523C12.6715 23.8206 12.3481 24.0017 12 24C11.6526 24.0001 11.33 23.8199 11.148 23.524C9 20.025 4 11.51 4 8ZM8.5 8C8.5 9.933 10.067 11.5 12 11.5C13.933 11.5 15.5 9.933 15.5 8C15.5 6.067 13.933 4.5 12 4.5C10.067 4.5 8.5 6.067 8.5 8Z" fill="#7F8794"/>
</svg>
