<svg width="24" height="24" viewBox="0 0 24 24" fill="none" xmlns="http://www.w3.org/2000/svg">
<path d="M17.75 4C17.8881 4 18 3.88807 18 3.75C18 2.36929 16.8807 1.25 15.5 1.25H2.5C1.11929 1.25 0 2.36929 0 3.75C0 3.8163 0.0263392 3.87989 0.0732233 3.92678C0.120107 3.97366 0.183696 4 0.25 4H17.75Z" fill="#7F8794"/>
<path fill-rule="evenodd" clip-rule="evenodd" d="M17.743 7.75H17.5C13.6489 7.7548 10.2804 10.3438 9.285 14.064C9.25634 14.1736 9.15729 14.25 9.044 14.25H2.5C1.11929 14.25 0 13.1307 0 11.75V5.75C0 5.61193 0.111929 5.5 0.25 5.5H17.75C17.8881 5.5 18 5.61193 18 5.75V7.5C17.9998 7.56745 17.9724 7.63196 17.924 7.67899C17.8757 7.72602 17.8104 7.75161 17.743 7.75ZM6.5 10H3.5C3.08579 10 2.75 10.3358 2.75 10.75C2.75 11.1642 3.08579 11.5 3.5 11.5H6.5C6.91421 11.5 7.25 11.1642 7.25 10.75C7.25 10.3358 6.91421 10 6.5 10Z" fill="#7F8794"/>
<path fill-rule="evenodd" clip-rule="evenodd" d="M11 16.25C11 12.6601 13.9101 9.75 17.5 9.75C19.2239 9.75 20.8772 10.4348 22.0962 11.6538C23.3152 12.8728 24 14.5261 24 16.25C24 19.8399 21.0899 22.75 17.5 22.75C13.9101 22.75 11 19.8399 11 16.25ZM20.7454 18.9543C20.8132 18.6886 20.7307 18.407 20.53 18.22L18.737 16.427C18.6402 16.3289 18.6402 16.1711 18.737 16.073L20.53 14.28C20.8054 13.9845 20.7972 13.524 20.5116 13.2384C20.226 12.9528 19.7655 12.9446 19.47 13.22L17.677 15.013C17.5789 15.1098 17.4211 15.1098 17.323 15.013L15.53 13.22C15.2345 12.9446 14.774 12.9528 14.4884 13.2384C14.2028 13.524 14.1946 13.9845 14.47 14.28L16.263 16.073C16.3598 16.1711 16.3598 16.3289 16.263 16.427L14.47 18.22C14.1946 18.5155 14.2028 18.976 14.4884 19.2616C14.774 19.5472 15.2345 19.5554 15.53 19.28L17.323 17.487C17.4211 17.3902 17.5789 17.3902 17.677 17.487L19.47 19.28C19.657 19.4807 19.9386 19.5632 20.2043 19.4954C20.47 19.4275 20.6775 19.22 20.7454 18.9543Z" fill="#7F8794"/>
</svg>
