<svg width="24" height="24" viewBox="0 0 24 24" fill="none" xmlns="http://www.w3.org/2000/svg">
<path fill-rule="evenodd" clip-rule="evenodd" d="M7.08002 10.375C8.11555 10.375 8.95502 9.53553 8.95502 8.5C8.95502 7.46447 8.11555 6.625 7.08002 6.625C6.04448 6.625 5.20502 7.46447 5.20502 8.5C5.20502 9.53553 6.04448 10.375 7.08002 10.375Z" stroke="#7F8794" stroke-width="1.5" stroke-linecap="round" stroke-linejoin="round"/>
<path d="M20.2 16.9549L15.828 10.3999C15.6732 10.1683 15.414 10.0281 15.1354 10.0251C14.8569 10.0221 14.5948 10.1567 14.435 10.3849L12.19 13.5999L10.8 12.4829C10.6154 12.335 10.3772 12.2715 10.1434 12.3078C9.90971 12.3441 9.702 12.477 9.57099 12.6739L6.70599 16.9739" stroke="#7F8794" stroke-width="1.5" stroke-linecap="round" stroke-linejoin="round"/>
<path fill-rule="evenodd" clip-rule="evenodd" d="M2.25 3.02295C1.42157 3.02295 0.75 3.69452 0.75 4.52295V19.4769C0.75 20.3054 1.42157 20.9769 2.25 20.9769H21.75C22.5784 20.9769 23.25 20.3054 23.25 19.4769V7.47695C23.25 7.08575 23.0971 6.71005 22.824 6.42995L19.941 3.47495C19.6585 3.18571 19.2713 3.02273 18.867 3.02295H2.25Z" stroke="#7F8794" stroke-width="1.5" stroke-linecap="round" stroke-linejoin="round"/>
</svg>
