<svg width="24" height="24" viewBox="0 0 24 24" fill="none" xmlns="http://www.w3.org/2000/svg">
<path fill-rule="evenodd" clip-rule="evenodd" d="M2.5 9.5C2.50606 4.25581 6.75581 0.0060617 12 0C17.2438 0.00606058 21.4934 4.2552 21.5 9.499C21.5 16.045 14.958 21.988 12.958 23.653C12.4024 24.1146 11.5966 24.1146 11.041 23.653C9.038 21.988 2.5 16.047 2.5 9.5ZM16.9639 8.00943C16.8662 7.7678 16.6263 7.6144 16.366 7.627L14.19 7.63C13.9953 7.63027 13.8182 7.51751 13.736 7.341L12.589 4.861C12.4755 4.64065 12.2484 4.50217 12.0005 4.50217C11.7526 4.50217 11.5255 4.64065 11.412 4.861L10.262 7.341C10.1798 7.51751 10.0027 7.63027 9.808 7.63H7.629C7.37105 7.62123 7.13524 7.77496 7.03919 8.01452C6.94314 8.25409 7.00744 8.52815 7.2 8.7L9.125 10.591C9.27228 10.7363 9.31481 10.9574 9.232 11.147L8.169 13.593C8.06022 13.8521 8.12907 14.1517 8.34003 14.3372C8.55099 14.5228 8.85692 14.5529 9.1 14.412L11.758 12.915C11.9104 12.8291 12.0966 12.8291 12.249 12.915L14.904 14.415C15.1471 14.5559 15.453 14.5258 15.664 14.3402C15.8749 14.1547 15.9438 13.8551 15.835 13.596L14.771 11.15C14.6884 10.9602 14.7314 10.7391 14.879 10.594L16.8 8.7C16.9959 8.52807 17.0616 8.25106 16.9639 8.00943Z" fill="#7F8794"/>
</svg>
