<svg width="26" height="26" viewBox="0 0 26 26" fill="none" xmlns="http://www.w3.org/2000/svg">
<path fill-rule="evenodd" clip-rule="evenodd" d="M5.51099 22.3301H9.51099V19.3301C9.51099 18.7778 9.06327 18.3301 8.51099 18.3301H6.51099C5.9587 18.3301 5.51099 18.7778 5.51099 19.3301L5.51099 22.3301Z" stroke="#7F8794" stroke-width="1.5" stroke-linecap="round" stroke-linejoin="round"/>
<path fill-rule="evenodd" clip-rule="evenodd" d="M16.505 22.3311H20.505V19.3311C20.505 18.7788 20.0573 18.3311 19.505 18.3311H17.505C16.9527 18.3311 16.505 18.7788 16.505 19.3311V22.3311Z" stroke="#7F8794" stroke-width="1.5" stroke-linecap="round" stroke-linejoin="round"/>
<path d="M13.007 23.0801C13.0064 22.1143 12.2237 21.3316 11.258 21.3311H9.50897" stroke="#7F8794" stroke-width="1.5" stroke-linecap="round" stroke-linejoin="round"/>
<path d="M13.007 23.0801C13.0076 22.1143 13.7903 21.3316 14.756 21.3311H16.505" stroke="#7F8794" stroke-width="1.5" stroke-linecap="round" stroke-linejoin="round"/>
<path d="M7.51001 18.333V19.832" stroke="#7F8794" stroke-width="1.5" stroke-linecap="round" stroke-linejoin="round"/>
<path d="M18.504 18.333V19.832" stroke="#7F8794" stroke-width="1.5" stroke-linecap="round" stroke-linejoin="round"/>
<path d="M7.51001 22.3311V24.3301" stroke="#7F8794" stroke-width="1.5" stroke-linecap="round" stroke-linejoin="round"/>
<path d="M18.504 22.3311V24.3301" stroke="#7F8794" stroke-width="1.5" stroke-linecap="round" stroke-linejoin="round"/>
<path d="M5.51099 22.3311V23.3301" stroke="#7F8794" stroke-width="1.5" stroke-linecap="round" stroke-linejoin="round"/>
<path d="M9.50897 22.3311V23.3301" stroke="#7F8794" stroke-width="1.5" stroke-linecap="round" stroke-linejoin="round"/>
<path d="M16.505 22.3311V23.3301" stroke="#7F8794" stroke-width="1.5" stroke-linecap="round" stroke-linejoin="round"/>
<path d="M20.502 22.0811V23.3301" stroke="#7F8794" stroke-width="1.5" stroke-linecap="round" stroke-linejoin="round"/>
<path d="M5.511 21.3311H3.249C2.23862 21.213 1.48233 20.3482 1.5 19.3311C1.50094 18.869 1.68548 18.4261 2.013 18.1001L10.013 10.0531L10.513 4.5961C10.8742 3.40115 11.6693 2.38454 12.742 1.7461C12.9039 1.64518 13.1091 1.64518 13.271 1.7461C14.3448 2.38263 15.1417 3.39782 15.505 4.5921L16 10.0491L23.994 18.1001C24.3187 18.4266 24.5007 18.8686 24.5 19.3291C24.5177 20.3462 23.7614 21.211 22.751 21.3291H20.5" stroke="#7F8794" stroke-width="1.5" stroke-linecap="round" stroke-linejoin="round"/>
<path d="M9.50897 13.8359V16.3349" stroke="#7F8794" stroke-width="1.5" stroke-linecap="round" stroke-linejoin="round"/>
<path d="M16.505 13.8359V16.3349" stroke="#7F8794" stroke-width="1.5" stroke-linecap="round" stroke-linejoin="round"/>
<path d="M15.237 3.85303C14.5549 4.24701 13.7808 4.45398 12.993 4.45303C12.2135 4.454 11.4472 4.25131 10.77 3.86503" stroke="#7F8794" stroke-width="1.5" stroke-linecap="round" stroke-linejoin="round"/>
</svg>
