<svg width="26" height="24" viewBox="0 0 26 24" fill="none" xmlns="http://www.w3.org/2000/svg">
<path d="M13.502 22.1401V23.4791" stroke="#7F8794" stroke-linecap="round" stroke-linejoin="round"/>
<path fill-rule="evenodd" clip-rule="evenodd" d="M18.417 12.3111C17.973 14.9541 13.502 19.4591 13.502 22.1401C13.502 19.4591 9.15004 15.3861 8.58804 12.3111C8.23964 10.8525 8.60696 9.31522 9.57711 8.17166C10.5473 7.0281 12.0042 6.41513 13.5 6.52114C14.997 6.41255 16.456 7.02455 17.4276 8.1686C18.3991 9.31265 18.7667 10.8515 18.417 12.3111Z" stroke="#7F8794" stroke-linecap="round" stroke-linejoin="round"/>
<path fill-rule="evenodd" clip-rule="evenodd" d="M15.752 11.2151C15.752 12.4577 14.7447 13.4651 13.502 13.4651C12.2594 13.4651 11.252 12.4577 11.252 11.2151C11.252 9.97245 12.2594 8.96509 13.502 8.96509C14.7447 8.96509 15.752 9.97245 15.752 11.2151V11.2151Z" stroke="#7F8794" stroke-linecap="round" stroke-linejoin="round"/>
<path d="M19.502 16.1401V17.4791" stroke="#7F8794" stroke-linecap="round" stroke-linejoin="round"/>
<path d="M14.658 6.625C14.631 6.519 14.607 6.415 14.588 6.311C14.2396 4.85239 14.607 3.31507 15.5771 2.17151C16.5473 1.02796 18.0042 0.414985 19.5 0.520997C20.9967 0.413081 22.4551 1.02536 23.4262 2.16932C24.3972 3.31327 24.7646 4.85174 24.415 6.311C23.973 8.954 19.5 13.459 19.5 16.14C19.3657 14.9796 18.9375 13.8727 18.256 12.924" stroke="#7F8794" stroke-linecap="round" stroke-linejoin="round"/>
<path fill-rule="evenodd" clip-rule="evenodd" d="M21.752 5.21509C21.752 6.45773 20.7447 7.46509 19.502 7.46509C18.2594 7.46509 17.252 6.45773 17.252 5.21509C17.252 3.97245 18.2594 2.96509 19.502 2.96509C20.7447 2.96509 21.752 3.97245 21.752 5.21509Z" stroke="#7F8794" stroke-linecap="round" stroke-linejoin="round"/>
<path d="M6.508 16.1401V17.4791" stroke="#7F8794" stroke-linecap="round" stroke-linejoin="round"/>
<path d="M8.50601 11.667C7.43702 13.319 6.50602 14.902 6.50602 16.14C6.50602 13.459 2.15402 9.38602 1.59202 6.31102C1.24334 4.85169 1.61113 3.31356 2.58224 2.1698C3.55334 1.02605 5.01146 0.413656 6.50802 0.52102C8.00463 0.412995 9.46301 1.0253 10.434 2.16932C11.4049 3.31335 11.7719 4.85188 11.422 6.31102C11.383 6.52973 11.3258 6.74481 11.251 6.95402" stroke="#7F8794" stroke-linecap="round" stroke-linejoin="round"/>
<path fill-rule="evenodd" clip-rule="evenodd" d="M8.758 5.21509C8.758 6.45773 7.75064 7.46509 6.508 7.46509C5.26535 7.46509 4.258 6.45773 4.258 5.21509C4.258 3.97245 5.26535 2.96509 6.508 2.96509C7.75064 2.96509 8.758 3.97245 8.758 5.21509Z" stroke="#7F8794" stroke-linecap="round" stroke-linejoin="round"/>
</svg>
