<svg width="24" height="26" viewBox="0 0 24 26" fill="none" xmlns="http://www.w3.org/2000/svg">
<path fill-rule="evenodd" clip-rule="evenodd" d="M12 1.70996C16.1421 1.70996 19.5 5.06783 19.5 9.20996C19.5 12.757 14 21.591 12.421 24.06C12.3291 24.2034 12.1704 24.2902 12 24.2902C11.8296 24.2902 11.6709 24.2034 11.579 24.06C10 21.592 4.5 12.757 4.5 9.20996C4.5 5.06783 7.85786 1.70996 12 1.70996Z" stroke="#7F8794" stroke-width="1.5" stroke-linecap="round" stroke-linejoin="round"/>
<path fill-rule="evenodd" clip-rule="evenodd" d="M12 12.21C13.6569 12.21 15 10.8668 15 9.20996C15 7.55311 13.6569 6.20996 12 6.20996C10.3431 6.20996 9 7.55311 9 9.20996C9 10.8668 10.3431 12.21 12 12.21Z" stroke="#7F8794" stroke-width="1.5" stroke-linecap="round" stroke-linejoin="round"/>
</svg>
