<svg width="24" height="24" viewBox="0 0 24 24" fill="none" xmlns="http://www.w3.org/2000/svg">
<path fill-rule="evenodd" clip-rule="evenodd" d="M11.6689 23.25C15.3969 23.25 18.4189 20.2279 18.4189 16.5C18.4189 12.7721 15.3969 9.75 11.6689 9.75C7.94102 9.75 4.91895 12.7721 4.91895 16.5C4.91895 20.2279 7.94102 23.25 11.6689 23.25Z" stroke="#7F8794" stroke-width="1.5" stroke-linecap="round" stroke-linejoin="round"/>
<path d="M10.75 12.75V16.5L13.75 18.75" stroke="#7F8794" stroke-width="1.5" stroke-linecap="round" stroke-linejoin="round"/>
<path d="M18.379 15.764C20.6566 15.0257 22.1913 12.8942 22.169 10.5C22.1346 8.52306 21.3268 6.63832 19.919 5.25C19.833 5.95242 19.4644 6.58943 18.8982 7.01403C18.3321 7.43863 17.6174 7.61412 16.919 7.5C14.9524 5.84669 14.3377 3.08061 15.419 0.75C10.731 0.75 7.73097 3.516 7.16897 7.5C5.73449 7.64979 4.42683 6.66905 4.16897 5.25C0.404974 8.45 1.31597 14.293 4.95797 15.767" stroke="#7F8794" stroke-width="1.5" stroke-linecap="round" stroke-linejoin="round"/>
</svg>
