<svg width="24" height="25" viewBox="0 0 24 25" fill="none" xmlns="http://www.w3.org/2000/svg">
<path fill-rule="evenodd" clip-rule="evenodd" d="M8.25 3.24707C8.25 2.41864 8.92157 1.74707 9.75 1.74707H21.75C22.5784 1.74707 23.25 2.41864 23.25 3.24707V4.74707C23.25 5.5755 22.5784 6.24707 21.75 6.24707H9.75C8.92157 6.24707 8.25 5.5755 8.25 4.74707V3.24707Z" stroke="#7F8794" stroke-width="1.5" stroke-linecap="round" stroke-linejoin="round"/>
<path fill-rule="evenodd" clip-rule="evenodd" d="M8.25 12.2471C8.25 11.4186 8.92157 10.7471 9.75 10.7471H21.75C22.5784 10.7471 23.25 11.4186 23.25 12.2471V13.7471C23.25 14.5755 22.5784 15.2471 21.75 15.2471H9.75C8.92157 15.2471 8.25 14.5755 8.25 13.7471V12.2471Z" stroke="#7F8794" stroke-width="1.5" stroke-linecap="round" stroke-linejoin="round"/>
<path fill-rule="evenodd" clip-rule="evenodd" d="M8.25 21.2471C8.25 20.4186 8.92157 19.7471 9.75 19.7471H21.75C22.5784 19.7471 23.25 20.4186 23.25 21.2471V22.7471C23.25 23.5755 22.5784 24.2471 21.75 24.2471H9.75C8.92157 24.2471 8.25 23.5755 8.25 22.7471V21.2471Z" stroke="#7F8794" stroke-width="1.5" stroke-linecap="round" stroke-linejoin="round"/>
<path fill-rule="evenodd" clip-rule="evenodd" d="M0.75 3.24707C0.75 2.41864 1.42157 1.74707 2.25 1.74707H3.75C4.57843 1.74707 5.25 2.41864 5.25 3.24707V4.74707C5.25 5.5755 4.57843 6.24707 3.75 6.24707H2.25C1.42157 6.24707 0.75 5.5755 0.75 4.74707V3.24707Z" stroke="#7F8794" stroke-width="1.5" stroke-linecap="round" stroke-linejoin="round"/>
<path fill-rule="evenodd" clip-rule="evenodd" d="M0.75 12.2471C0.75 11.4186 1.42157 10.7471 2.25 10.7471H3.75C4.57843 10.7471 5.25 11.4186 5.25 12.2471V13.7471C5.25 14.5755 4.57843 15.2471 3.75 15.2471H2.25C1.42157 15.2471 0.75 14.5755 0.75 13.7471V12.2471Z" stroke="#7F8794" stroke-width="1.5" stroke-linecap="round" stroke-linejoin="round"/>
<path fill-rule="evenodd" clip-rule="evenodd" d="M0.75 21.2471C0.75 20.4186 1.42157 19.7471 2.25 19.7471H3.75C4.57843 19.7471 5.25 20.4186 5.25 21.2471V22.7471C5.25 23.5755 4.57843 24.2471 3.75 24.2471H2.25C1.42157 24.2471 0.75 23.5755 0.75 22.7471V21.2471Z" stroke="#7F8794" stroke-width="1.5" stroke-linecap="round" stroke-linejoin="round"/>
</svg>
