<svg width="24" height="25" viewBox="0 0 24 25" fill="none" xmlns="http://www.w3.org/2000/svg">
<path d="M19.707 7.74694C18.531 4.46748 15.5858 2.1473 12.1221 1.77171C8.6585 1.39612 5.28442 3.03105 3.43277 5.9822C1.58112 8.93335 1.57694 12.6827 3.422 15.6379L0.75 21.2499L6.362 18.5779C7.39523 19.2218 8.54741 19.6514 9.75 19.8409" stroke="#7F8794" stroke-width="1.5" stroke-linecap="round" stroke-linejoin="round"/>
<path d="M6.75 7.75H14.25" stroke="#7F8794" stroke-width="1.5" stroke-linecap="round" stroke-linejoin="round"/>
<path d="M6.75 12.25H9.75" stroke="#7F8794" stroke-width="1.5" stroke-linecap="round" stroke-linejoin="round"/>
<path fill-rule="evenodd" clip-rule="evenodd" d="M17.882 11.5001C19.9888 11.4904 21.9047 12.7195 22.7741 14.6386C23.6436 16.5577 23.3044 18.8085 21.908 20.3861L22.579 24.2501L19.079 22.0921C17.0699 22.5533 14.9743 21.8225 13.6878 20.2119C12.4013 18.6014 12.1514 16.3961 13.045 14.5386C13.9387 12.6811 15.8177 11.5 17.879 11.5001H17.882Z" stroke="#7F8794" stroke-width="1.5" stroke-linecap="round" stroke-linejoin="round"/>
<path d="M19.5 15.25H16.5" stroke="#7F8794" stroke-width="1.5" stroke-linecap="round" stroke-linejoin="round"/>
<path d="M19.5 18.25H16.5" stroke="#7F8794" stroke-width="1.5" stroke-linecap="round" stroke-linejoin="round"/>
</svg>
