<svg width="24" height="24" viewBox="0 0 24 24" fill="none" xmlns="http://www.w3.org/2000/svg">
<path d="M15 15.75V20.518C15 21.2427 14.712 21.9378 14.1995 22.4502C13.6869 22.9625 12.9917 23.2503 12.267 23.25H5.733C5.00826 23.2503 4.3131 22.9625 3.80054 22.4502C3.28797 21.9378 3 21.2427 3 20.518V4.983C3 3.47361 4.22361 2.25 5.733 2.25H9.75" stroke="#7F8794" stroke-width="1.5" stroke-linecap="round" stroke-linejoin="round"/>
<path d="M3 18.75H15" stroke="#7F8794" stroke-width="1.5" stroke-linecap="round" stroke-linejoin="round"/>
<path d="M15 9.75C14.7929 9.75 14.625 9.91789 14.625 10.125C14.625 10.3321 14.7929 10.5 15 10.5C15.2071 10.5 15.375 10.3321 15.375 10.125C15.375 9.91789 15.2071 9.75 15 9.75" stroke="#7F8794" stroke-width="1.5" stroke-linecap="round" stroke-linejoin="round"/>
<path d="M15 7.5V4.5" stroke="#7F8794" stroke-width="1.5" stroke-linecap="round" stroke-linejoin="round"/>
<path fill-rule="evenodd" clip-rule="evenodd" d="M20.813 10.183C21.0878 10.7329 21.0583 11.3859 20.735 11.9088C20.4117 12.4317 19.8408 12.75 19.226 12.75H10.774C10.1592 12.75 9.58824 12.4317 9.26496 11.9088C8.94168 11.3859 8.91217 10.7329 9.18699 10.183L13.413 1.73097C13.7134 1.12965 14.3278 0.749756 15 0.749756C15.6722 0.749756 16.2866 1.12965 16.587 1.73097L20.813 10.183Z" stroke="#7F8794" stroke-width="1.5" stroke-linecap="round" stroke-linejoin="round"/>
</svg>
