<svg width="24" height="24" viewBox="0 0 24 24" fill="none" xmlns="http://www.w3.org/2000/svg">
<path d="M7.5 5.59106V21.4761" stroke="#7F8794" stroke-linecap="round" stroke-linejoin="round"/>
<path d="M14.5 10.5911V0.705078" stroke="#7F8794" stroke-linecap="round" stroke-linejoin="round"/>
<path d="M13.5 17.3052L7.791 21.3832C7.61699 21.5077 7.38301 21.5077 7.209 21.3832L0.709 16.7402C0.577708 16.6462 0.499869 16.4946 0.5 16.3332V1.56219C0.500223 1.37492 0.605075 1.20347 0.771682 1.11796C0.938288 1.03245 1.13871 1.0472 1.291 1.15619L7.5 5.59119L14.209 0.800193C14.383 0.675652 14.617 0.675652 14.791 0.800193L21.291 5.44319C21.4223 5.53716 21.5001 5.68874 21.5 5.85019V10.5932" stroke="#7F8794" stroke-linecap="round" stroke-linejoin="round"/>
<path fill-rule="evenodd" clip-rule="evenodd" d="M19.5 12.5911C21.7091 12.5911 23.5 14.3819 23.5 16.5911C23.5 18.3721 20.9 21.8311 19.892 23.1051C19.7972 23.2248 19.6528 23.2947 19.5 23.2947C19.3472 23.2947 19.2028 23.2248 19.108 23.1051C18.1 21.8311 15.5 18.3721 15.5 16.5911C15.5 14.3819 17.2909 12.5911 19.5 12.5911Z" stroke="#7F8794" stroke-linecap="round" stroke-linejoin="round"/>
<path fill-rule="evenodd" clip-rule="evenodd" d="M19.5 18.0911C20.3284 18.0911 21 17.4195 21 16.5911C21 15.7626 20.3284 15.0911 19.5 15.0911C18.6716 15.0911 18 15.7626 18 16.5911C18 17.4195 18.6716 18.0911 19.5 18.0911Z" stroke="#7F8794" stroke-linecap="round" stroke-linejoin="round"/>
</svg>
