<svg width="24" height="25" viewBox="0 0 24 25" fill="none" xmlns="http://www.w3.org/2000/svg">
<path fill-rule="evenodd" clip-rule="evenodd" d="M11.987 23.2529C13.4367 23.2529 14.612 22.0777 14.612 20.6279C14.612 19.1782 13.4367 18.0029 11.987 18.0029C10.5373 18.0029 9.362 19.1782 9.362 20.6279C9.362 22.0777 10.5373 23.2529 11.987 23.2529Z" stroke="#7F8794" stroke-width="1.5" stroke-linecap="round" stroke-linejoin="round"/>
<path fill-rule="evenodd" clip-rule="evenodd" d="M11.987 6.00293C13.4367 6.00293 14.612 4.82768 14.612 3.37793C14.612 1.92818 13.4367 0.75293 11.987 0.75293C10.5373 0.75293 9.362 1.92818 9.362 3.37793C9.362 4.82768 10.5373 6.00293 11.987 6.00293Z" stroke="#7F8794" stroke-width="1.5" stroke-linecap="round" stroke-linejoin="round"/>
<path fill-rule="evenodd" clip-rule="evenodd" d="M11.987 14.6279C13.4367 14.6279 14.612 13.4527 14.612 12.0029C14.612 10.5532 13.4367 9.37793 11.987 9.37793C10.5373 9.37793 9.362 10.5532 9.362 12.0029C9.362 13.4527 10.5373 14.6279 11.987 14.6279Z" stroke="#7F8794" stroke-width="1.5" stroke-linecap="round" stroke-linejoin="round"/>
</svg>
