<svg width="24" height="25" viewBox="0 0 24 25" fill="none" xmlns="http://www.w3.org/2000/svg">
<path fill-rule="evenodd" clip-rule="evenodd" d="M5.25 24.248C7.73528 24.248 9.75 22.2333 9.75 19.748C9.75 17.2628 7.73528 15.248 5.25 15.248C2.76472 15.248 0.75 17.2628 0.75 19.748C0.75 22.2333 2.76472 24.248 5.25 24.248Z" stroke="#7F8794" stroke-width="1.5" stroke-linecap="round" stroke-linejoin="round"/>
<path fill-rule="evenodd" clip-rule="evenodd" d="M18.75 24.248C21.2353 24.248 23.25 22.2333 23.25 19.748C23.25 17.2628 21.2353 15.248 18.75 15.248C16.2647 15.248 14.25 17.2628 14.25 19.748C14.25 22.2333 16.2647 24.248 18.75 24.248Z" stroke="#7F8794" stroke-width="1.5" stroke-linecap="round" stroke-linejoin="round"/>
<path fill-rule="evenodd" clip-rule="evenodd" d="M12 10.748C14.4853 10.748 16.5 8.73333 16.5 6.24805C16.5 3.76277 14.4853 1.74805 12 1.74805C9.51472 1.74805 7.5 3.76277 7.5 6.24805C7.5 8.73333 9.51472 10.748 12 10.748Z" stroke="#7F8794" stroke-width="1.5" stroke-linecap="round" stroke-linejoin="round"/>
<path d="M16.738 15.7239L14.012 10.2729" stroke="#7F8794" stroke-width="1.5" stroke-linecap="round" stroke-linejoin="round"/>
<path d="M9.75 19.748H14.25" stroke="#7F8794" stroke-width="1.5" stroke-linecap="round" stroke-linejoin="round"/>
<path d="M9.98802 10.2729L7.26202 15.7239" stroke="#7F8794" stroke-width="1.5" stroke-linecap="round" stroke-linejoin="round"/>
</svg>
