<svg width="24" height="25" viewBox="0 0 24 25" fill="none" xmlns="http://www.w3.org/2000/svg">
<path fill-rule="evenodd" clip-rule="evenodd" d="M4.285 1.49011H4.274C2.21422 1.94775 0.749008 3.7751 0.750001 5.88511V6.77511C0.750001 7.17293 0.908036 7.55447 1.18934 7.83577C1.47064 8.11708 1.85218 8.27511 2.25 8.27511H6C6.82843 8.27511 7.5 7.60354 7.5 6.77511V6.77511C7.5 5.94668 8.17157 5.27511 9 5.27511H15C15.8284 5.27511 16.5 5.94668 16.5 6.77511V6.77511C16.5 7.60354 17.1716 8.27511 18 8.27511H21.75C22.5784 8.27511 23.25 7.60354 23.25 6.77511V5.88511C23.2501 3.77585 21.7851 1.94959 19.726 1.49211H19.715C14.6191 0.504931 9.38116 0.504252 4.285 1.49011Z" stroke="#7F8794" stroke-width="1.5" stroke-linecap="round" stroke-linejoin="round"/>
<path fill-rule="evenodd" clip-rule="evenodd" d="M12.305 11.2751H11.7C7.1608 11.2749 3.33186 14.655 2.769 19.1591L2.676 19.9031C2.5693 20.757 2.83439 21.6156 3.4039 22.2607C3.97341 22.9057 4.7925 23.2752 5.653 23.2751H18.353C19.2137 23.2747 20.0328 22.9046 20.602 22.2589C21.1712 21.6132 21.4356 20.7541 21.328 19.9001L21.235 19.1561C20.6708 14.6535 16.8428 11.2752 12.305 11.2751Z" stroke="#7F8794" stroke-width="1.5" stroke-linecap="round" stroke-linejoin="round"/>
<path d="M9.75 11.4871V9.02515" stroke="#7F8794" stroke-width="1.5" stroke-linecap="round" stroke-linejoin="round"/>
<path d="M14.25 11.4871V9.02515" stroke="#7F8794" stroke-width="1.5" stroke-linecap="round" stroke-linejoin="round"/>
<path fill-rule="evenodd" clip-rule="evenodd" d="M12 20.2751C13.6569 20.2751 15 18.932 15 17.2751C15 15.6183 13.6569 14.2751 12 14.2751C10.3431 14.2751 9 15.6183 9 17.2751C9 18.932 10.3431 20.2751 12 20.2751Z" stroke="#7F8794" stroke-width="1.5" stroke-linecap="round" stroke-linejoin="round"/>
</svg>
