<svg width="25" height="25" viewBox="0 0 25 25" fill="none" xmlns="http://www.w3.org/2000/svg">
<path fill-rule="evenodd" clip-rule="evenodd" d="M4.94901 9.78293C4.54804 10.0182 4.27882 10.4261 4.2201 10.8872C4.16137 11.3484 4.31979 11.8107 4.64901 12.1389L12.862 20.3519C13.1902 20.6811 13.6526 20.8396 14.1137 20.7808C14.5749 20.7221 14.9828 20.4529 15.218 20.0519C16.1908 18.3783 16.4809 16.394 16.028 14.5119L22.557 10.3569C22.9409 10.1128 23.1932 9.70757 23.243 9.25534C23.2928 8.80311 23.1346 8.35274 22.813 8.03093L16.97 2.18793C16.6483 1.86623 16.1981 1.7079 15.7458 1.75748C15.2936 1.80706 14.8883 2.05918 14.644 2.44293L10.489 8.97293C8.60691 8.51999 6.62265 8.81011 4.94901 9.78293Z" stroke="#7F8794" stroke-width="1.5" stroke-linecap="round" stroke-linejoin="round"/>
<path d="M8.753 16.2458L0.75 24.2488" stroke="#7F8794" stroke-width="1.5" stroke-linecap="round" stroke-linejoin="round"/>
</svg>
