<svg width="24" height="24" viewBox="0 0 24 24" fill="none" xmlns="http://www.w3.org/2000/svg">
<path d="M12.75 12.75H2.25C1.42157 12.75 0.75 12.0784 0.75 11.25V2.25C0.75 1.42157 1.42157 0.75 2.25 0.75H20.25C21.0784 0.75 21.75 1.42157 21.75 2.25V8.25" stroke="#7F8794" stroke-width="1.5" stroke-linecap="round" stroke-linejoin="round"/>
<path d="M5.25 6.375C5.45711 6.375 5.625 6.54289 5.625 6.75C5.625 6.95711 5.45711 7.125 5.25 7.125C5.04289 7.125 4.875 6.95711 4.875 6.75C4.87473 6.65046 4.91416 6.55493 4.98454 6.48454C5.05493 6.41416 5.15046 6.37473 5.25 6.375" stroke="#7F8794" stroke-width="1.5" stroke-linecap="round" stroke-linejoin="round"/>
<path d="M11.25 6.375C11.4571 6.375 11.625 6.54289 11.625 6.75C11.625 6.95711 11.4571 7.125 11.25 7.125C11.0429 7.125 10.875 6.95711 10.875 6.75C10.8747 6.65046 10.9142 6.55493 10.9845 6.48454C11.0549 6.41416 11.1505 6.37473 11.25 6.375" stroke="#7F8794" stroke-width="1.5" stroke-linecap="round" stroke-linejoin="round"/>
<path d="M17.25 6.375C17.4571 6.375 17.625 6.54289 17.625 6.75C17.625 6.95711 17.4571 7.125 17.25 7.125C17.0429 7.125 16.875 6.95711 16.875 6.75C16.8747 6.65046 16.9142 6.55493 16.9845 6.48454C17.0549 6.41416 17.1505 6.37473 17.25 6.375" stroke="#7F8794" stroke-width="1.5" stroke-linecap="round" stroke-linejoin="round"/>
<path fill-rule="evenodd" clip-rule="evenodd" d="M14.25 17.25C14.25 16.4216 14.9216 15.75 15.75 15.75H21.75C22.5784 15.75 23.25 16.4216 23.25 17.25V21.75C23.25 22.5784 22.5784 23.25 21.75 23.25H15.75C14.9216 23.25 14.25 22.5784 14.25 21.75V17.25Z" stroke="#7F8794" stroke-width="1.5" stroke-linecap="round" stroke-linejoin="round"/>
<path fill-rule="evenodd" clip-rule="evenodd" d="M18.75 11.25V11.25C17.0931 11.25 15.75 12.5931 15.75 14.25V15.75H21.75V14.25C21.75 12.5931 20.4069 11.25 18.75 11.25Z" stroke="#7F8794" stroke-width="1.5" stroke-linecap="round" stroke-linejoin="round"/>
<path d="M18.75 19.1541C18.9571 19.1541 19.125 19.3219 19.125 19.5291C19.125 19.7362 18.9571 19.9041 18.75 19.9041C18.5429 19.9041 18.375 19.7362 18.375 19.5291C18.375 19.3219 18.5429 19.1541 18.75 19.1541" stroke="#7F8794" stroke-width="1.5" stroke-linecap="round" stroke-linejoin="round"/>
</svg>
