<svg width="24" height="24" viewBox="0 0 24 24" fill="none" xmlns="http://www.w3.org/2000/svg">
<path d="M15.75 11.758L13.434 9.44199C13.1883 9.1538 12.8287 8.98779 12.45 8.98779C12.0713 8.98779 11.7117 9.1538 11.466 9.44199C10.387 10.521 12.866 14.642 11.784 15.724C11.5265 15.9914 11.1712 16.1425 10.8 16.1425C10.4288 16.1425 10.0735 15.9914 9.816 15.724L7.5 13.408" stroke="#7F8794" stroke-width="1.5" stroke-linecap="round" stroke-linejoin="round"/>
<path d="M14.1 10.1081L15.337 8.87109" stroke="#7F8794" stroke-width="1.5" stroke-linecap="round" stroke-linejoin="round"/>
<path d="M7.91199 16.2961L9.14999 15.0581" stroke="#7F8794" stroke-width="1.5" stroke-linecap="round" stroke-linejoin="round"/>
<path fill-rule="evenodd" clip-rule="evenodd" d="M18.244 6.89488C19.0421 6.89488 19.689 6.24793 19.689 5.44988C19.689 4.65183 19.0421 4.00488 18.244 4.00488C17.446 4.00488 16.799 4.65183 16.799 5.44988C16.799 6.24793 17.446 6.89488 18.244 6.89488Z" stroke="#7F8794" stroke-width="1.5" stroke-linecap="round" stroke-linejoin="round"/>
<path fill-rule="evenodd" clip-rule="evenodd" d="M21.705 0.750003H12.331C11.9042 0.74982 11.4963 0.926071 11.204 1.237L1.168 11.908C0.88147 12.2122 0.731264 12.62 0.75202 13.0374C0.772776 13.4548 0.962702 13.8457 1.278 14.12L11.309 22.869C11.9371 23.4156 12.885 23.3679 13.455 22.761L22.834 12.744C23.101 12.4592 23.2498 12.0834 23.25 11.693V2.29C23.2495 1.88087 23.0864 1.48871 22.7966 1.19988C22.5068 0.911041 22.1141 0.749207 21.705 0.750003V0.750003Z" stroke="#7F8794" stroke-width="1.5" stroke-linecap="round" stroke-linejoin="round"/>
</svg>
