<svg width="24" height="24" viewBox="0 0 24 24" fill="none" xmlns="http://www.w3.org/2000/svg">
<path d="M20.566 10.5372C20.4253 10.0995 20.2504 9.6735 20.043 9.26318" stroke="#7F8794" stroke-linecap="round" stroke-linejoin="round"/>
<path d="M20.931 14.4249C20.9772 14.0534 21.0003 13.6793 21 13.3049C21 13.0136 20.9863 12.7259 20.959 12.4419" stroke="#7F8794" stroke-linecap="round" stroke-linejoin="round"/>
<path d="M19.611 18.1109C19.9519 17.5715 20.2345 16.9972 20.454 16.3979" stroke="#7F8794" stroke-linecap="round" stroke-linejoin="round"/>
<path d="M16.837 20.9002C17.3803 20.555 17.8852 20.1527 18.343 19.7002" stroke="#7F8794" stroke-linecap="round" stroke-linejoin="round"/>
<path d="M13.02 22.2479C13.6701 22.1743 14.3102 22.0297 14.929 21.8169" stroke="#7F8794" stroke-linecap="round" stroke-linejoin="round"/>
<path d="M14 4.25H12C7.21724 4.264 3.27514 8.00515 3.01117 12.7806C2.74719 17.5561 6.25292 21.7089 11.005 22.25" stroke="#7F8794" stroke-linecap="round" stroke-linejoin="round"/>
<path d="M10.5 1.75L14 4.25L10.5 6.75" stroke="#7F8794" stroke-linecap="round" stroke-linejoin="round"/>
</svg>
