<svg width="24" height="24" viewBox="0 0 24 24" fill="none" xmlns="http://www.w3.org/2000/svg">
<path d="M3.43402 10.5372C3.57473 10.0995 3.7496 9.6735 3.95702 9.26318" stroke="#7F8794" stroke-linecap="round" stroke-linejoin="round"/>
<path d="M3.069 14.4249C3.02274 14.0534 2.9997 13.6793 3 13.3049C3 13.0136 3.01367 12.7259 3.041 12.4419" stroke="#7F8794" stroke-linecap="round" stroke-linejoin="round"/>
<path d="M4.38902 18.1109C4.04821 17.572 3.76562 16.9985 3.54602 16.3999" stroke="#7F8794" stroke-linecap="round" stroke-linejoin="round"/>
<path d="M7.16298 20.9002C6.61964 20.555 6.11477 20.1527 5.65698 19.7002" stroke="#7F8794" stroke-linecap="round" stroke-linejoin="round"/>
<path d="M10.98 22.2479C10.3298 22.1743 9.6897 22.0297 9.07098 21.8169" stroke="#7F8794" stroke-linecap="round" stroke-linejoin="round"/>
<path d="M10 4.25H12C16.7827 4.264 20.7248 8.00515 20.9888 12.7806C21.2528 17.5561 17.7471 21.7089 12.995 22.25" stroke="#7F8794" stroke-linecap="round" stroke-linejoin="round"/>
<path d="M13.5 1.75L10 4.25L13.5 6.75" stroke="#7F8794" stroke-linecap="round" stroke-linejoin="round"/>
</svg>
