<svg width="25" height="24" viewBox="0 0 25 24" fill="none" xmlns="http://www.w3.org/2000/svg">
<path fill-rule="evenodd" clip-rule="evenodd" d="M18 0.750056C15.9396 0.740585 14.066 1.9426 13.2157 3.81937C12.3654 5.69614 12.6973 7.89733 14.063 9.44006L13.406 13.2191L16.829 11.1081C18.7948 11.5611 20.8462 10.8468 22.1055 9.27078C23.3647 7.69478 23.6088 5.5363 22.7331 3.71895C21.8575 1.90159 20.0173 0.747325 18 0.750056Z" stroke="#7F8794" stroke-width="1.5" stroke-linecap="round" stroke-linejoin="round"/>
<path fill-rule="evenodd" clip-rule="evenodd" d="M8.23199 18.75C10.096 18.75 11.607 17.239 11.607 15.375C11.607 13.511 10.096 12 8.23199 12C6.36803 12 4.85699 13.511 4.85699 15.375C4.85699 17.239 6.36803 18.75 8.23199 18.75Z" stroke="#7F8794" stroke-width="1.5" stroke-linecap="round" stroke-linejoin="round"/>
<path d="M13.46 23.2429C12.3708 21.3873 10.3796 20.2481 8.22799 20.2495C6.07635 20.251 4.08669 21.3928 3 23.2499" stroke="#7F8794" stroke-width="1.5" stroke-linecap="round" stroke-linejoin="round"/>
<path d="M18 14.25V23.25" stroke="#7F8794" stroke-width="1.5" stroke-linecap="round" stroke-linejoin="round"/>
<path d="M0.75 23.25V3.75C0.75 2.09315 2.09315 0.75 3.75 0.75H11.25" stroke="#7F8794" stroke-width="1.5" stroke-linecap="round" stroke-linejoin="round"/>
<path d="M0.75 6.75H9.75" stroke="#7F8794" stroke-width="1.5" stroke-linecap="round" stroke-linejoin="round"/>
<path d="M6.75 3.75H9.75" stroke="#7F8794" stroke-width="1.5" stroke-linecap="round" stroke-linejoin="round"/>
<path d="M20.25 5.57129C20.1554 6.72224 19.1519 7.58255 18 7.50029C16.8481 7.58255 15.8446 6.72224 15.75 5.57129" stroke="#7F8794" stroke-width="1.5" stroke-linecap="round" stroke-linejoin="round"/>
</svg>
