<svg width="24" height="24" viewBox="0 0 24 24" fill="none" xmlns="http://www.w3.org/2000/svg">
<path fill-rule="evenodd" clip-rule="evenodd" d="M11.551 5.74495C11.6345 5.57245 11.8093 5.46289 12.001 5.46289C12.1926 5.46289 12.3674 5.57245 12.451 5.74495L14.3 9.48295L18.444 10.0829C18.6326 10.1103 18.7893 10.2426 18.8479 10.424C18.9065 10.6054 18.8569 10.8043 18.72 10.9369L15.72 13.8369L16.428 17.9369C16.4602 18.1243 16.3834 18.3136 16.2298 18.4256C16.0763 18.5376 15.8725 18.5528 15.704 18.4649L12 16.5309L8.28897 18.4699C8.12046 18.5578 7.91669 18.5426 7.76314 18.4306C7.60958 18.3186 7.53279 18.1293 7.56497 17.9419L8.27297 13.8419L5.27297 10.9419C5.13603 10.8093 5.08641 10.6104 5.14503 10.429C5.20366 10.2476 5.36032 10.1153 5.54897 10.0879L9.69397 9.48795L11.551 5.74495Z" stroke="#7F8794" stroke-linecap="round" stroke-linejoin="round"/>
</svg>
