<svg width="24" height="24" viewBox="0 0 24 24" fill="none" xmlns="http://www.w3.org/2000/svg">
<path fill-rule="evenodd" clip-rule="evenodd" d="M19.5 15.7502L22.811 12.4392C23.3966 11.8534 23.3966 10.9039 22.811 10.3182L20.7 8.21218C20.0431 9.77096 18.4239 10.697 16.7472 10.4727C15.0706 10.2485 13.7517 8.92956 13.5274 7.25293C13.3032 5.5763 14.2292 3.95711 15.788 3.30018L13.682 1.18918C13.0962 0.603607 12.1467 0.603607 11.561 1.18918L8.25 4.50018C8.25 2.42911 6.57106 0.75018 4.5 0.75018C2.42893 0.75018 0.749997 2.42911 0.749997 4.50018C0.749997 6.57125 2.42893 8.25018 4.5 8.25018L1.189 11.5612C0.603424 12.1469 0.603424 13.0964 1.189 13.6822L3.3 15.7882C3.95693 14.2294 5.57612 13.3034 7.25275 13.5276C8.92938 13.7518 10.2483 15.0708 10.4726 16.7474C10.6968 18.4241 9.77078 20.0432 8.212 20.7002L10.318 22.8072C10.9037 23.3928 11.8532 23.3928 12.439 22.8072L15.75 19.5002C15.75 21.5712 17.4289 23.2502 19.5 23.2502C21.5711 23.2502 23.25 21.5712 23.25 19.5002C23.25 17.4291 21.5711 15.7502 19.5 15.7502Z" stroke="#7F8794" stroke-width="1.5" stroke-linecap="round" stroke-linejoin="round"/>
</svg>
