<svg width="24" height="24" viewBox="0 0 24 24" fill="none" xmlns="http://www.w3.org/2000/svg">
<path fill-rule="evenodd" clip-rule="evenodd" d="M10.546 2.43812C10.9171 2.85006 11.4455 3.08526 12 3.08526C12.5545 3.08526 13.0829 2.85006 13.454 2.43812L14.4 1.40012C14.9556 0.785259 15.8379 0.586475 16.6035 0.903697C17.369 1.22092 17.8521 1.98552 17.81 2.81312L17.739 4.21312C17.7112 4.76539 17.9183 5.30365 18.309 5.69495C18.6997 6.08624 19.2377 6.29408 19.79 6.26712L21.19 6.19612C22.017 6.15534 22.7804 6.63897 23.0968 7.40418C23.4132 8.16939 23.2143 9.0509 22.6 9.60612L21.558 10.5461C21.1466 10.9177 20.9118 11.4462 20.9118 12.0006C20.9118 12.555 21.1466 13.0835 21.558 13.4551L22.6 14.3951C23.2149 14.9507 23.4136 15.833 23.0964 16.5986C22.7792 17.3641 22.0146 17.8473 21.187 17.8051L19.787 17.7341C19.2335 17.7056 18.6938 17.9131 18.3019 18.305C17.91 18.6969 17.7025 19.2366 17.731 19.7901L17.802 21.1901C17.8387 22.0133 17.3563 22.7715 16.595 23.087C15.8337 23.4025 14.9564 23.2079 14.4 22.6001L13.459 21.5591C13.0876 21.1477 12.5593 20.913 12.005 20.913C11.4507 20.913 10.9224 21.1477 10.551 21.5591L9.606 22.6001C9.0504 23.2108 8.17154 23.4076 7.40854 23.0922C6.64554 22.7768 6.1622 22.0169 6.2 21.1921L6.272 19.7921C6.30047 19.2386 6.09302 18.6989 5.7011 18.307C5.30918 17.9151 4.76952 17.7076 4.216 17.7361L2.816 17.8071C1.98873 17.8503 1.22381 17.3682 0.905883 16.6032C0.587955 15.8383 0.785828 14.956 1.4 14.4001L2.441 13.4601C2.85242 13.0885 3.08722 12.56 3.08722 12.0056C3.08722 11.4512 2.85242 10.9227 2.441 10.5511L1.4 9.60612C0.787888 9.05087 0.590308 8.17108 0.906222 7.40741C1.22214 6.64375 1.98351 6.16066 2.809 6.20012L4.209 6.27112C4.76359 6.30027 5.30448 6.09255 5.69699 5.69966C6.0895 5.30677 6.2967 4.76568 6.267 4.21112L6.2 2.81012C6.16129 1.98499 6.64431 1.22424 7.40754 0.90828C8.17076 0.592324 9.05017 0.789063 9.606 1.40012L10.546 2.43812Z" stroke="#7F8794" stroke-width="1.5" stroke-linecap="round" stroke-linejoin="round"/>
<path fill-rule="evenodd" clip-rule="evenodd" d="M12 16.501C14.4853 16.501 16.5 14.4863 16.5 12.001C16.5 9.5157 14.4853 7.50098 12 7.50098C9.51472 7.50098 7.5 9.5157 7.5 12.001C7.5 14.4863 9.51472 16.501 12 16.501Z" stroke="#7F8794" stroke-width="1.5" stroke-linecap="round" stroke-linejoin="round"/>
</svg>
