<svg width="24" height="24" viewBox="0 0 24 24" fill="none" xmlns="http://www.w3.org/2000/svg">
<path d="M9.75 5.25H2.25C1.42157 5.25 0.75 5.92157 0.75 6.75V20.25C0.75 21.0784 1.42157 21.75 2.25 21.75H21.75C22.5784 21.75 23.25 21.0784 23.25 20.25V6.75C23.25 5.92157 22.5784 5.25 21.75 5.25H14.25" stroke="#7F8794" stroke-width="1.5" stroke-linecap="round" stroke-linejoin="round"/>
<path fill-rule="evenodd" clip-rule="evenodd" d="M14.25 4.5C14.25 3.25736 13.2426 2.25 12 2.25C10.7574 2.25 9.75 3.25736 9.75 4.5V7.5C9.75 7.69891 9.82902 7.88968 9.96967 8.03033C10.1103 8.17098 10.3011 8.25 10.5 8.25H13.5C13.9142 8.25 14.25 7.91421 14.25 7.5V4.5Z" stroke="#7F8794" stroke-width="1.5" stroke-linecap="round" stroke-linejoin="round"/>
<path fill-rule="evenodd" clip-rule="evenodd" d="M8.25 16.5C9.69975 16.5 10.875 15.3247 10.875 13.875C10.875 12.4253 9.69975 11.25 8.25 11.25C6.80025 11.25 5.625 12.4253 5.625 13.875C5.625 15.3247 6.80025 16.5 8.25 16.5Z" stroke="#7F8794" stroke-width="1.5" stroke-linecap="round" stroke-linejoin="round"/>
<path fill-rule="evenodd" clip-rule="evenodd" d="M3.75 21.75C3.75 19.2647 5.76472 17.25 8.25 17.25C10.7353 17.25 12.75 19.2647 12.75 21.75H3.75Z" stroke="#7F8794" stroke-width="1.5" stroke-linecap="round" stroke-linejoin="round"/>
<path d="M14.25 12.75H18.75" stroke="#7F8794" stroke-width="1.5" stroke-linecap="round" stroke-linejoin="round"/>
<path d="M14.25 15.75H20.25" stroke="#7F8794" stroke-width="1.5" stroke-linecap="round" stroke-linejoin="round"/>
</svg>
