<svg width="24" height="24" viewBox="0 0 24 24" fill="none" xmlns="http://www.w3.org/2000/svg">
<path d="M4.70001 8.77979C6.67948 10.8322 9.72325 11.444 12.342 10.3158" stroke="#7F8794" stroke-width="1.5" stroke-linecap="round" stroke-linejoin="round"/>
<path fill-rule="evenodd" clip-rule="evenodd" d="M8.24902 15C10.5272 15 12.374 13.1532 12.374 10.875C12.374 8.59683 10.5272 6.75 8.24902 6.75C5.97085 6.75 4.12402 8.59683 4.12402 10.875C4.12402 13.1532 5.97085 15 8.24902 15Z" stroke="#7F8794" stroke-width="1.5" stroke-linecap="round" stroke-linejoin="round"/>
<path fill-rule="evenodd" clip-rule="evenodd" d="M11.999 23.25C18.2122 23.25 23.249 18.2132 23.249 12C23.249 5.7868 18.2122 0.75 11.999 0.75C5.78582 0.75 0.749023 5.7868 0.749023 12C0.749023 18.2132 5.78582 23.25 11.999 23.25Z" stroke="#7F8794" stroke-width="1.5" stroke-linecap="round" stroke-linejoin="round"/>
<path d="M14.987 22.8482C14.8243 20.0943 13.0018 17.7167 10.3848 16.844C7.76781 15.9713 4.88312 16.7792 3.10004 18.8842" stroke="#7F8794" stroke-width="1.5" stroke-linecap="round" stroke-linejoin="round"/>
<path fill-rule="evenodd" clip-rule="evenodd" d="M17.624 15.75C19.0738 15.75 20.249 14.5747 20.249 13.125C20.249 11.6753 19.0738 10.5 17.624 10.5C16.1743 10.5 14.999 11.6753 14.999 13.125C14.999 14.5747 16.1743 15.75 17.624 15.75Z" stroke="#7F8794" stroke-width="1.5" stroke-linecap="round" stroke-linejoin="round"/>
<path d="M21.2741 18.368C20.3428 17.0762 18.798 16.3728 17.2121 16.5184C15.6262 16.6641 14.2354 17.6371 13.5551 19.077" stroke="#7F8794" stroke-width="1.5" stroke-linecap="round" stroke-linejoin="round"/>
</svg>
