<svg width="24" height="24" viewBox="0 0 24 24" fill="none" xmlns="http://www.w3.org/2000/svg">
<path d="M19.5 16.065V16.065C20.3284 16.065 21 16.7366 21 17.565C21 18.3934 20.3284 19.065 19.5 19.065H18.5C19.3284 19.065 20 19.7366 20 20.565C20 21.3934 19.3284 22.065 18.5 22.065H12C8 22.065 9 20.065 1 20.065V11.065H4C8.23362 10.8256 11.534 7.30526 11.5 3.06501C11.5 1.48401 14.5 1.28401 14.5 4.28401C14.3467 6.23785 14.0119 8.1732 13.5 10.065H21.5C22.3284 10.065 23 10.7366 23 11.565C23 12.3934 22.3284 13.065 21.5 13.065H20.5C21.3284 13.065 22 13.7366 22 14.565C22 15.3934 21.3284 16.065 20.5 16.065H19.5" stroke="#7F8794" stroke-width="1.5" stroke-linecap="round" stroke-linejoin="round"/>
</svg>
