<svg width="24" height="25" viewBox="0 0 24 25" fill="none" xmlns="http://www.w3.org/2000/svg">
<path d="M8.25 4.74805H23.25" stroke="#7F8794" stroke-width="1.5" stroke-linecap="round" stroke-linejoin="round"/>
<path d="M8.25 13.748H23.25" stroke="#7F8794" stroke-width="1.5" stroke-linecap="round" stroke-linejoin="round"/>
<path d="M8.25 22.748H23.25" stroke="#7F8794" stroke-width="1.5" stroke-linecap="round" stroke-linejoin="round"/>
<path fill-rule="evenodd" clip-rule="evenodd" d="M0.75 2.49805C0.75 2.08383 1.08579 1.74805 1.5 1.74805H4.5C4.91421 1.74805 5.25 2.08383 5.25 2.49805V5.49805C5.25 5.91226 4.91421 6.24805 4.5 6.24805H1.5C1.08579 6.24805 0.75 5.91226 0.75 5.49805V2.49805Z" stroke="#7F8794" stroke-width="1.5" stroke-linecap="round" stroke-linejoin="round"/>
<path fill-rule="evenodd" clip-rule="evenodd" d="M0.75 11.498C0.75 11.0838 1.08579 10.748 1.5 10.748H4.5C4.91421 10.748 5.25 11.0838 5.25 11.498V14.498C5.25 14.9123 4.91421 15.248 4.5 15.248H1.5C1.08579 15.248 0.75 14.9123 0.75 14.498V11.498Z" stroke="#7F8794" stroke-width="1.5" stroke-linecap="round" stroke-linejoin="round"/>
<path fill-rule="evenodd" clip-rule="evenodd" d="M0.75 20.498C0.75 20.0838 1.08579 19.748 1.5 19.748H4.5C4.91421 19.748 5.25 20.0838 5.25 20.498V23.498C5.25 23.9123 4.91421 24.248 4.5 24.248H1.5C1.08579 24.248 0.75 23.9123 0.75 23.498V20.498Z" stroke="#7F8794" stroke-width="1.5" stroke-linecap="round" stroke-linejoin="round"/>
</svg>
