<svg width="24" height="24" viewBox="0 0 24 24" fill="none" xmlns="http://www.w3.org/2000/svg">
<path fill-rule="evenodd" clip-rule="evenodd" d="M12 13.4521C12.8284 13.4521 13.5 12.7806 13.5 11.9521C13.5 11.1237 12.8284 10.4521 12 10.4521C11.1716 10.4521 10.5 11.1237 10.5 11.9521C10.5 12.7806 11.1716 13.4521 12 13.4521Z" stroke="#7F8794" stroke-width="1.5" stroke-linecap="round" stroke-linejoin="round"/>
<path d="M15.712 8.24023C16.697 9.22469 17.2503 10.5602 17.2503 11.9527C17.2503 13.3453 16.697 14.6808 15.712 15.6652" stroke="#7F8794" stroke-width="1.5" stroke-linecap="round" stroke-linejoin="round"/>
<path d="M8.28799 15.6652C7.30306 14.6808 6.74969 13.3453 6.74969 11.9527C6.74969 10.5602 7.30306 9.22469 8.28799 8.24023" stroke="#7F8794" stroke-width="1.5" stroke-linecap="round" stroke-linejoin="round"/>
<path d="M17.834 6.11914C21.0551 9.34116 21.0551 14.5641 17.834 17.7861" stroke="#7F8794" stroke-width="1.5" stroke-linecap="round" stroke-linejoin="round"/>
<path d="M6.16604 17.7861C4.6187 16.2391 3.74939 14.1407 3.74939 11.9526C3.74939 9.76459 4.6187 7.66618 6.16604 6.11914" stroke="#7F8794" stroke-width="1.5" stroke-linecap="round" stroke-linejoin="round"/>
<path d="M19.955 4C24.3479 8.39364 24.3479 15.5164 19.955 19.91" stroke="#7F8794" stroke-width="1.5" stroke-linecap="round" stroke-linejoin="round"/>
<path d="M4.04501 19.907C-0.345897 15.5137 -0.345897 8.39329 4.04501 4" stroke="#7F8794" stroke-width="1.5" stroke-linecap="round" stroke-linejoin="round"/>
</svg>
