<svg width="132" height="68" viewBox="0 0 132 68" fill="none" xmlns="http://www.w3.org/2000/svg">
<path d="M13.464 56.436C13.464 54.17 12.188 53.092 9.284 52.652C8.866 52.586 7.172 52.344 6.468 52.234C4.752 51.97 4.378 51.772 4.378 51.244C4.378 50.672 4.95 50.364 6.886 50.364C8.558 50.364 9.196 50.65 9.438 50.98C9.548 51.134 9.592 51.508 9.592 51.64H13.002C13.002 51.398 12.936 50.65 12.782 50.188C12.166 48.45 10.076 47.592 6.754 47.592C2.86 47.592 0.924 49 0.924 51.156C0.924 53.466 2.2 54.632 4.862 55.006C5.588 55.116 7.04 55.336 7.502 55.402C9.284 55.666 10.01 55.82 10.01 56.502C10.01 57.206 9.394 57.558 7.392 57.558C5.478 57.558 4.554 57.404 4.334 56.832C4.246 56.59 4.224 56.37 4.224 56.216H0.726C0.726 56.612 0.748 56.942 0.858 57.426C1.364 59.406 3.3 60.22 7.392 60.22C11.572 60.22 13.464 58.944 13.464 56.436ZM29.2502 53.73C29.2502 51.86 28.6782 50.562 27.8422 49.484C26.9622 48.34 25.2022 47.636 23.4202 47.636C21.0882 47.636 19.4382 48.604 18.9982 49.616L18.8882 47.9H15.4562V63.806H18.9982V58.504C19.8782 59.648 21.5722 60.088 23.3762 60.088C25.1582 60.088 26.9402 59.34 27.8422 58.284C28.7662 57.206 29.2502 55.732 29.2502 53.73ZM25.6642 53.95C25.6642 54.764 25.4882 55.424 25.1142 55.952C24.5642 56.722 23.5962 57.162 22.2102 57.162C21.0882 57.162 20.2522 56.832 19.7022 56.26C19.1522 55.71 18.8882 54.918 18.8882 53.95C18.8882 52.916 19.2402 52.036 19.9442 51.442C20.4942 50.98 21.2642 50.716 22.2102 50.716C23.3982 50.716 24.2342 51.024 24.7842 51.53C25.4002 52.124 25.6642 52.96 25.6642 53.95ZM40.8853 47.856C40.4013 47.724 39.7193 47.614 38.7073 47.614C36.9033 47.614 34.9453 48.604 34.6593 49.858V47.9H31.1613V60H34.7473V54.192C34.7473 52.08 36.1113 50.87 37.9813 50.87C39.2353 50.87 40.0493 50.98 40.8853 51.244V47.856ZM54.7192 60H51.3092L51.2212 58.306C50.4072 59.67 48.6032 60.198 46.8212 60.198C44.0712 60.198 42.2232 59.164 42.2232 56.216C42.2232 49.198 42.2012 47.988 42.1132 47.9C42.1132 47.9 45.7652 47.9 45.6992 47.9C45.7652 47.9 45.7872 53.092 45.7872 55.314C45.7872 56.92 46.8652 57.448 48.2512 57.448C50.0112 57.448 51.1112 56.568 51.1112 55.138V47.9H54.6532C54.6532 47.9 54.6532 55.996 54.6532 58.108C54.6532 59.208 54.6972 59.89 54.7192 60ZM70.1578 52.74C70.1578 52.102 70.0478 51.376 69.7398 50.672C69.0358 49.066 67.2758 47.614 63.4258 47.614C61.3798 47.614 59.4658 48.142 58.2118 49.374C57.1558 50.408 56.5618 51.926 56.5618 53.906C56.5618 56.062 57.1778 57.69 58.4318 58.746C59.6198 59.736 61.3358 60.198 63.5578 60.198C65.9998 60.198 67.6498 59.582 68.6618 58.658C69.7398 57.712 70.1358 56.436 70.1358 55.314H66.7478C66.7478 55.666 66.6378 56.128 66.2638 56.502C65.8018 56.942 64.9658 57.272 63.6238 57.272C62.3258 57.272 61.4238 57.03 60.8738 56.48C60.2798 55.93 60.1038 55.05 60.1038 53.928C60.1038 52.894 60.3458 51.992 60.9178 51.42C61.4898 50.848 62.3698 50.606 63.5358 50.606C64.8778 50.606 65.7358 51.002 66.1978 51.508C66.5498 51.882 66.7038 52.322 66.7038 52.74H70.1578ZM84.9831 56.062H81.5291C81.4631 56.326 81.1551 56.722 80.5171 57.008C80.0111 57.228 79.2851 57.404 78.2951 57.404C76.9751 57.404 75.9851 57.052 75.4791 56.502C75.0611 56.04 74.8191 55.622 74.8191 55.072H85.0711C85.2691 53.246 84.9391 51.508 84.0371 50.188C82.9591 48.626 81.0671 47.614 78.2951 47.614C75.6551 47.614 73.5651 48.604 72.3991 50.298C71.7171 51.266 71.3431 52.498 71.3431 53.884C71.3431 55.402 71.6731 56.612 72.2671 57.558C73.4331 59.406 75.6111 60.198 78.2951 60.198C80.2531 60.198 81.7271 59.78 82.7831 59.098C83.9931 58.328 84.6971 57.228 84.9831 56.062ZM81.5731 52.762H74.7971C74.7971 52.41 75.1271 51.684 75.5451 51.31C76.1391 50.782 77.0631 50.452 78.3171 50.452C79.6371 50.452 80.4731 50.87 80.9791 51.376C81.4191 51.838 81.5731 52.41 81.5731 52.762Z" fill="#2C323D"/>
<path d="M88.8298 60C88.7638 59.912 88.7638 59.494 88.7638 58.856C88.7638 56.502 88.7638 45.018 88.7638 43.456C88.7638 42.95 88.7418 42.576 88.6978 42.444H87.0698C87.0918 42.62 87.1138 43.17 87.1138 43.654C87.1138 45.502 87.1138 57.8 87.1138 59.318C87.1138 59.78 87.1358 59.956 87.2018 60H88.8298ZM102.464 60C102.354 59.692 102.244 58.438 102.244 57.558C102.244 56.788 102.244 54.984 102.266 54.17C102.266 53.29 102.244 51.354 102.2 50.804C102.024 48.736 100.55 47.658 97.1178 47.658C95.0938 47.658 93.7298 48.12 92.7838 49.198C92.2118 49.836 91.9918 50.672 91.9258 51.684H93.4878C93.4878 50.936 93.6858 50.408 94.2138 49.902C94.8078 49.308 95.7538 49.11 97.1398 49.11C99.5378 49.11 100.55 49.748 100.638 51.2C100.682 51.662 100.682 52.586 100.682 52.916C99.3838 52.784 98.2398 52.74 97.1618 52.762C92.8718 52.85 91.3758 54.5 91.3318 56.414C91.3318 56.59 91.3318 56.854 91.3318 56.964C91.3758 58.922 92.9378 60.132 95.8858 60.132C98.7458 60.132 100.066 59.296 100.704 58.262C100.66 58.922 100.836 60 100.902 60H102.464ZM100.704 54.148C100.704 54.39 100.704 55.336 100.66 55.578C100.594 56.678 100.198 57.36 99.5158 57.932C98.8338 58.504 97.6898 58.768 96.3478 58.768C94.9838 58.768 94.0378 58.46 93.5098 57.932C93.1138 57.536 92.9818 57.118 92.9818 56.524C92.9818 55.864 93.2238 55.292 93.7298 54.918C94.5438 54.324 95.8418 54.038 97.7338 53.994C98.6578 53.972 99.6478 54.038 100.704 54.148ZM111.382 47.658C109.05 47.658 107.356 48.736 106.982 49.88V42.466H105.354V60H106.872L106.982 58.13C107.818 59.582 109.578 60.11 111.404 60.11C113.23 60.11 114.66 59.604 115.54 58.658C116.53 57.602 117.168 56.15 117.168 53.774C117.168 51.618 116.596 50.166 115.672 49.176C114.704 48.142 113.362 47.658 111.382 47.658ZM111.184 49.154C112.812 49.154 113.89 49.572 114.638 50.518C115.276 51.332 115.518 52.41 115.518 53.884C115.518 55.6 115.188 56.722 114.506 57.47C113.802 58.262 112.658 58.68 111.074 58.68C108.83 58.68 107.664 57.558 107.202 56.37C107.048 55.886 106.938 55.49 106.938 54.192C106.938 53.004 107.004 52.498 107.136 51.838C107.51 50.342 108.764 49.154 111.184 49.154ZM130.134 56.678C130.134 51.552 121.026 54.214 121.026 50.87C121.026 49.814 121.84 49.088 124.414 49.088C127.846 49.088 128.066 50.188 128.066 51.42H129.694C129.694 48.78 127.956 47.636 124.37 47.636C120.982 47.636 119.398 48.934 119.398 50.782C119.398 56.018 128.506 53.158 128.506 56.744C128.506 58.064 127.582 58.79 124.788 58.79C121.62 58.79 120.806 58.196 120.806 56.48H119.178C119.178 59.208 120.41 60.198 124.744 60.198C128.572 60.198 130.134 59.01 130.134 56.678Z" fill="#525966"/>
<path d="M66 1.07378L46.5475 28.8444C50.6246 32.4795 56.896 35.5087 63.4456 36L63.9696 29.7941C61.0386 29.5322 58.2059 28.6643 55.6188 27.338L66 12.5194L76.3813 27.338C73.7941 28.6643 70.9614 29.5322 68.0304 29.7941L68.5544 36C75.1041 35.5087 81.3754 32.4795 85.4526 28.8444L66 1.07378Z" fill="#2C323D"/>
</svg>
